<?xml version="1.0" encoding="UTF-8"?><svg id="ART" xmlns="http://www.w3.org/2000/svg" xmlns:xlink="http://www.w3.org/1999/xlink" viewBox="0 0 484.96 269.59"><defs><style>.cls-1{fill:url(#linear-gradient);}.cls-2{fill:#fff;}.cls-3{fill:#22b9da;}.cls-4{fill:url(#linear-gradient-3);}.cls-5{fill:url(#linear-gradient-4);}.cls-6{fill:url(#linear-gradient-2);}.cls-7{fill:url(#linear-gradient-6);}.cls-8{fill:url(#linear-gradient-5);}</style><linearGradient id="linear-gradient" x1="458.08" y1="202.02" x2="32.03" y2="213.75" gradientUnits="userSpaceOnUse"><stop offset="0" stop-color="#22b9da"/><stop offset="1" stop-color="#096bb1"/></linearGradient><linearGradient id="linear-gradient-2" x1="385.62" y1="47.64" x2="44.42" y2="226.36" gradientUnits="userSpaceOnUse"><stop offset="0" stop-color="#22b9da"/><stop offset="1" stop-color="#096bb1"/></linearGradient><linearGradient id="linear-gradient-3" x1="381.42" y1="39.61" x2="40.22" y2="218.33" xlink:href="#linear-gradient-2"/><linearGradient id="linear-gradient-4" x1="366.02" y1="10.22" x2="24.82" y2="188.95" xlink:href="#linear-gradient-2"/><linearGradient id="linear-gradient-5" x1="366.31" y1="10.76" x2="25.11" y2="189.49" xlink:href="#linear-gradient-2"/><linearGradient id="linear-gradient-6" x1="366.82" y1="11.74" x2="25.62" y2="190.47" xlink:href="#linear-gradient-2"/></defs><path class="cls-1" d="m434.72,188.7H109.61c-6.59,0-34.04,1-34.04,2.06,0,1.14,15.25,2.06,15.25,2.06,0,0,14.67.96,14.67,2.14-.11,1.61-52.67,3.15-52.67,4.05,0,1.09,59.28,2.32,59.13,4.17-.13,2.44-72.74,3.07-72.74,4.07s69.56,1.7,69.56,4.23c0,1.15-17.09,1.96-18.52,1.97,0,0-43.53.99-43.53,2.05,0,.89,51.89,2.25,51.92,4.59,0,1.7-36.16,2.52-36.16,3.65s23.99,2.06,30.6,2.06,335.2,0,335.2,0l17.48-18.44-11.04-18.66Z"/><path class="cls-2" d="m117.15,218.3l.71-3.93h19.2c1.41,0,2-.25,2.18-1.29l.55-3.1c0-.09.03-.22.03-.31,0-.74-.55-1.01-1.78-1.01h-12.91c-4.42,0-6.17-1.6-6.17-4.11,0-.34.06-.74.13-1.13l.24-1.47c.52-3.13,2.88-5.25,7.91-5.25h18.68l-.68,3.9h-18.68c-1.32,0-2.06.34-2.24,1.32l-.28,1.53c-.03.09-.03.22-.03.31,0,.7.55,1.01,1.81,1.01h12.91c4.42,0,6.17,1.63,6.17,4.11,0,.37-.03.74-.09,1.13l-.55,3.01c-.58,3.13-2.85,5.28-7.92,5.28h-19.2Z"/><path class="cls-2" d="m174.04,196.7h5l-2.88,16.38c-.55,3.1-2.82,5.21-7.85,5.21h-13.77c-4.38,0-6.13-1.63-6.13-4.08,0-.37.06-.74.12-1.13l2.88-16.38h5l-2.88,16.41c-.03.09-.03.18-.03.25,0,.71.61,1.01,1.75,1.01h13.77c1.26,0,1.99-.37,2.15-1.26l2.88-16.41Z"/><path class="cls-2" d="m186.5,210.47l-1.38,7.82h-5l3.8-21.59h18.13c4.39,0,6.1,1.63,6.1,4.08,0,.37-.03.74-.09,1.13l-.58,3.34c-.55,3.1-2.82,5.21-7.85,5.21h-13.13Zm16.56-8.47c0-.09.03-.18.03-.28,0-.67-.4-1.13-1.26-1.13h-13.59l-1.04,5.95h13.62c.98,0,1.5-.46,1.65-1.26l.58-3.28Z"/><path class="cls-2" d="m209.06,218.3l3.8-21.59h22.76l-.68,3.9h-17.76l-.77,4.32h16.81l-.71,3.93h-16.81l-.95,5.52h17.76l-.71,3.93h-22.76Z"/><path class="cls-2" d="m256.53,218.3l-3.13-9.6h-10.43l-1.69,9.6h-5l3.8-21.59h18.77c4.39,0,6.14,1.63,6.14,4.11,0,.34-.03.7-.09,1.1l-.28,1.56c-.46,2.58-2.02,4.63-5.98,5.15l3.13,9.66h-5.25Zm3.37-16.44c0-.86-.4-1.26-1.72-1.26h-13.77l-.73,4.2h13.77c1.32,0,1.96-.25,2.15-1.29l.3-1.66Z"/><path class="cls-2" d="m293.14,218.3l-19.66-16.04-2.82,16.04h-4.36l3.8-21.59h4.32l17.92,15.03,2.67-15.03h4.38l-3.8,21.59h-2.45Z"/><path class="cls-2" d="m300.57,218.3l3.8-21.59h22.76l-.67,3.9h-17.76l-.77,4.32h16.81l-.7,3.93h-16.81l-.95,5.52h17.76l-.71,3.93h-22.76Z"/><path class="cls-2" d="m354.14,196.7h5l-2.88,16.38c-.55,3.1-2.82,5.21-7.85,5.21h-13.77c-4.39,0-6.14-1.63-6.14-4.08,0-.37.06-.74.12-1.13l2.88-16.38h5l-2.88,16.41c-.03.09-.03.18-.03.25,0,.71.61,1.01,1.75,1.01h13.77c1.26,0,2-.37,2.15-1.26l2.88-16.41Z"/><path class="cls-2" d="m380.47,218.3l-3.13-9.6h-10.43l-1.69,9.6h-5l3.8-21.59h18.78c4.38,0,6.13,1.63,6.13,4.11,0,.34-.03.7-.09,1.1l-.28,1.56c-.46,2.58-2.02,4.63-5.98,5.15l3.13,9.66h-5.24Zm3.37-16.44c0-.86-.4-1.26-1.72-1.26h-13.77l-.74,4.2h13.77c1.32,0,1.96-.25,2.15-1.29l.31-1.66Z"/><path class="cls-2" d="m397.02,218.3c-4.38,0-6.13-1.63-6.13-4.08,0-.37.06-.74.12-1.13l1.96-11.17c.55-3.1,2.82-5.21,7.85-5.21h14.63c4.39,0,6.1,1.63,6.1,4.08,0,.37-.03.74-.09,1.13l-1.96,11.17c-.55,3.1-2.82,5.21-7.85,5.21h-14.63Zm19.48-16.44c0-.86-.4-1.26-1.72-1.26h-14.63c-1.26,0-1.99.4-2.15,1.26l-1.99,11.26c-.03.09-.03.18-.03.25,0,.71.61,1.01,1.75,1.01h14.63c1.26,0,1.99-.37,2.15-1.26l1.99-11.26Z"/><path class="cls-3" d="m66.91,243.2l-2.8-6.11-5.05,6.11h-2.11l6.76-8.02h1.37l3.9,8.02h-2.06Z"/><path class="cls-3" d="m72.13,243.2c-1.63,0-2.28-.6-2.28-1.52,0-.14.02-.27.04-.42l.73-4.15c.21-1.15,1.05-1.94,2.92-1.94h6.62l-.25,1.45h-6.62c-.47,0-.74.15-.8.47l-.74,4.18s-.01.07-.01.09c0,.26.23.38.65.38h6.62l-.26,1.46h-6.62Z"/><path class="cls-3" d="m82.94,243.2c-1.63,0-2.28-.6-2.28-1.52,0-.14.02-.27.04-.42l.73-4.15c.21-1.15,1.05-1.94,2.92-1.94h6.62l-.25,1.45h-6.62c-.47,0-.74.15-.8.47l-.74,4.18s-.01.07-.01.09c0,.26.23.38.65.38h6.62l-.26,1.46h-6.62Z"/><path class="cls-3" d="m91.24,243.2l1.41-8.02h8.45l-.25,1.45h-6.6l-.29,1.61h6.24l-.26,1.46h-6.24l-.35,2.05h6.6l-.26,1.46h-8.45Z"/><path class="cls-3" d="m101.37,243.2l1.41-8.02h1.88l-1.15,6.56h6.35l-.26,1.46h-8.23Z"/><path class="cls-3" d="m111.04,243.2l1.41-8.02h8.45l-.25,1.45h-6.6l-.29,1.61h6.24l-.26,1.46h-6.24l-.35,2.05h6.6l-.26,1.46h-8.46Z"/><path class="cls-3" d="m128.69,243.2l-1.16-3.57h-3.87l-.63,3.57h-1.86l1.41-8.02h6.97c1.63,0,2.28.6,2.28,1.53,0,.13-.01.26-.03.41l-.1.58c-.17.96-.75,1.72-2.22,1.91l1.16,3.59h-1.95Zm1.25-6.11c0-.32-.15-.47-.64-.47h-5.12l-.27,1.56h5.12c.49,0,.73-.09.8-.48l.11-.62Z"/><path class="cls-3" d="m141.56,243.2l-2.8-6.11-5.05,6.11h-2.11l6.76-8.02h1.37l3.9,8.02h-2.06Z"/><path class="cls-3" d="m146.4,243.2l1.16-6.57h-4.13l.25-1.45h10.05l-.25,1.45h-4.04l-1.16,6.57h-1.87Z"/><path class="cls-3" d="m153.77,243.2l1.41-8.02h1.86l-1.41,8.02h-1.86Z"/><path class="cls-3" d="m167.53,243.2l-7.3-5.96-1.05,5.96h-1.62l1.41-8.02h1.61l6.65,5.58.99-5.58h1.63l-1.41,8.02h-.91Z"/><path class="cls-3" d="m172.89,243.2c-1.48,0-2.33-.47-2.33-1.47,0-.11,0-.24.03-.38l.73-4.17c.25-1.42,1.33-2.01,2.99-2.01h6.73l-.25,1.45h-6.74c-.58,0-.81.22-.86.56l-.73,4.16s-.01.05-.01.07c0,.25.33.33.71.33h4.25c.41,0,.75-.08.81-.38l.46-2.54h1.87l-.46,2.54c-.26,1.42-1.16,1.83-2.94,1.83h-4.24Z"/><path class="cls-3" d="m197.66,243.2l-7.3-5.96-1.05,5.96h-1.62l1.41-8.02h1.61l6.65,5.58.99-5.58h1.63l-1.41,8.02h-.91Z"/><path class="cls-3" d="m200.45,243.2l1.41-8.02h8.45l-.25,1.45h-6.6l-.29,1.61h6.24l-.26,1.46h-6.24l-.35,2.05h6.6l-.26,1.46h-8.45Z"/><path class="cls-3" d="m220.36,235.17h1.86l-1.07,6.08c-.21,1.15-1.05,1.94-2.92,1.94h-5.12c-1.63,0-2.28-.6-2.28-1.52,0-.14.02-.27.05-.42l1.07-6.08h1.86l-1.07,6.09s0,.07,0,.09c0,.26.23.38.65.38h5.11c.47,0,.74-.14.8-.47l1.07-6.09Z"/><path class="cls-3" d="m230.16,243.2l-1.16-3.57h-3.87l-.63,3.57h-1.86l1.41-8.02h6.97c1.63,0,2.28.6,2.28,1.53,0,.13-.01.26-.03.41l-.1.58c-.17.96-.75,1.72-2.22,1.91l1.16,3.59h-1.95Zm1.25-6.11c0-.32-.15-.47-.64-.47h-5.12l-.27,1.56h5.12c.49,0,.73-.09.8-.48l.11-.62Z"/><path class="cls-3" d="m236.33,243.2c-1.63,0-2.28-.6-2.28-1.52,0-.14.02-.27.04-.42l.73-4.15c.21-1.15,1.05-1.94,2.92-1.94h5.43c1.63,0,2.27.6,2.27,1.52,0,.14-.01.27-.04.42l-.73,4.15c-.21,1.15-1.05,1.94-2.92,1.94h-5.43Zm7.23-6.11c0-.32-.15-.47-.64-.47h-5.43c-.47,0-.74.15-.8.47l-.74,4.18s-.01.07-.01.09c0,.26.23.38.65.38h5.43c.47,0,.74-.14.8-.47l.74-4.18Z"/><path class="cls-3" d="m256.95,243.2l.89-5.06-4.65,5.06h-1.53l-2.89-5.05-.89,5.05h-1.72l1.41-8.02h1.66l3.52,6.21,5.67-6.21h1.65l-1.41,8.02h-1.72Z"/><path class="cls-3" d="m263.07,243.2c-1.63,0-2.28-.6-2.28-1.52,0-.14.02-.27.04-.42l.73-4.15c.21-1.15,1.05-1.94,2.92-1.94h5.43c1.63,0,2.27.6,2.27,1.52,0,.14-.01.27-.04.42l-.73,4.15c-.21,1.15-1.05,1.94-2.92,1.94h-5.43Zm7.23-6.11c0-.32-.15-.47-.64-.47h-5.43c-.47,0-.74.15-.8.47l-.74,4.18s-.01.07-.01.09c0,.26.23.38.65.38h5.43c.47,0,.74-.14.8-.47l.74-4.18Z"/><path class="cls-3" d="m280.43,243.2l-1.16-3.57h-3.87l-.63,3.57h-1.86l1.41-8.02h6.97c1.63,0,2.28.6,2.28,1.53,0,.13-.01.26-.03.41l-.1.58c-.17.96-.75,1.72-2.22,1.91l1.16,3.59h-1.95Zm1.25-6.11c0-.32-.15-.47-.64-.47h-5.12l-.27,1.56h5.12c.49,0,.73-.09.8-.48l.11-.62Z"/><path class="cls-3" d="m286.45,240.29l-.51,2.9h-1.86l1.41-8.02h6.73c1.63,0,2.27.6,2.27,1.52,0,.14-.01.27-.04.42l-.22,1.24c-.21,1.15-1.05,1.94-2.92,1.94h-4.88Zm6.15-3.14s.01-.07.01-.1c0-.25-.15-.42-.47-.42h-5.05l-.39,2.21h5.06c.36,0,.56-.17.61-.47l.22-1.22Z"/><path class="cls-3" d="m302.81,243.2l.61-3.51h-6.11l-.61,3.51h-1.86l1.41-8.02h1.86l-.54,3.05h6.11l.54-3.05h1.87l-1.41,8.02h-1.87Z"/><path class="cls-3" d="m306.6,243.2l1.41-8.02h1.86l-1.41,8.02h-1.86Z"/><path class="cls-3" d="m312.91,243.2c-1.63,0-2.28-.6-2.28-1.52,0-.14.02-.27.04-.42l.73-4.15c.21-1.15,1.05-1.94,2.92-1.94h6.62l-.25,1.45h-6.62c-.47,0-.74.15-.8.47l-.74,4.18s-.01.07-.01.09c0,.26.23.38.65.38h6.62l-.26,1.46h-6.62Z"/><path class="cls-3" d="m329.88,243.2c-1.63,0-2.28-.6-2.28-1.52,0-.14.02-.27.04-.42l.73-4.15c.21-1.15,1.05-1.94,2.92-1.94h6.62l-.25,1.45h-6.62c-.47,0-.74.15-.8.47l-.74,4.18s-.01.07-.01.09c0,.26.23.38.65.38h6.62l-.26,1.46h-6.62Z"/><path class="cls-3" d="m340.69,243.2c-1.63,0-2.28-.6-2.28-1.52,0-.14.02-.27.04-.42l.73-4.15c.21-1.15,1.05-1.94,2.92-1.94h5.43c1.63,0,2.27.6,2.27,1.52,0,.14-.01.27-.04.42l-.73,4.15c-.21,1.15-1.05,1.94-2.92,1.94h-5.43Zm7.23-6.11c0-.32-.15-.47-.64-.47h-5.43c-.47,0-.74.15-.8.47l-.74,4.18s-.01.07-.01.09c0,.26.23.38.65.38h5.43c.47,0,.74-.14.8-.47l.74-4.18Z"/><path class="cls-3" d="m361.32,243.2l.89-5.06-4.65,5.06h-1.53l-2.89-5.05-.89,5.05h-1.72l1.41-8.02h1.66l3.52,6.21,5.67-6.21h1.65l-1.41,8.02h-1.72Z"/><path class="cls-3" d="m367.3,240.29l-.51,2.9h-1.86l1.41-8.02h6.73c1.63,0,2.27.6,2.27,1.52,0,.14-.01.27-.04.42l-.22,1.24c-.21,1.15-1.05,1.94-2.92,1.94h-4.88Zm6.15-3.14s.01-.07.01-.1c0-.25-.15-.42-.47-.42h-5.05l-.39,2.21h5.06c.36,0,.56-.17.61-.47l.22-1.22Z"/><path class="cls-3" d="m385.48,235.17h1.86l-1.07,6.08c-.2,1.15-1.05,1.94-2.92,1.94h-5.12c-1.63,0-2.28-.6-2.28-1.52,0-.14.02-.27.05-.42l1.07-6.08h1.86l-1.07,6.09s-.01.07-.01.09c0,.26.23.38.65.38h5.12c.47,0,.74-.14.8-.47l1.07-6.09Z"/><path class="cls-3" d="m391.42,243.2l1.16-6.57h-4.13l.25-1.45h10.05l-.25,1.45h-4.04l-1.16,6.57h-1.87Z"/><path class="cls-3" d="m398.79,243.2l1.41-8.02h1.86l-1.41,8.02h-1.86Z"/><path class="cls-3" d="m412.55,243.2l-7.3-5.96-1.05,5.96h-1.62l1.41-8.02h1.61l6.65,5.58.99-5.58h1.63l-1.41,8.02h-.91Z"/><path class="cls-3" d="m417.9,243.2c-1.48,0-2.33-.47-2.33-1.47,0-.11.01-.24.03-.38l.73-4.17c.25-1.42,1.33-2.01,2.98-2.01h6.74l-.25,1.45h-6.74c-.58,0-.81.22-.86.56l-.73,4.16s-.01.05-.01.07c0,.25.33.33.71.33h4.25c.41,0,.75-.08.81-.38l.46-2.54h1.87l-.46,2.54c-.26,1.42-1.16,1.83-2.94,1.83h-4.24Z"/><path class="cls-6" d="m262.41,101.72c-6,0-10.86,4.86-10.86,10.86,0,2.58.94,4.92,2.44,6.78l-6.7,6.87c-.9-.55-1.95-.89-3.08-.89-.53,0-1.04.09-1.53.23l-2.96-5.61c2.67-1.48,4.5-4.29,4.5-7.56,0-4.79-3.89-8.68-8.68-8.68s-8.68,3.89-8.68,8.68c0,3.07,1.6,5.75,4,7.29l-3.55,21.8c-3.09.19-5.55,2.73-5.55,5.87s2.65,5.91,5.91,5.91,5.91-2.65,5.91-5.91c0-2.48-1.53-4.6-3.7-5.47l3.44-21.14c.71.19,1.45.32,2.22.32.6,0,1.18-.06,1.74-.18l3.11,5.88c-1.26,1.08-2.08,2.67-2.08,4.46,0,3.26,2.65,5.91,5.91,5.91s5.91-2.65,5.91-5.91c0-1.19-.36-2.29-.96-3.22l6.68-6.86c1.83,1.4,4.08,2.26,6.56,2.26,6,0,10.86-4.86,10.86-10.86s-4.86-10.86-10.86-10.86Z"/><path class="cls-4" d="m305.04,82.73c-.8,0-1.55.14-2.29.33l-2.79-7.98c2.08-1.21,3.49-3.43,3.49-6,0-3.85-3.12-6.97-6.97-6.97s-6.97,3.12-6.97,6.97,3.12,6.97,6.97,6.97c.35,0,.69-.05,1.02-.1l2.84,8.13c-1.76,1.07-3.11,2.72-3.81,4.69l-10.48-4.17c.06-.44.13-.87.13-1.32,0-5.68-4.6-10.28-10.28-10.28s-10.28,4.6-10.28,10.28,4.6,10.28,10.28,10.28c1.14,0,2.22-.23,3.24-.57.88,2.11,1.77,4.26,2.58,6.23-1.97,1.24-3.29,3.42-3.29,5.93,0,3.88,3.14,7.02,7.02,7.02s7.02-3.14,7.02-7.02-3.14-7.02-7.02-7.02c-.45,0-.89.05-1.32.13-.83-2.02-1.74-4.23-2.64-6.38,1.75-1.14,3.12-2.79,3.91-4.74l10.6,4.22c0,.15-.04.28-.04.43,0,5,4.05,9.06,9.06,9.06s9.06-4.05,9.06-9.06-4.05-9.06-9.06-9.06Z"/><path class="cls-5" d="m325.88,72.23c-.67,0-1.3.13-1.9.33l-3.57-8.3c1.64-1.39,2.7-3.44,2.7-5.76,0-4.19-3.39-7.58-7.58-7.58-1.65,0-3.17.54-4.41,1.44l-6.74-3.65c.78-1.3,1.25-2.8,1.25-4.42,0-4.79-3.88-8.67-8.67-8.67-3.6,0-6.68,2.19-7.99,5.3l-8.98-4.1c.04-.35.11-.7.11-1.06,0-5.17-4.19-9.36-9.36-9.36s-9.36,4.19-9.36,9.36,4.19,9.36,9.36,9.36c.75,0,1.47-.11,2.17-.28l4.05,10.11c-.22.16-.43.33-.62.51l-24.03-14.76c.37-1.08.61-2.22.61-3.43,0-5.96-4.83-10.78-10.78-10.78s-10.58,4.66-10.75,10.47l-10.45,2.25c-1.2-1.93-3.33-3.23-5.78-3.23-3.77,0-6.82,3.05-6.82,6.82s3.05,6.82,6.82,6.82,6.82-3.05,6.82-6.82c0-.39-.05-.76-.11-1.14l9.74-2.09c1.05,4.85,5.36,8.49,10.53,8.49,3.82,0,7.15-1.99,9.07-4.99l23.79,14.62c-.16.51-.27,1.05-.27,1.61,0,2.97,2.41,5.38,5.38,5.38s5.38-2.41,5.38-5.38-2.41-5.38-5.38-5.38c-.25,0-.49.04-.73.07l-4.05-10.12c1.79-1.02,3.24-2.57,4.05-4.49l9,4.11c-.02.26-.08.52-.08.79,0,4.79,3.88,8.67,8.67,8.67,2.21,0,4.2-.85,5.74-2.21l6.54,3.54c-.81,1.2-1.28,2.65-1.28,4.21,0,4.19,3.39,7.58,7.58,7.58.92,0,1.8-.19,2.62-.49l3.57,8.28c-1.24,1.13-2.03,2.75-2.03,4.56,0,3.42,2.77,6.19,6.19,6.19s6.19-2.77,6.19-6.19-2.77-6.19-6.19-6.19Z"/><path class="cls-8" d="m243.69,93.67l-22.81-4.79c-.07-3.41-2.84-6.15-6.27-6.15s-6.28,2.81-6.28,6.28,2.81,6.28,6.28,6.28c2.61,0,4.84-1.59,5.79-3.85l22.94,4.82c.19,3.18,2.56,5.92,5.84,6.43,3.78.59,7.32-2,7.91-5.78.58-3.73-1.94-7.22-5.65-7.87l-.47-4.9c2.41-.79,4.17-3.03,4.17-5.71,0-3.33-2.7-6.03-6.03-6.03-2.5,0-4.64,1.52-5.55,3.68l-7.45-1.38c-.16-3.18-1.91-5.92-4.48-7.46l2.56-5.45c.44.09.9.14,1.37.14,2.73,0,5.07-1.59,6.2-3.89l12.31,4.67c0,.12-.04.24-.04.36,0,3.33,2.7,6.03,6.03,6.03s6.03-2.7,6.03-6.03-2.7-6.03-6.03-6.03c-2.29,0-4.25,1.29-5.27,3.16l-12.35-4.68c.01-.17.05-.34.05-.52,0-3.83-3.1-6.93-6.93-6.93s-6.93,3.1-6.93,6.93c0,2.43,1.26,4.56,3.16,5.8l-2.55,5.43c-.76-.2-1.54-.34-2.36-.34-5.13,0-9.29,4.16-9.29,9.29s4.16,9.29,9.29,9.29c4.39,0,8.06-3.06,9.02-7.16l7.22,1.34c.1,2.98,2.37,5.39,5.28,5.75l.46,4.71c-2.38.5-4.36,2.22-5.14,4.59Z"/><path class="cls-7" d="m225.94,131.07c0-2.42-1.82-4.4-4.17-4.68l-5.58-10.98c1.19-1.49,1.93-3.35,1.93-5.4,0-4.79-3.89-8.68-8.68-8.68-1.41,0-2.73.37-3.91.97l-7.14-5.12c.26-.75.44-1.54.44-2.37,0-2.64-1.45-4.91-3.58-6.14l1.76-10.07c.37.03.73.11,1.11.11,7,0,12.68-5.68,12.68-12.68s-5.68-12.68-12.68-12.68-12.68,5.68-12.68,12.68c0,5.72,3.81,10.5,9.01,12.08l-1.7,9.69c-.35-.05-.69-.11-1.05-.11-3.93,0-7.12,3.19-7.12,7.12s3.19,7.12,7.12,7.12c2.16,0,4.06-.98,5.37-2.49l6.21,4.45c-1.56,1.57-2.53,3.73-2.53,6.12,0,4.79,3.89,8.68,8.68,8.68,1.76,0,3.4-.53,4.77-1.44l4.87,9.6c-1.55.78-2.62,2.37-2.62,4.22,0,2.62,2.12,4.74,4.74,4.74s4.74-2.12,4.74-4.74Z"/></svg>