<?xml version="1.0" encoding="UTF-8"?><svg id="Layer_1" xmlns="http://www.w3.org/2000/svg" viewBox="0 0 520 100"><path d="M442.96,53.87h-7.48l-17.18,23.94-4.67,5.47,10.24-29.22-7.19-.02-12.24,12.29-3.87-12.67h-7.8l-10.79,32.15h7.83l6.67-19.38,2.83,8.53h4.49l8.86-8.81-7.23,19.66h15.38l3.72-4.62,12.21-.03.36,4.64h8.76l-2.93-31.95ZM427.67,75.01l8.83-12.82-.06,12.75-8.77.07Z"/><path d="M447.18,85.83l8.47-24.6h-7.56l2.47-7.17h24.84l-2.47,7.17h-8l-8.47,24.6h-9.28Z"/><g id="SN_matrix"><polygon points="423.83 32.14 412.97 32.14 411.69 35.86 422.55 35.86 423.83 32.14" style="fill:#505050;"/><polygon points="434.69 32.14 423.83 32.14 422.55 35.86 433.41 35.86 434.69 32.14" style="fill:#636363;"/><polygon points="422.55 35.86 421.27 39.57 432.13 39.57 433.41 35.86 422.55 35.86" style="fill:#848484;"/><polygon points="471.1 21 469.82 24.71 480.67 24.71 481.95 21 471.1 21" style="fill:#777;"/><polygon points="426.39 24.71 427.67 21 416.81 21 415.53 24.71 426.39 24.71" style="fill:#151515;"/><polygon points="437.24 24.71 438.52 21 427.67 21 426.39 24.71 437.24 24.71" style="fill:#202020;"/><polygon points="398.28 43.29 397 47 407.86 47 409.14 43.29 398.28 43.29" style="fill:#777;"/><polygon points="416.81 21 405.95 21 404.67 24.71 415.53 24.71 416.81 21"/><polygon points="415.53 24.71 404.67 24.71 403.39 28.43 414.25 28.43 415.53 24.71" style="fill:#151515;"/><polygon points="412.97 32.14 402.12 32.14 400.84 35.86 411.69 35.86 412.97 32.14" style="fill:#333;"/><polygon points="414.25 28.43 403.39 28.43 402.12 32.14 412.97 32.14 414.25 28.43" style="fill:#202020;"/><polygon points="410.42 39.57 399.56 39.57 398.28 43.29 409.14 43.29 410.42 39.57" style="fill:#555;"/><polygon points="410.42 39.57 409.14 43.29 419.99 43.29 421.27 39.57 410.42 39.57" style="fill:#7f7f7f;"/><polygon points="422.55 35.86 411.69 35.86 410.42 39.57 421.27 39.57 422.55 35.86" style="fill:#5d5d5d;"/><polygon points="425.11 28.43 414.25 28.43 412.97 32.14 423.83 32.14 425.11 28.43" style="fill:#383838;"/><polygon points="426.39 24.71 415.53 24.71 414.25 28.43 425.11 28.43 426.39 24.71" style="fill:#222;"/><polygon points="435.97 28.43 425.11 28.43 423.83 32.14 434.69 32.14 435.97 28.43" style="fill:#525252;"/><polygon points="435.97 28.43 437.24 24.71 426.39 24.71 425.11 28.43 435.97 28.43" style="fill:#383838;"/><polygon points="457.68 28.43 468.54 28.43 469.82 24.71 458.96 24.71 457.68 28.43" style="fill:#7a7a7a;"/><polygon points="411.69 35.86 400.84 35.86 399.56 39.57 410.42 39.57 411.69 35.86" style="fill:#444;"/><polygon points="469.82 24.71 471.1 21 460.24 21 458.96 24.71 469.82 24.71" style="fill:#555;"/><path d="M469.82,24.71l-1.28,3.71h-10.86l-1.28,3.71h-10.86l-.88,2.56c-.13.39-.26.77-.38,1.15-.44,1.36-.84,2.63-1.14,3.71-.26.94-.46,1.74-.57,2.35-.09.5-.08.95,0,1.37.42,2.33,3.11,3.36,4.37,3.71h26.07l1.28-3.71,1.28-3.71,1.28-3.71,1.28-3.71,1.28-3.71,1.28-3.71h-10.86Z"/><path d="M446.08,30.59l-.53,1.55h10.86l1.28-3.71h-10.83c-.25.71-.51,1.43-.77,2.16Z" style="fill:#7f7f7f;"/><path d="M446.85,28.43h10.83l1.28-3.71h-10.76c-.42,1.12-.88,2.39-1.35,3.71Z" style="fill:#5d5d5d;"/><path d="M443.95,32.14h-9.27l-1.28,3.71h8.39c.74-1.2,1.46-2.46,2.16-3.71Z" style="fill:#8d8d8d;"/><path d="M447.79,24.71h-10.54l-1.28,3.71h9.97c.69-1.33,1.31-2.59,1.85-3.71Z" style="fill:#505050;"/><path d="M445.93,28.43h-9.97l-1.28,3.71h9.27c.7-1.26,1.36-2.51,1.98-3.71Z" style="fill:#5f5f5f;"/><path d="M433.41,35.86l-1.28,3.71h-10.86l-1.28,3.71h-10.86l-1.28,3.71h12.68c3.4,0,6.75-.53,9.46-1.24,2.16-.57,4.26-1.36,5.86-2.48.43-.3.82-.61,1.16-.96.74-.74,1.52-1.69,2.3-2.76.82-1.12,1.65-2.38,2.47-3.71h-8.39Z"/><polygon points="438.52 21 437.25 24.71 447.79 24.71 449.53 21 438.52 21" style="fill:#333;"/><polygon points="449.59 21 448.2 24.71 458.96 24.71 460.24 21 449.59 21" style="fill:#444;"/></g><path d="M52.16,71.76c-3.13,0-5.92-.52-8.37-1.56-2.45-1.04-4.39-2.56-5.81-4.56-1.42-2-2.15-4.42-2.19-7.26h8.84c.04,1.24.37,2.36.99,3.36.62,1,1.47,1.79,2.56,2.37,1.09.58,2.4.87,3.92.87,1.32,0,2.46-.21,3.43-.63.97-.42,1.72-1.01,2.26-1.77.54-.76.8-1.66.8-2.7,0-1.2-.3-2.2-.9-3-.6-.8-1.42-1.48-2.47-2.04-1.05-.56-2.27-1.07-3.65-1.53-1.38-.46-2.83-.95-4.36-1.47-3.42-1.08-6.03-2.52-7.82-4.32-1.79-1.8-2.69-4.18-2.69-7.14,0-2.52.63-4.68,1.88-6.48,1.26-1.8,3-3.18,5.22-4.14,2.23-.96,4.76-1.44,7.6-1.44s5.49.49,7.69,1.47c2.2.98,3.96,2.39,5.25,4.23,1.3,1.84,1.97,4,2.01,6.48h-8.9c-.04-.92-.32-1.79-.83-2.61-.52-.82-1.23-1.48-2.13-1.98-.91-.5-1.98-.75-3.21-.75-1.07-.04-2.05.12-2.94.48-.89.36-1.59.89-2.1,1.59-.52.7-.77,1.57-.77,2.61s.26,1.84.77,2.52c.52.68,1.23,1.27,2.13,1.77.91.5,1.98.96,3.21,1.38,1.24.42,2.57.85,4.02,1.29,2.14.72,4.12,1.57,5.93,2.55,1.81.98,3.25,2.25,4.33,3.81,1.07,1.56,1.61,3.62,1.61,6.18,0,2.2-.6,4.24-1.79,6.12-1.2,1.88-2.92,3.4-5.16,4.56-2.25,1.16-5.04,1.74-8.37,1.74Z"/><path d="M84.94,71.76c-2.51,0-4.67-.51-6.46-1.53-1.79-1.02-3.16-2.52-4.11-4.5-.95-1.98-1.42-4.43-1.42-7.35v-17.58h8.34v16.74c0,2.44.53,4.28,1.58,5.52,1.05,1.24,2.67,1.86,4.85,1.86,1.4,0,2.64-.31,3.71-.93,1.07-.62,1.93-1.52,2.56-2.7.64-1.18.96-2.63.96-4.35v-16.14h8.28v30.24h-7.29l-.68-4.92c-.91,1.72-2.25,3.09-4.02,4.11-1.77,1.02-3.87,1.53-6.3,1.53Z"/><path d="M110.43,84.24v-43.44h7.42l.93,4.2c.66-.88,1.44-1.69,2.35-2.43.91-.74,1.99-1.34,3.24-1.8,1.26-.46,2.73-.69,4.42-.69,2.92,0,5.5.7,7.72,2.1,2.23,1.4,3.99,3.29,5.28,5.67,1.3,2.38,1.95,5.09,1.95,8.13s-.66,5.75-1.98,8.13c-1.32,2.38-3.09,4.25-5.31,5.61-2.23,1.36-4.76,2.04-7.6,2.04-2.31,0-4.29-.41-5.96-1.23-1.67-.82-3.04-1.95-4.11-3.39v17.1h-8.34ZM126.87,64.68c1.65,0,3.1-.36,4.36-1.08,1.26-.72,2.23-1.74,2.94-3.06.7-1.32,1.05-2.84,1.05-4.56s-.35-3.25-1.05-4.59c-.7-1.34-1.68-2.38-2.94-3.12-1.26-.74-2.71-1.11-4.36-1.11s-3.04.37-4.29,1.11c-1.26.74-2.25,1.77-2.97,3.09-.72,1.32-1.08,2.84-1.08,4.56s.36,3.25,1.08,4.59c.72,1.34,1.71,2.37,2.97,3.09,1.26.72,2.69,1.08,4.29,1.08Z"/><path d="M163.43,71.76c-3.13,0-5.9-.65-8.31-1.95s-4.29-3.12-5.62-5.46c-1.34-2.34-2.01-5.05-2.01-8.13s.66-5.95,1.98-8.37c1.32-2.42,3.18-4.32,5.59-5.7,2.41-1.38,5.2-2.07,8.37-2.07s5.79.66,8.1,1.98c2.31,1.32,4.1,3.1,5.38,5.34,1.28,2.24,1.92,4.78,1.92,7.62v1.32c0,.52-.04,1.04-.12,1.56h-22.99c.12,1.28.45,2.42.99,3.42.62,1.24,1.5,2.19,2.66,2.85,1.15.66,2.49.99,4.02.99s2.79-.32,3.8-.96c1.01-.64,1.76-1.46,2.26-2.46h8.53c-.58,1.88-1.55,3.58-2.9,5.1-1.36,1.52-3.03,2.72-5.01,3.6s-4.18,1.32-6.61,1.32ZM155.89,52.98h14.52c-.12-1.96-.83-3.5-2.13-4.62-1.3-1.12-2.92-1.68-4.85-1.68-1.4,0-2.7.31-3.89.93-1.2.62-2.12,1.57-2.78,2.85-.41.72-.7,1.56-.87,2.52Z"/><path d="M183.67,71.04v-30.24h7.42l.8,5.58c.74-1.32,1.68-2.44,2.81-3.36,1.13-.92,2.43-1.64,3.89-2.16,1.46-.52,3.08-.78,4.85-.78v8.58h-2.84c-1.24,0-2.38.14-3.43.42-1.05.28-1.97.73-2.75,1.35-.78.62-1.38,1.47-1.79,2.55-.41,1.08-.62,2.44-.62,4.08v13.98h-8.34Z"/><path d="M209.78,71.04V29.04h8.34l19.9,28.98v-28.98h8.34v42h-8.34l-19.9-28.92v28.92h-8.34Z" style="fill:#2288a0;"/><path d="M267.54,71.76c-3.13,0-5.9-.65-8.31-1.95s-4.29-3.12-5.62-5.46c-1.34-2.34-2.01-5.05-2.01-8.13s.66-5.95,1.98-8.37c1.32-2.42,3.18-4.32,5.59-5.7,2.41-1.38,5.2-2.07,8.37-2.07s5.79.66,8.1,1.98,4.1,3.1,5.38,5.34c1.28,2.24,1.92,4.78,1.92,7.62v1.32c0,.52-.04,1.04-.12,1.56h-22.99c.12,1.28.45,2.42.99,3.42.62,1.24,1.5,2.19,2.66,2.85,1.15.66,2.49.99,4.02.99s2.79-.32,3.8-.96c1.01-.64,1.76-1.46,2.26-2.46h8.53c-.58,1.88-1.54,3.58-2.91,5.1-1.36,1.52-3.03,2.72-5,3.6-1.98.88-4.18,1.32-6.61,1.32ZM260,52.98h14.52c-.12-1.96-.83-3.5-2.13-4.62-1.3-1.12-2.92-1.68-4.85-1.68-1.4,0-2.7.31-3.89.93-1.2.62-2.12,1.57-2.78,2.85-.41.72-.7,1.56-.87,2.52Z" style="fill:#006166;"/><path d="M299.91,71.76c-2.44,0-4.53-.51-6.27-1.53-1.74-1.02-3.07-2.52-3.99-4.5-.92-1.98-1.38-4.43-1.38-7.35v-17.58h8.1v16.74c0,2.44.51,4.28,1.53,5.52,1.02,1.24,2.59,1.86,4.71,1.86,1.36,0,2.56-.31,3.6-.93,1.04-.62,1.87-1.52,2.49-2.7.62-1.18.93-2.63.93-4.35v-16.14h8.04v30.24h-7.08l-.66-4.92c-.88,1.72-2.18,3.09-3.9,4.11-1.72,1.02-3.76,1.53-6.12,1.53Z" style="fill:#003535;"/><path d="M324.74,71.04v-30.24h7.42l.8,5.58c.74-1.32,1.68-2.44,2.81-3.36,1.13-.92,2.43-1.64,3.89-2.16,1.46-.52,3.08-.78,4.85-.78v8.58h-2.84c-1.24,0-2.38.14-3.43.42-1.05.28-1.97.73-2.75,1.35-.78.62-1.38,1.47-1.79,2.55-.41,1.08-.62,2.44-.62,4.08v13.98h-8.34Z" style="fill:#003535;"/><path d="M363.34,71.76c-2.97,0-5.63-.67-8-2.01-2.37-1.34-4.24-3.2-5.62-5.58-1.38-2.38-2.07-5.11-2.07-8.19s.69-5.93,2.07-8.31c1.38-2.38,3.26-4.24,5.66-5.58,2.39-1.34,5.07-2.01,8.03-2.01s5.7.67,8.07,2.01c2.37,1.34,4.24,3.2,5.62,5.58,1.38,2.38,2.07,5.13,2.07,8.25s-.69,5.87-2.07,8.25c-1.38,2.38-3.27,4.24-5.66,5.58-2.39,1.34-5.09,2.01-8.1,2.01ZM363.34,64.74c1.4,0,2.65-.32,3.74-.96,1.09-.64,1.96-1.62,2.6-2.94.64-1.32.96-2.96.96-4.92s-.32-3.59-.96-4.89c-.64-1.3-1.5-2.28-2.6-2.94-1.09-.66-2.32-.99-3.68-.99s-2.53.33-3.65.99c-1.11.66-1.99,1.64-2.63,2.94-.64,1.3-.96,2.93-.96,4.89s.32,3.6.96,4.92c.64,1.32,1.5,2.3,2.6,2.94,1.09.64,2.3.96,3.62.96Z" style="fill:#003535;"/></svg>