<?xml version="1.0" encoding="UTF-8"?><svg id="ART" xmlns="http://www.w3.org/2000/svg" xmlns:xlink="http://www.w3.org/1999/xlink" viewBox="0 0 484.96 203.57"><defs><style>.cls-1{fill:none;}.cls-2{fill:url(#linear-gradient);}.cls-3{fill:#fff;}.cls-4{fill:url(#linear-gradient-3);}.cls-5{fill:url(#linear-gradient-4);}.cls-6{fill:url(#linear-gradient-2);}.cls-7{fill:url(#linear-gradient-6);}.cls-8{fill:url(#linear-gradient-5);}</style><linearGradient id="linear-gradient" x1="95.41" y1="103.18" x2="436.95" y2="103.18" gradientUnits="userSpaceOnUse"><stop offset="0" stop-color="#096bb1"/><stop offset="1" stop-color="#22b9da"/></linearGradient><linearGradient id="linear-gradient-2" x1="177.37" y1="91.37" x2="70.38" y2="122.52" gradientUnits="userSpaceOnUse"><stop offset="0" stop-color="#22b9da"/><stop offset="1" stop-color="#096bb1"/></linearGradient><linearGradient id="linear-gradient-3" x1="183.35" y1="111.92" x2="76.37" y2="143.08" xlink:href="#linear-gradient-2"/><linearGradient id="linear-gradient-4" x1="168.96" y1="62.5" x2="61.97" y2="93.66" xlink:href="#linear-gradient-2"/><linearGradient id="linear-gradient-5" x1="170.95" y1="69.33" x2="63.96" y2="100.49" xlink:href="#linear-gradient-2"/><linearGradient id="linear-gradient-6" x1="173.28" y1="77.32" x2="66.29" y2="108.48" xlink:href="#linear-gradient-2"/></defs><path class="cls-1" d="m95.51,149.3l-.09-1.57-.2,1.22c.11.11.19.24.29.35Z"/><path class="cls-2" d="m436.95,103.48l-30.29-51.19h-244.48c1.85,2.22,2.97,5.07,2.97,8.18,0,.61-.05,1.23-.14,1.84l.56.3c1.29-.47,2.65-.72,4.04-.72,6.49,0,11.78,5.28,11.78,11.78,0,2.19-.62,4.3-1.75,6.14l.84,1.95c5.19.62,9.23,5.06,9.23,10.41,0,5.78-4.71,10.49-10.49,10.49-2.75,0-5.23-1.08-7.1-2.82.57,1.47.9,3.07.9,4.74,0,7.25-5.9,13.15-13.15,13.15-2.57,0-4.96-.74-6.99-2.02.05.42.07.84.07,1.27,0,6.21-5.05,11.26-11.26,11.26-2.54,0-4.87-.88-6.75-2.31-1,7.21-7.18,12.78-14.66,12.78-1.8,0-3.55-.33-5.21-.96l-1.63,1.67c.11.59.16,1.2.16,1.81,0,5.64-4.59,10.22-10.22,10.22-3.21,0-6.08-1.49-7.96-3.81v.08s.08,1.57.08,1.57c1.23,1.33,2.11,2.96,2.49,4.77h291l47.95-50.59Z"/><path class="cls-3" d="m203.6,101.5l.89-4.97h24.32c1.79,0,2.53-.31,2.76-1.63l.7-3.93c0-.12.04-.27.04-.39,0-.93-.7-1.28-2.25-1.28h-16.36c-5.59,0-7.81-2.02-7.81-5.21,0-.43.08-.93.16-1.44l.31-1.86c.66-3.96,3.65-6.65,10.02-6.65h23.66l-.85,4.93h-23.66c-1.67,0-2.6.43-2.84,1.67l-.35,1.94c-.04.12-.04.27-.04.39,0,.89.7,1.28,2.29,1.28h16.36c5.6,0,7.81,2.06,7.81,5.21,0,.47-.04.93-.12,1.44l-.7,3.81c-.74,3.96-3.61,6.68-10.02,6.68h-24.33Z"/><path class="cls-3" d="m275.67,74.14h6.33l-3.65,20.75c-.7,3.93-3.58,6.61-9.95,6.61h-17.45c-5.56,0-7.77-2.06-7.77-5.17,0-.47.08-.93.16-1.44l3.65-20.75h6.34l-3.65,20.79c-.04.12-.04.23-.04.31,0,.89.78,1.28,2.21,1.28h17.45c1.59,0,2.53-.47,2.72-1.59l3.65-20.79Z"/><path class="cls-3" d="m291.48,91.59l-1.75,9.91h-6.33l4.82-27.36h22.97c5.56,0,7.73,2.06,7.73,5.17,0,.47-.04.93-.12,1.44l-.74,4.24c-.7,3.92-3.58,6.61-9.95,6.61h-16.63Zm20.98-10.73c0-.12.04-.23.04-.35,0-.85-.51-1.44-1.59-1.44h-17.21l-1.32,7.54h17.25c1.24,0,1.91-.58,2.1-1.59l.74-4.16Z"/><path class="cls-3" d="m320.07,101.5l4.82-27.36h28.83l-.85,4.93h-22.5l-.97,5.48h21.3l-.89,4.97h-21.29l-1.2,6.99h22.5l-.89,4.97h-28.83Z"/><path class="cls-3" d="m380.22,101.5l-3.96-12.16h-13.21l-2.14,12.16h-6.33l4.82-27.36h23.78c5.56,0,7.77,2.06,7.77,5.21,0,.43-.04.89-.12,1.4l-.35,1.98c-.58,3.26-2.57,5.87-7.58,6.53l3.96,12.24h-6.64Zm4.27-20.83c0-1.09-.5-1.59-2.18-1.59h-17.45l-.93,5.32h17.45c1.67,0,2.49-.31,2.72-1.63l.39-2.1Z"/><path class="cls-3" d="m225.36,135.76l-24.91-20.32-3.58,20.32h-5.52l4.82-27.36h5.48l22.69,19.04,3.38-19.04h5.56l-4.82,27.36h-3.11Z"/><path class="cls-3" d="m234.8,135.76l4.82-27.36h28.83l-.86,4.93h-22.5l-.97,5.48h21.3l-.89,4.97h-21.29l-1.2,6.99h22.5l-.89,4.97h-28.83Z"/><path class="cls-3" d="m302.68,108.4h6.33l-3.65,20.75c-.7,3.93-3.58,6.61-9.95,6.61h-17.45c-5.56,0-7.77-2.06-7.77-5.17,0-.47.08-.93.16-1.44l3.65-20.75h6.34l-3.65,20.79c-.04.12-.04.23-.04.31,0,.89.78,1.28,2.21,1.28h17.45c1.59,0,2.53-.47,2.72-1.59l3.65-20.79Z"/><path class="cls-3" d="m336.05,135.76l-3.96-12.16h-13.21l-2.14,12.16h-6.33l4.82-27.36h23.78c5.56,0,7.77,2.06,7.77,5.21,0,.43-.04.89-.12,1.4l-.35,1.98c-.58,3.26-2.57,5.87-7.58,6.53l3.96,12.24h-6.64Zm4.27-20.83c0-1.09-.5-1.59-2.18-1.59h-17.45l-.93,5.32h17.45c1.67,0,2.49-.31,2.72-1.63l.39-2.1Z"/><path class="cls-3" d="m357.02,135.76c-5.56,0-7.77-2.06-7.77-5.17,0-.47.08-.93.16-1.44l2.49-14.14c.7-3.93,3.58-6.61,9.95-6.61h18.53c5.56,0,7.73,2.06,7.73,5.17,0,.47-.04.93-.12,1.44l-2.49,14.14c-.7,3.93-3.58,6.61-9.95,6.61h-18.54Zm24.68-20.83c0-1.09-.5-1.59-2.18-1.59h-18.53c-1.59,0-2.53.51-2.72,1.59l-2.53,14.26c-.04.12-.04.23-.04.31,0,.89.78,1.28,2.21,1.28h18.54c1.59,0,2.52-.47,2.72-1.59l2.53-14.26Z"/><path class="cls-6" d="m159.88,96.17c-.74,0-1.44.13-2.13.31l-2.59-7.41c1.93-1.12,3.24-3.18,3.24-5.58,0-3.57-2.9-6.47-6.47-6.47s-6.47,2.9-6.47,6.47,2.9,6.47,6.47,6.47c.33,0,.64-.05.95-.1l2.64,7.55c-1.64,1-2.89,2.52-3.54,4.36l-9.73-3.88c.05-.4.12-.8.12-1.22,0-5.27-4.27-9.55-9.55-9.55s-9.55,4.27-9.55,9.55,4.27,9.55,9.55,9.55c1.06,0,2.06-.21,3.01-.53.82,1.96,1.65,3.96,2.4,5.79-1.83,1.15-3.06,3.18-3.06,5.51,0,3.6,2.92,6.52,6.52,6.52s6.52-2.92,6.52-6.52-2.92-6.52-6.52-6.52c-.42,0-.83.05-1.22.12-.77-1.88-1.62-3.93-2.45-5.92,1.62-1.06,2.9-2.59,3.63-4.4l9.84,3.92c0,.14-.04.26-.04.4,0,4.65,3.77,8.41,8.41,8.41s8.41-3.77,8.41-8.41-3.77-8.41-8.41-8.41Z"/><path class="cls-4" d="m120.28,113.81c-5.57,0-10.08,4.51-10.08,10.08,0,2.39.87,4.57,2.26,6.29l-6.22,6.38c-.83-.51-1.81-.82-2.86-.82-.5,0-.97.09-1.42.21l-2.75-5.21c2.48-1.38,4.18-3.99,4.18-7.02,0-4.45-3.61-8.06-8.06-8.06s-8.06,3.61-8.06,8.06c0,2.85,1.49,5.34,3.71,6.77l-3.3,20.25c-2.87.18-5.15,2.54-5.15,5.45s2.46,5.49,5.49,5.49,5.49-2.46,5.49-5.49c0-2.3-1.42-4.27-3.44-5.08l3.2-19.63c.66.18,1.35.3,2.06.3.55,0,1.1-.06,1.62-.16l2.89,5.46c-1.17,1.01-1.93,2.48-1.93,4.15,0,3.03,2.46,5.49,5.49,5.49s5.49-2.46,5.49-5.49c0-1.1-.33-2.13-.89-2.99l6.21-6.37c1.7,1.3,3.79,2.1,6.1,2.1,5.57,0,10.08-4.51,10.08-10.08s-4.51-10.08-10.08-10.08Z"/><path class="cls-5" d="m179.23,86.42c-.62,0-1.2.12-1.76.3l-3.32-7.71c1.52-1.29,2.51-3.19,2.51-5.35,0-3.89-3.15-7.04-7.04-7.04-1.53,0-2.94.5-4.1,1.34l-6.26-3.39c.72-1.21,1.16-2.6,1.16-4.11,0-4.45-3.61-8.06-8.06-8.06-3.34,0-6.2,2.03-7.42,4.93l-8.34-3.81c.04-.33.1-.65.1-.99,0-4.8-3.89-8.7-8.7-8.7s-8.7,3.89-8.7,8.7,3.89,8.7,8.7,8.7c.7,0,1.37-.1,2.02-.26l3.76,9.39c-.2.15-.4.3-.58.48l-22.32-13.71c.34-1.01.57-2.06.57-3.18,0-5.53-4.48-10.01-10.01-10.01s-9.83,4.33-9.99,9.72l-9.7,2.09c-1.12-1.79-3.09-3-5.37-3-3.5,0-6.34,2.84-6.34,6.34s2.84,6.34,6.34,6.34,6.34-2.84,6.34-6.34c0-.36-.05-.71-.11-1.06l9.05-1.95c.98,4.51,4.98,7.88,9.78,7.88,3.54,0,6.64-1.85,8.42-4.63l22.1,13.58c-.15.48-.25.97-.25,1.5,0,2.76,2.24,5,5,5s5-2.24,5-5-2.24-5-5-5c-.23,0-.45.04-.68.07l-3.77-9.4c1.67-.94,3.01-2.39,3.76-4.17l8.36,3.82c-.02.25-.07.48-.07.73,0,4.45,3.61,8.06,8.06,8.06,2.05,0,3.91-.79,5.33-2.06l6.07,3.29c-.75,1.12-1.19,2.46-1.19,3.91,0,3.89,3.15,7.04,7.04,7.04.86,0,1.67-.18,2.43-.46l3.31,7.69c-1.15,1.05-1.89,2.55-1.89,4.23,0,3.18,2.58,5.75,5.75,5.75s5.75-2.58,5.75-5.75-2.58-5.75-5.75-5.75Z"/><path class="cls-8" d="m102.89,106.33l-21.19-4.45c-.06-3.17-2.64-5.72-5.82-5.72s-5.83,2.61-5.83,5.83,2.61,5.83,5.83,5.83c2.42,0,4.5-1.48,5.38-3.58l21.3,4.47c.17,2.96,2.38,5.5,5.43,5.97,3.51.55,6.8-1.86,7.34-5.37.54-3.47-1.81-6.71-5.25-7.31l-.44-4.55c2.24-.73,3.87-2.81,3.87-5.3,0-3.09-2.51-5.6-5.6-5.6-2.32,0-4.31,1.41-5.16,3.42l-6.92-1.28c-.15-2.95-1.77-5.5-4.17-6.93l2.38-5.06c.41.08.84.13,1.27.13,2.54,0,4.71-1.48,5.76-3.62l11.43,4.34c0,.11-.03.22-.03.33,0,3.09,2.51,5.6,5.6,5.6s5.6-2.51,5.6-5.6-2.51-5.6-5.6-5.6c-2.12,0-3.95,1.2-4.9,2.94l-11.47-4.35c.01-.16.05-.32.05-.48,0-3.55-2.88-6.44-6.44-6.44s-6.44,2.88-6.44,6.44c0,2.26,1.17,4.24,2.93,5.39l-2.37,5.04c-.7-.19-1.43-.32-2.19-.32-4.76,0-8.63,3.86-8.63,8.63s3.86,8.63,8.63,8.63c4.08,0,7.48-2.84,8.38-6.65l6.7,1.24c.1,2.77,2.2,5.01,4.9,5.34l.42,4.37c-2.21.46-4.05,2.07-4.78,4.26Z"/><path class="cls-7" d="m86.41,141.07c0-2.25-1.69-4.08-3.87-4.35l-5.18-10.2c1.11-1.38,1.8-3.11,1.8-5.01,0-4.45-3.61-8.06-8.06-8.06-1.31,0-2.53.34-3.63.9l-6.63-4.76c.25-.69.4-1.43.4-2.2,0-2.45-1.35-4.56-3.32-5.7l1.64-9.36c.35.03.68.1,1.03.1,6.5,0,11.78-5.27,11.78-11.78s-5.27-11.78-11.78-11.78-11.78,5.27-11.78,11.78c0,5.31,3.54,9.75,8.37,11.22l-1.57,9c-.32-.05-.64-.1-.98-.1-3.65,0-6.61,2.96-6.61,6.61s2.96,6.61,6.61,6.61c2,0,3.77-.91,4.99-2.31l5.77,4.14c-1.45,1.46-2.35,3.47-2.35,5.69,0,4.45,3.61,8.06,8.06,8.06,1.64,0,3.16-.5,4.43-1.33l4.53,8.91c-1.44.72-2.43,2.2-2.43,3.92,0,2.43,1.97,4.4,4.4,4.4s4.4-1.97,4.4-4.4Z"/></svg>