<?xml version="1.0" encoding="UTF-8"?><svg id="ART" xmlns="http://www.w3.org/2000/svg" xmlns:xlink="http://www.w3.org/1999/xlink" viewBox="0 0 484.96 203.57"><defs><linearGradient id="linear-gradient" x1="92.24" y1="99.19" x2="436.37" y2="99.19" gradientTransform="translate(0 201.39) scale(1 -1)" gradientUnits="userSpaceOnUse"><stop offset="0" stop-color="#096bb1"/><stop offset="1" stop-color="#22b9da"/></linearGradient><linearGradient id="linear-gradient-2" x1="62.1" y1="60.56" x2="171.33" y2="114.49" gradientTransform="translate(0 201.39) scale(1 -1)" gradientUnits="userSpaceOnUse"><stop offset="0" stop-color="#22b9da"/><stop offset="1" stop-color="#096bb1"/></linearGradient><linearGradient id="linear-gradient-3" x1="66.48" y1="51.69" x2="175.71" y2="105.62" gradientTransform="translate(0 201.39) scale(1 -1)" gradientUnits="userSpaceOnUse"><stop offset="0" stop-color="#22b9da"/><stop offset="1" stop-color="#096bb1"/></linearGradient><linearGradient id="linear-gradient-4" x1="48.47" y1="88.19" x2="157.69" y2="142.12" gradientTransform="translate(0 201.39) scale(1 -1)" gradientUnits="userSpaceOnUse"><stop offset="0" stop-color="#22b9da"/><stop offset="1" stop-color="#096bb1"/></linearGradient><linearGradient id="linear-gradient-5" x1="49.01" y1="87.07" x2="158.24" y2="141" gradientTransform="translate(0 201.39) scale(1 -1)" gradientUnits="userSpaceOnUse"><stop offset="0" stop-color="#22b9da"/><stop offset="1" stop-color="#096bb1"/></linearGradient><linearGradient id="linear-gradient-6" x1="49.87" y1="85.33" x2="159.1" y2="139.26" gradientTransform="translate(0 201.39) scale(1 -1)" gradientUnits="userSpaceOnUse"><stop offset="0" stop-color="#22b9da"/><stop offset="1" stop-color="#096bb1"/></linearGradient><linearGradient id="linear-gradient-7" x1="176.79" y1="111" x2="69.8" y2="79.85" gradientTransform="translate(0 201.39) scale(1 -1)" gradientUnits="userSpaceOnUse"><stop offset="0" stop-color="#22b9da"/><stop offset="1" stop-color="#096bb1"/></linearGradient><linearGradient id="linear-gradient-8" x1="182.77" y1="90.45" x2="75.79" y2="59.29" gradientTransform="translate(0 201.39) scale(1 -1)" gradientUnits="userSpaceOnUse"><stop offset="0" stop-color="#22b9da"/><stop offset="1" stop-color="#096bb1"/></linearGradient><linearGradient id="linear-gradient-9" x1="168.38" y1="139.88" x2="61.39" y2="108.72" gradientTransform="translate(0 201.39) scale(1 -1)" gradientUnits="userSpaceOnUse"><stop offset="0" stop-color="#22b9da"/><stop offset="1" stop-color="#096bb1"/></linearGradient><linearGradient id="linear-gradient-10" x1="170.37" y1="133.05" x2="63.38" y2="101.89" gradientTransform="translate(0 201.39) scale(1 -1)" gradientUnits="userSpaceOnUse"><stop offset="0" stop-color="#22b9da"/><stop offset="1" stop-color="#096bb1"/></linearGradient><linearGradient id="linear-gradient-11" x1="172.7" y1="125.04" x2="65.71" y2="93.89" gradientTransform="translate(0 201.39) scale(1 -1)" gradientUnits="userSpaceOnUse"><stop offset="0" stop-color="#22b9da"/><stop offset="1" stop-color="#096bb1"/></linearGradient></defs><polygon points="388.42 153.09 95.21 153.09 92.24 104.01 103.45 51.31 406.09 51.31 436.37 102.5 388.42 153.09" style="fill:url(#linear-gradient);"/><path d="M406.09,51.31l30.29,51.19-47.95,50.59H95.21l-2.97-49.08,11.21-52.7h302.64M408.79,46.57H99.62l-.8,3.75-11.21,52.7-.13.63.04.64,2.97,49.08.27,4.45h299.7l1.4-1.48,47.95-50.59,2.46-2.59-1.82-3.08-30.29-51.19-1.38-2.32h.01Z" style="fill:#fff;"/><path d="M176.08,72.69l-51.47-17.76-60.39,17.76-5.91,22.41,13.92,20.5,9.71,16.03s7.46,11.73,8.32,11.45,29.19-18.17,29.19-18.17c0,0,25.81-20.2,28.62-20.75s18.32-8.59,18.32-8.59l9.69-3.15v-19.73h0Z" style="fill:#fff;"/><path d="M159.3,95.19c-.74,0-1.44.13-2.13.31l-2.59-7.41c1.93-1.12,3.24-3.18,3.24-5.58,0-3.57-2.9-6.47-6.47-6.47s-6.47,2.9-6.47,6.47,2.9,6.47,6.47,6.47c.33,0,.64-.05.95-.1l2.64,7.55c-1.64,1-2.89,2.52-3.54,4.36l-9.73-3.88c.05-.4.12-.8.12-1.22,0-5.27-4.27-9.55-9.55-9.55s-9.55,4.27-9.55,9.55,4.27,9.55,9.55,9.55c1.06,0,2.06-.21,3.01-.53.82,1.96,1.65,3.96,2.4,5.79-1.83,1.15-3.06,3.18-3.06,5.51,0,3.6,2.92,6.52,6.52,6.52s6.52-2.92,6.52-6.52-2.92-6.52-6.52-6.52c-.42,0-.83.05-1.22.12-.77-1.88-1.62-3.93-2.45-5.92,1.62-1.06,2.9-2.59,3.63-4.4l9.84,3.92c0,.14-.04.26-.04.4,0,4.65,3.77,8.41,8.41,8.41s8.41-3.77,8.41-8.41-3.77-8.41-8.41-8.41h.02Z" style="fill:url(#linear-gradient-2);"/><path d="M151.35,76.04c3.57,0,6.47,2.9,6.47,6.47,0,2.39-1.31,4.46-3.24,5.58l2.59,7.41c.68-.18,1.39-.31,2.13-.31,4.65,0,8.41,3.77,8.41,8.41s-3.77,8.41-8.41,8.41-8.41-3.77-8.41-8.41c0-.14.03-.27.04-.4l-9.84-3.92c-.74,1.81-2.01,3.34-3.63,4.4.83,1.99,1.68,4.04,2.45,5.92.4-.08.8-.12,1.22-.12,3.6,0,6.52,2.92,6.52,6.52s-2.92,6.52-6.52,6.52-6.52-2.92-6.52-6.52c0-2.32,1.22-4.35,3.06-5.51-.75-1.84-1.58-3.84-2.4-5.79-.95.32-1.95.53-3.01.53-5.27,0-9.55-4.27-9.55-9.55s4.27-9.55,9.55-9.55,9.55,4.27,9.55,9.55c0,.42-.07.82-.12,1.22l9.73,3.88c.65-1.83,1.91-3.36,3.54-4.36l-2.64-7.55c-.31.05-.62.1-.95.1-3.57,0-6.47-2.9-6.47-6.47s2.9-6.47,6.47-6.47M151.37,71.29c-6.18,0-11.21,5.03-11.21,11.21,0,.45.03.9.08,1.34-2.28-1.54-5.03-2.44-7.98-2.44-7.88,0-14.28,6.41-14.28,14.28s6.07,13.94,13.66,14.27c-1.14,1.77-1.76,3.86-1.76,6.04,0,6.21,5.05,11.26,11.26,11.26s11.26-5.05,11.26-11.26c0-.43-.02-.85-.07-1.27,2.03,1.28,4.42,2.02,6.99,2.02,7.25,0,13.15-5.9,13.15-13.15,0-6.86-5.29-12.52-12-13.1l-.35-1.01c1.57-1.96,2.47-4.42,2.47-6.98,0-6.18-5.03-11.21-11.21-11.21h0ZM146.41,93.68c-.06-.43-.14-.85-.24-1.26.85.45,1.76.79,2.72,1.01l.51,1.45-2.99-1.19h0Z" style="fill:#fff;"/><path d="M119.7,112.83c-5.57,0-10.08,4.51-10.08,10.08,0,2.39.87,4.57,2.26,6.29l-6.22,6.38c-.83-.51-1.81-.82-2.86-.82-.5,0-.97.09-1.42.21l-2.75-5.21c2.48-1.38,4.18-3.99,4.18-7.02,0-4.45-3.61-8.06-8.06-8.06s-8.06,3.61-8.06,8.06c0,2.85,1.49,5.34,3.71,6.77l-3.3,20.25c-2.87.18-5.15,2.54-5.15,5.45s2.46,5.49,5.49,5.49,5.49-2.46,5.49-5.49c0-2.3-1.42-4.27-3.44-5.08l3.2-19.63c.66.18,1.35.3,2.06.3.55,0,1.1-.06,1.62-.16l2.89,5.46c-1.17,1.01-1.93,2.48-1.93,4.15,0,3.03,2.46,5.49,5.49,5.49s5.49-2.46,5.49-5.49c0-1.1-.33-2.13-.89-2.99l6.21-6.37c1.7,1.3,3.79,2.1,6.1,2.1,5.57,0,10.08-4.51,10.08-10.08s-4.51-10.08-10.08-10.08h-.03Z" style="fill:url(#linear-gradient-3);"/><path d="M119.7,112.83c5.57,0,10.08,4.51,10.08,10.08s-4.51,10.08-10.08,10.08c-2.3,0-4.4-.8-6.1-2.1l-6.21,6.37c.56.86.89,1.88.89,2.99,0,3.03-2.46,5.49-5.49,5.49s-5.49-2.46-5.49-5.49c0-1.67.76-3.14,1.93-4.15l-2.89-5.46c-.52.11-1.06.16-1.62.16-.72,0-1.4-.12-2.06-.3l-3.2,19.63c2.01.81,3.44,2.78,3.44,5.08,0,3.03-2.46,5.49-5.49,5.49s-5.49-2.46-5.49-5.49,2.28-5.28,5.15-5.45l3.3-20.25c-2.23-1.43-3.71-3.92-3.71-6.77,0-4.45,3.61-8.06,8.06-8.06s8.06,3.61,8.06,8.06c0,3.04-1.7,5.65-4.18,7.02l2.75,5.21c.46-.12.93-.21,1.42-.21,1.05,0,2.02.31,2.86.82l6.22-6.38c-1.39-1.73-2.26-3.9-2.26-6.29,0-5.57,4.51-10.08,10.08-10.08M119.67,108.09c-6.04,0-11.26,3.64-13.56,8.84-2.12-4.14-6.44-6.98-11.4-6.98-7.06,0-12.8,5.74-12.8,12.8,0,3.24,1.21,6.29,3.35,8.62l-2.4,14.71c-3.38,1.68-5.69,5.16-5.69,9.14,0,5.64,4.59,10.22,10.22,10.22s10.22-4.59,10.22-10.22c0-2.79-1.12-5.38-3.02-7.26l.21-1.3c1.88,2.32,4.75,3.81,7.96,3.81,5.64,0,10.22-4.59,10.22-10.22,0-.61-.05-1.22-.16-1.81l1.63-1.67c1.65.63,3.41.96,5.21.96,8.17,0,14.82-6.65,14.82-14.82s-6.65-14.82-14.82-14.82h.01Z" style="fill:#fff;"/><path d="M178.65,85.43c-.62,0-1.2.12-1.76.3l-3.32-7.71c1.52-1.29,2.51-3.19,2.51-5.35,0-3.89-3.15-7.04-7.04-7.04-1.53,0-2.94.5-4.1,1.34l-6.26-3.39c.72-1.21,1.16-2.6,1.16-4.11,0-4.45-3.61-8.06-8.06-8.06-3.34,0-6.2,2.03-7.42,4.93l-8.34-3.81c.04-.33.1-.65.1-.99,0-4.8-3.89-8.7-8.7-8.7s-8.7,3.89-8.7,8.7,3.89,8.7,8.7,8.7c.7,0,1.37-.1,2.02-.26l3.76,9.39c-.2.15-.4.3-.58.48l-22.32-13.71c.34-1.01.57-2.06.57-3.18,0-5.53-4.48-10.01-10.01-10.01s-9.83,4.33-9.99,9.72l-9.7,2.09c-1.12-1.79-3.09-3-5.37-3-3.5,0-6.34,2.84-6.34,6.34s2.84,6.34,6.34,6.34,6.34-2.84,6.34-6.34c0-.36-.05-.71-.11-1.06l9.05-1.95c.98,4.51,4.98,7.88,9.78,7.88,3.54,0,6.64-1.85,8.42-4.63l22.1,13.58c-.15.48-.25.97-.25,1.5,0,2.76,2.24,5,5,5s5-2.24,5-5-2.24-5-5-5c-.23,0-.45.04-.68.07l-3.77-9.4c1.67-.94,3.01-2.39,3.76-4.17l8.36,3.82c-.02.25-.07.48-.07.73,0,4.45,3.61,8.06,8.06,8.06,2.05,0,3.91-.79,5.33-2.06l6.07,3.29c-.75,1.12-1.19,2.46-1.19,3.91,0,3.89,3.15,7.04,7.04,7.04.86,0,1.67-.18,2.43-.46l3.31,7.69c-1.15,1.05-1.89,2.55-1.89,4.23,0,3.18,2.58,5.75,5.75,5.75s5.75-2.58,5.75-5.75-2.58-5.75-5.75-5.75h.01Z" style="fill:url(#linear-gradient-4);"/><path d="M127.43,42.86c4.8,0,8.7,3.89,8.7,8.7,0,.34-.06.66-.1.99l8.34,3.81c1.22-2.89,4.09-4.93,7.42-4.93,4.45,0,8.06,3.61,8.06,8.06,0,1.51-.44,2.9-1.16,4.11l6.26,3.39c1.16-.83,2.56-1.34,4.1-1.34,3.89,0,7.04,3.15,7.04,7.04,0,2.15-.99,4.06-2.51,5.35l3.32,7.71c.56-.18,1.14-.3,1.76-.3,3.18,0,5.75,2.58,5.75,5.75s-2.58,5.75-5.75,5.75-5.75-2.58-5.75-5.75c0-1.68.74-3.18,1.89-4.23l-3.31-7.69c-.76.28-1.57.46-2.43.46-3.89,0-7.04-3.15-7.04-7.04,0-1.45.44-2.79,1.19-3.91l-6.07-3.29c-1.42,1.26-3.28,2.06-5.33,2.06-4.45,0-8.06-3.61-8.06-8.06,0-.25.05-.49.07-.73l-8.36-3.82c-.75,1.78-2.09,3.22-3.76,4.17l3.77,9.4c.22-.03.44-.07.68-.07,2.76,0,5,2.24,5,5s-2.24,5-5,5-5-2.24-5-5c0-.53.1-1.02.25-1.5l-22.1-13.58c-1.78,2.78-4.88,4.63-8.42,4.63-4.8,0-8.8-3.38-9.78-7.88l-9.05,1.95c.06.34.11.69.11,1.05,0,3.5-2.84,6.34-6.34,6.34s-6.34-2.84-6.34-6.34,2.84-6.34,6.34-6.34c2.27,0,4.25,1.2,5.37,3l9.7-2.09c.16-5.39,4.55-9.72,9.99-9.72s10.01,4.48,10.01,10.01c0,1.12-.23,2.18-.57,3.18l22.32,13.71c.18-.18.38-.33.58-.48l-3.76-9.39c-.65.16-1.32.26-2.02.26-4.8,0-8.7-3.89-8.7-8.7s3.89-8.7,8.7-8.7M127.44,38.12c-6.02,0-11.13,3.98-12.83,9.46-2.16-5.48-7.5-9.36-13.73-9.36-6.69,0-12.3,4.38-14.11,10.5l-3.9.84c-1.95-1.62-4.42-2.53-7.04-2.53-6.11,0-11.07,4.97-11.07,11.07s4.97,11.07,11.07,11.07c5.13,0,9.45-3.5,10.71-8.25l1.72-.37c2.62,4.33,7.38,7.16,12.63,7.16,3.43,0,6.68-1.18,9.27-3.29l16.31,10.03c.51,4.89,4.66,8.71,9.68,8.71,5.37,0,9.74-4.37,9.74-9.74,0-.99-.15-1.94-.42-2.84,1.87,1.07,4.04,1.69,6.35,1.69,1.93,0,3.82-.45,5.55-1.29l.05.03c-.08.55-.12,1.11-.12,1.67,0,6.33,5.02,11.51,11.29,11.77l.81,1.89c-.78,1.49-1.2,3.15-1.2,4.85,0,5.78,4.71,10.49,10.49,10.49s10.49-4.71,10.49-10.49c0-5.36-4.04-9.79-9.23-10.41l-.84-1.95c1.13-1.83,1.75-3.95,1.75-6.14,0-6.49-5.28-11.78-11.78-11.78-1.39,0-2.75.24-4.04.72l-.56-.3c.09-.61.14-1.22.14-1.84,0-7.05-5.74-12.79-12.79-12.79-3.46,0-6.68,1.38-9.03,3.72l-2.06-.94c-1-6.42-6.57-11.35-13.27-11.35h-.03ZM138.79,64.06l-1.18-2.93,1.62.74c.17.92.45,1.8.81,2.64-.4-.18-.82-.33-1.25-.45h0Z" style="fill:#fff;"/><path d="M102.31,105.35l-21.19-4.45c-.06-3.17-2.64-5.72-5.82-5.72s-5.83,2.61-5.83,5.83,2.61,5.83,5.83,5.83c2.42,0,4.5-1.48,5.38-3.58l21.3,4.47c.17,2.96,2.38,5.5,5.43,5.97,3.51.55,6.8-1.86,7.34-5.37.54-3.47-1.81-6.71-5.25-7.31l-.44-4.55c2.24-.73,3.87-2.81,3.87-5.3,0-3.09-2.51-5.6-5.6-5.6-2.32,0-4.31,1.41-5.16,3.42l-6.92-1.28c-.15-2.95-1.77-5.5-4.17-6.93l2.38-5.06c.41.08.84.13,1.27.13,2.54,0,4.71-1.48,5.76-3.62l11.43,4.34c0,.11-.03.22-.03.33,0,3.09,2.51,5.6,5.6,5.6s5.6-2.51,5.6-5.6-2.51-5.6-5.6-5.6c-2.12,0-3.95,1.2-4.9,2.94l-11.47-4.35c.01-.16.05-.32.05-.48,0-3.55-2.88-6.44-6.44-6.44s-6.44,2.88-6.44,6.44c0,2.26,1.17,4.24,2.93,5.39l-2.37,5.04c-.7-.19-1.43-.32-2.19-.32-4.76,0-8.63,3.86-8.63,8.63s3.86,8.63,8.63,8.63c4.08,0,7.48-2.84,8.38-6.65l6.7,1.24c.1,2.77,2.2,5.01,4.9,5.34l.42,4.37c-2.21.46-4.05,2.07-4.78,4.26h.03Z" style="fill:url(#linear-gradient-5);"/><path d="M94.74,62.98c3.55,0,6.44,2.88,6.44,6.44,0,.16-.04.32-.05.48l11.47,4.35c.95-1.74,2.77-2.94,4.9-2.94,3.09,0,5.6,2.51,5.6,5.6s-2.51,5.6-5.6,5.6-5.6-2.51-5.6-5.6c0-.11.03-.22.03-.33l-11.43-4.34c-1.05,2.13-3.22,3.62-5.76,3.62-.44,0-.86-.05-1.27-.13l-2.38,5.06c2.39,1.44,4.01,3.98,4.17,6.93l6.92,1.28c.85-2.01,2.84-3.42,5.16-3.42,3.09,0,5.6,2.51,5.6,5.6,0,2.49-1.63,4.57-3.87,5.3l.44,4.55c3.44.6,5.79,3.84,5.25,7.31-.49,3.18-3.23,5.45-6.35,5.45-.33,0-.66-.03-1-.08-3.05-.47-5.25-3.01-5.43-5.97l-21.3-4.47c-.88,2.1-2.96,3.58-5.38,3.58-3.22,0-5.83-2.61-5.83-5.83s2.61-5.83,5.83-5.83,5.76,2.55,5.82,5.72l21.19,4.45c.73-2.2,2.57-3.8,4.78-4.26l-.42-4.37c-2.71-.33-4.81-2.57-4.9-5.34l-6.7-1.24c-.9,3.81-4.3,6.65-8.38,6.65-4.76,0-8.63-3.86-8.63-8.63s3.86-8.63,8.63-8.63c.76,0,1.49.13,2.19.32l2.37-5.04c-1.76-1.15-2.93-3.13-2.93-5.39,0-3.55,2.88-6.44,6.44-6.44M94.76,58.25c-6.16,0-11.17,5.01-11.17,11.17,0,1.96.51,3.84,1.44,5.48-6.58.83-11.69,6.46-11.69,13.26,0,.83.08,1.65.22,2.44-4.99.84-8.81,5.19-8.81,10.42,0,5.83,4.74,10.57,10.57,10.57,2.84,0,5.49-1.13,7.42-3.04l15.43,3.24c1.5,3.44,4.68,6.02,8.53,6.62.57.09,1.15.13,1.72.13,5.54,0,10.18-3.98,11.03-9.45.66-4.28-1.25-8.42-4.59-10.81,1.78-1.87,2.83-4.38,2.83-7.09,0-1.4-.28-2.74-.79-3.96.2.01.4.02.61.02,5.7,0,10.34-4.64,10.34-10.34s-4.64-10.34-10.34-10.34c-2.29,0-4.46.76-6.23,2.11l-5.74-2.18c-1.29-4.75-5.64-8.26-10.79-8.26h0ZM97.44,80.27c1.71-.42,3.28-1.24,4.6-2.38l5.61,2.13c.09.29.2.57.31.85-.2-.01-.4-.02-.61-.02-2.76,0-5.34,1.09-7.24,2.95l-.89-.16c-.43-1.2-1.04-2.34-1.79-3.37h.01ZM94.65,98.9c1.26-.94,2.35-2.1,3.22-3.43l.09.02c.66,1.45,1.64,2.71,2.87,3.71-.28.26-.56.54-.81.83l-5.37-1.13h0Z" style="fill:#fff;"/><path d="M85.83,140.09c0-2.25-1.69-4.08-3.87-4.35l-5.18-10.2c1.11-1.38,1.8-3.11,1.8-5.01,0-4.45-3.61-8.06-8.06-8.06-1.31,0-2.53.34-3.63.9l-6.63-4.76c.25-.69.4-1.43.4-2.2,0-2.45-1.35-4.56-3.32-5.7l1.64-9.36c.35.03.68.1,1.03.1,6.5,0,11.78-5.27,11.78-11.78s-5.27-11.78-11.78-11.78-11.78,5.27-11.78,11.78c0,5.31,3.54,9.75,8.37,11.22l-1.57,9c-.32-.05-.64-.1-.98-.1-3.65,0-6.61,2.96-6.61,6.61s2.96,6.61,6.61,6.61c2,0,3.77-.91,4.99-2.31l5.77,4.14c-1.45,1.46-2.35,3.47-2.35,5.69,0,4.45,3.61,8.06,8.06,8.06,1.64,0,3.16-.5,4.43-1.33l4.53,8.91c-1.44.72-2.43,2.2-2.43,3.92,0,2.43,1.97,4.4,4.4,4.4s4.4-1.97,4.4-4.4h-.02Z" style="fill:url(#linear-gradient-6);"/><path d="M60,67.9c6.5,0,11.78,5.27,11.78,11.78s-5.27,11.78-11.78,11.78c-.35,0-.69-.07-1.03-.1l-1.64,9.36c1.98,1.14,3.32,3.26,3.32,5.7,0,.78-.16,1.51-.4,2.2l6.63,4.76c1.09-.56,2.32-.9,3.63-.9,4.45,0,8.06,3.61,8.06,8.06,0,1.91-.69,3.63-1.8,5.01l5.18,10.2c2.18.26,3.87,2.1,3.87,4.35,0,2.43-1.97,4.4-4.4,4.4s-4.4-1.97-4.4-4.4c0-1.72,1-3.19,2.43-3.92l-4.53-8.91c-1.27.84-2.79,1.33-4.43,1.33-4.45,0-8.06-3.61-8.06-8.06,0-2.22.9-4.23,2.35-5.69l-5.77-4.14c-1.21,1.41-2.99,2.31-4.99,2.31-3.65,0-6.61-2.96-6.61-6.61s2.96-6.61,6.61-6.61c.34,0,.66.05.98.1l1.57-9c-4.83-1.47-8.37-5.9-8.37-11.22,0-6.5,5.27-11.78,11.78-11.78M59.98,63.16c-9.1,0-16.51,7.41-16.51,16.51,0,5.83,3.02,11.04,7.81,13.99l-.32,1.81c-4.78,1.34-8.29,5.73-8.29,10.93,0,6.26,5.09,11.35,11.35,11.35,1.44,0,2.86-.28,4.18-.81-.33,1.15-.51,2.35-.51,3.58,0,7.06,5.74,12.8,12.8,12.8.71,0,1.42-.06,2.11-.18l1.06,2.09c-.89,1.42-1.39,3.09-1.39,4.84,0,5.04,4.1,9.14,9.14,9.14s9.14-4.1,9.14-9.14c0-3.62-2.14-6.8-5.29-8.27l-3.09-6.09c.74-1.63,1.12-3.39,1.12-5.2,0-7.06-5.74-12.8-12.8-12.8-.97,0-1.94.11-2.88.34l-2.24-1.6v-.06c0-2.82-1.07-5.51-2.93-7.57l.51-2.92c7.69-1.4,13.54-8.15,13.54-16.24,0-9.1-7.41-16.51-16.51-16.51h0Z" style="fill:#fff;"/><path d="M159.3,95.19c-.74,0-1.44.13-2.13.31l-2.59-7.41c1.93-1.12,3.24-3.18,3.24-5.58,0-3.57-2.9-6.47-6.47-6.47s-6.47,2.9-6.47,6.47,2.9,6.47,6.47,6.47c.33,0,.64-.05.95-.1l2.64,7.55c-1.64,1-2.89,2.52-3.54,4.36l-9.73-3.88c.05-.4.12-.8.12-1.22,0-5.27-4.27-9.55-9.55-9.55s-9.55,4.27-9.55,9.55,4.27,9.55,9.55,9.55c1.06,0,2.06-.21,3.01-.53.82,1.96,1.65,3.96,2.4,5.79-1.83,1.15-3.06,3.18-3.06,5.51,0,3.6,2.92,6.52,6.52,6.52s6.52-2.92,6.52-6.52-2.92-6.52-6.52-6.52c-.42,0-.83.05-1.22.12-.77-1.88-1.62-3.93-2.45-5.92,1.62-1.06,2.9-2.59,3.63-4.4l9.84,3.92c0,.14-.04.26-.04.4,0,4.65,3.77,8.41,8.41,8.41s8.41-3.77,8.41-8.41-3.77-8.41-8.41-8.41h.02Z" style="fill:url(#linear-gradient-7);"/><path d="M119.7,112.83c-5.57,0-10.08,4.51-10.08,10.08,0,2.39.87,4.57,2.26,6.29l-6.22,6.38c-.83-.51-1.81-.82-2.86-.82-.5,0-.97.09-1.42.21l-2.75-5.21c2.48-1.38,4.18-3.99,4.18-7.02,0-4.45-3.61-8.06-8.06-8.06s-8.06,3.61-8.06,8.06c0,2.85,1.49,5.34,3.71,6.77l-3.3,20.25c-2.87.18-5.15,2.54-5.15,5.45s2.46,5.49,5.49,5.49,5.49-2.46,5.49-5.49c0-2.3-1.42-4.27-3.44-5.08l3.2-19.63c.66.18,1.35.3,2.06.3.55,0,1.1-.06,1.62-.16l2.89,5.46c-1.17,1.01-1.93,2.48-1.93,4.15,0,3.03,2.46,5.49,5.49,5.49s5.49-2.46,5.49-5.49c0-1.1-.33-2.13-.89-2.99l6.21-6.37c1.7,1.3,3.79,2.1,6.1,2.1,5.57,0,10.08-4.51,10.08-10.08s-4.51-10.08-10.08-10.08h-.03Z" style="fill:url(#linear-gradient-8);"/><path d="M178.65,85.43c-.62,0-1.2.12-1.76.3l-3.32-7.71c1.52-1.29,2.51-3.19,2.51-5.35,0-3.89-3.15-7.04-7.04-7.04-1.53,0-2.94.5-4.1,1.34l-6.26-3.39c.72-1.21,1.16-2.6,1.16-4.11,0-4.45-3.61-8.06-8.06-8.06-3.34,0-6.2,2.03-7.42,4.93l-8.34-3.81c.04-.33.1-.65.1-.99,0-4.8-3.89-8.7-8.7-8.7s-8.7,3.89-8.7,8.7,3.89,8.7,8.7,8.7c.7,0,1.37-.1,2.02-.26l3.76,9.39c-.2.15-.4.3-.58.48l-22.32-13.71c.34-1.01.57-2.06.57-3.18,0-5.53-4.48-10.01-10.01-10.01s-9.83,4.33-9.99,9.72l-9.7,2.09c-1.12-1.79-3.09-3-5.37-3-3.5,0-6.34,2.84-6.34,6.34s2.84,6.34,6.34,6.34,6.34-2.84,6.34-6.34c0-.36-.05-.71-.11-1.06l9.05-1.95c.98,4.51,4.98,7.88,9.78,7.88,3.54,0,6.64-1.85,8.42-4.63l22.1,13.58c-.15.48-.25.97-.25,1.5,0,2.76,2.24,5,5,5s5-2.24,5-5-2.24-5-5-5c-.23,0-.45.04-.68.07l-3.77-9.4c1.67-.94,3.01-2.39,3.76-4.17l8.36,3.82c-.02.25-.07.48-.07.73,0,4.45,3.61,8.06,8.06,8.06,2.05,0,3.91-.79,5.33-2.06l6.07,3.29c-.75,1.12-1.19,2.46-1.19,3.91,0,3.89,3.15,7.04,7.04,7.04.86,0,1.67-.18,2.43-.46l3.31,7.69c-1.15,1.05-1.89,2.55-1.89,4.23,0,3.18,2.58,5.75,5.75,5.75s5.75-2.58,5.75-5.75-2.58-5.75-5.75-5.75h.01Z" style="fill:url(#linear-gradient-9);"/><path d="M102.31,105.35l-21.19-4.45c-.06-3.17-2.64-5.72-5.82-5.72s-5.83,2.61-5.83,5.83,2.61,5.83,5.83,5.83c2.42,0,4.5-1.48,5.38-3.58l21.3,4.47c.17,2.96,2.38,5.5,5.43,5.97,3.51.55,6.8-1.86,7.34-5.37.54-3.47-1.81-6.71-5.25-7.31l-.44-4.55c2.24-.73,3.87-2.81,3.87-5.3,0-3.09-2.51-5.6-5.6-5.6-2.32,0-4.31,1.41-5.16,3.42l-6.92-1.28c-.15-2.95-1.77-5.5-4.17-6.93l2.38-5.06c.41.08.84.13,1.27.13,2.54,0,4.71-1.48,5.76-3.62l11.43,4.34c0,.11-.03.22-.03.33,0,3.09,2.51,5.6,5.6,5.6s5.6-2.51,5.6-5.6-2.51-5.6-5.6-5.6c-2.12,0-3.95,1.2-4.9,2.94l-11.47-4.35c.01-.16.05-.32.05-.48,0-3.55-2.88-6.44-6.44-6.44s-6.44,2.88-6.44,6.44c0,2.26,1.17,4.24,2.93,5.39l-2.37,5.04c-.7-.19-1.43-.32-2.19-.32-4.76,0-8.63,3.86-8.63,8.63s3.86,8.63,8.63,8.63c4.08,0,7.48-2.84,8.38-6.65l6.7,1.24c.1,2.77,2.2,5.01,4.9,5.34l.42,4.37c-2.21.46-4.05,2.07-4.78,4.26h.03Z" style="fill:url(#linear-gradient-10);"/><path d="M85.83,140.09c0-2.25-1.69-4.08-3.87-4.35l-5.18-10.2c1.11-1.38,1.8-3.11,1.8-5.01,0-4.45-3.61-8.06-8.06-8.06-1.31,0-2.53.34-3.63.9l-6.63-4.76c.25-.69.4-1.43.4-2.2,0-2.45-1.35-4.56-3.32-5.7l1.64-9.36c.35.03.68.1,1.03.1,6.5,0,11.78-5.27,11.78-11.78s-5.27-11.78-11.78-11.78-11.78,5.27-11.78,11.78c0,5.31,3.54,9.75,8.37,11.22l-1.57,9c-.32-.05-.64-.1-.98-.1-3.65,0-6.61,2.96-6.61,6.61s2.96,6.61,6.61,6.61c2,0,3.77-.91,4.99-2.31l5.77,4.14c-1.45,1.46-2.35,3.47-2.35,5.69,0,4.45,3.61,8.06,8.06,8.06,1.64,0,3.16-.5,4.43-1.33l4.53,8.91c-1.44.72-2.43,2.2-2.43,3.92,0,2.43,1.97,4.4,4.4,4.4s4.4-1.97,4.4-4.4h-.02Z" style="fill:url(#linear-gradient-11);"/><path d="M203.02,100.52l.89-4.97h24.32c1.79,0,2.53-.31,2.76-1.63l.7-3.93c0-.12.04-.27.04-.39,0-.93-.7-1.28-2.25-1.28h-16.36c-5.59,0-7.81-2.02-7.81-5.21,0-.43.08-.93.16-1.44l.31-1.86c.66-3.96,3.65-6.65,10.02-6.65h23.66l-.85,4.93h-23.66c-1.67,0-2.6.43-2.84,1.67l-.35,1.94c-.04.12-.04.27-.04.39,0,.89.7,1.28,2.29,1.28h16.36c5.6,0,7.81,2.06,7.81,5.21,0,.47-.04.93-.12,1.44l-.7,3.81c-.74,3.96-3.61,6.68-10.02,6.68h-24.33.01Z" style="fill:#fff;"/><path d="M275.09,73.16h6.33l-3.65,20.75c-.7,3.93-3.58,6.61-9.95,6.61h-17.45c-5.56,0-7.77-2.06-7.77-5.17,0-.47.08-.93.16-1.44l3.65-20.75h6.34l-3.65,20.79c-.04.12-.04.23-.04.31,0,.89.78,1.28,2.21,1.28h17.45c1.59,0,2.53-.47,2.72-1.59l3.65-20.79Z" style="fill:#fff;"/><path d="M290.9,90.61l-1.75,9.91h-6.33l4.82-27.36h22.97c5.56,0,7.73,2.06,7.73,5.17,0,.47-.04.93-.12,1.44l-.74,4.24c-.7,3.92-3.58,6.61-9.95,6.61h-16.63ZM311.88,79.88c0-.12.04-.23.04-.35,0-.85-.51-1.44-1.59-1.44h-17.21l-1.32,7.54h17.25c1.24,0,1.91-.58,2.1-1.59l.74-4.16h-.01Z" style="fill:#fff;"/><path d="M319.49,100.52l4.82-27.36h28.83l-.85,4.93h-22.5l-.97,5.48h21.3l-.89,4.97h-21.29l-1.2,6.99h22.5l-.89,4.97h-28.83l-.03.02Z" style="fill:#fff;"/><path d="M379.64,100.52l-3.96-12.16h-13.21l-2.14,12.16h-6.33l4.82-27.36h23.78c5.56,0,7.77,2.06,7.77,5.21,0,.43-.04.89-.12,1.4l-.35,1.98c-.58,3.26-2.57,5.87-7.58,6.53l3.96,12.24s-6.64,0-6.64,0ZM383.91,79.69c0-1.09-.5-1.59-2.18-1.59h-17.45l-.93,5.32h17.45c1.67,0,2.49-.31,2.72-1.63l.39-2.1h0Z" style="fill:#fff;"/><path d="M224.78,134.78l-24.91-20.32-3.58,20.32h-5.52l4.82-27.36h5.48l22.69,19.04,3.38-19.04h5.56l-4.82,27.36h-3.11.01Z" style="fill:#fff;"/><path d="M234.22,134.78l4.82-27.36h28.83l-.86,4.93h-22.5l-.97,5.48h21.3l-.89,4.97h-21.29l-1.2,6.99h22.5l-.89,4.97h-28.83l-.02.02Z" style="fill:#fff;"/><path d="M302.1,107.42h6.33l-3.65,20.75c-.7,3.93-3.58,6.61-9.95,6.61h-17.45c-5.56,0-7.77-2.06-7.77-5.17,0-.47.08-.93.16-1.44l3.65-20.75h6.34l-3.65,20.79c-.04.12-.04.23-.04.31,0,.89.78,1.28,2.21,1.28h17.45c1.59,0,2.53-.47,2.72-1.59l3.65-20.79h0Z" style="fill:#fff;"/><path d="M335.47,134.78l-3.96-12.16h-13.21l-2.14,12.16h-6.33l4.82-27.36h23.78c5.56,0,7.77,2.06,7.77,5.21,0,.43-.04.89-.12,1.4l-.35,1.98c-.58,3.26-2.57,5.87-7.58,6.53l3.96,12.24h-6.64ZM339.74,113.95c0-1.09-.5-1.59-2.18-1.59h-17.45l-.93,5.32h17.45c1.67,0,2.49-.31,2.72-1.63l.39-2.1h0Z" style="fill:#fff;"/><path d="M356.44,134.78c-5.56,0-7.77-2.06-7.77-5.17,0-.47.08-.93.16-1.44l2.49-14.14c.7-3.93,3.58-6.61,9.95-6.61h18.53c5.56,0,7.73,2.06,7.73,5.17,0,.47-.04.93-.12,1.44l-2.49,14.14c-.7,3.93-3.58,6.61-9.95,6.61h-18.54,0ZM381.12,113.95c0-1.09-.5-1.59-2.18-1.59h-18.53c-1.59,0-2.53.51-2.72,1.59l-2.53,14.26c-.04.12-.04.23-.04.31,0,.89.78,1.28,2.21,1.28h18.54c1.59,0,2.52-.47,2.72-1.59,0,0,2.53-14.26,2.53-14.26Z" style="fill:#fff;"/></svg>