<?xml version="1.0" encoding="UTF-8"?><svg id="ART" xmlns="http://www.w3.org/2000/svg" xmlns:xlink="http://www.w3.org/1999/xlink" viewBox="0 0 540 125"><defs><style>.cls-1{fill:url(#linear-gradient);}.cls-2{fill:#fff;}.cls-3{fill:url(#linear-gradient-8);}.cls-4{fill:url(#linear-gradient-9);}.cls-5{fill:url(#linear-gradient-3);}.cls-6{fill:url(#linear-gradient-4);}.cls-7{fill:url(#linear-gradient-2);}.cls-8{fill:url(#linear-gradient-6);}.cls-9{fill:url(#linear-gradient-7);}.cls-10{fill:url(#linear-gradient-5);}.cls-11{fill:url(#linear-gradient-10);}.cls-12{fill:url(#linear-gradient-11);}</style><linearGradient id="linear-gradient" x1="389.16" y1="66.79" x2="82.88" y2="69.34" gradientUnits="userSpaceOnUse"><stop offset="0" stop-color="#22b9da"/><stop offset="1" stop-color="#096bb1"/></linearGradient><linearGradient id="linear-gradient-2" x1="40.58" y1="91.44" x2="121.54" y2="51.46" xlink:href="#linear-gradient"/><linearGradient id="linear-gradient-3" x1="43.82" y1="98.01" x2="124.78" y2="58.04" xlink:href="#linear-gradient"/><linearGradient id="linear-gradient-4" x1="30.47" y1="70.96" x2="111.43" y2="30.99" xlink:href="#linear-gradient"/><linearGradient id="linear-gradient-5" x1="30.88" y1="71.8" x2="111.84" y2="31.83" xlink:href="#linear-gradient"/><linearGradient id="linear-gradient-6" x1="31.51" y1="73.08" x2="112.47" y2="33.1" xlink:href="#linear-gradient"/><linearGradient id="linear-gradient-7" x1="125.58" y1="54.05" x2="46.28" y2="77.15" xlink:href="#linear-gradient"/><linearGradient id="linear-gradient-8" x1="130.02" y1="69.29" x2="50.72" y2="92.38" xlink:href="#linear-gradient"/><linearGradient id="linear-gradient-9" x1="119.35" y1="32.66" x2="40.05" y2="55.75" xlink:href="#linear-gradient"/><linearGradient id="linear-gradient-10" x1="120.82" y1="37.72" x2="41.53" y2="60.82" xlink:href="#linear-gradient"/><linearGradient id="linear-gradient-11" x1="122.55" y1="43.64" x2="43.25" y2="66.73" xlink:href="#linear-gradient"/></defs><polygon class="cls-1" points="493.92 88.91 54.69 88.91 66.68 68.48 59.36 46.55 501.28 46.55 513.88 67.86 493.92 88.91"/><path class="cls-2" d="m138.71,80.34l.81-4.48h21.91c1.61,0,2.28-.28,2.49-1.47l.63-3.53c0-.11.04-.25.04-.35,0-.84-.63-1.15-2.03-1.15h-14.74c-5.04,0-7.04-1.82-7.04-4.69,0-.39.07-.84.14-1.3l.28-1.68c.59-3.57,3.29-5.98,9.03-5.98h21.32l-.77,4.45h-21.32c-1.5,0-2.34.39-2.56,1.5l-.31,1.75c-.04.1-.04.24-.04.35,0,.81.63,1.15,2.07,1.15h14.74c5.04,0,7.04,1.85,7.04,4.69,0,.42-.03.84-.1,1.3l-.63,3.43c-.67,3.57-3.26,6.02-9.03,6.02h-21.91Z"/><path class="cls-2" d="m203.64,55.7h5.71l-3.29,18.69c-.63,3.54-3.22,5.95-8.96,5.95h-15.72c-5.01,0-7-1.85-7-4.66,0-.42.07-.84.14-1.3l3.29-18.69h5.71l-3.29,18.73c-.04.11-.04.21-.04.28,0,.8.7,1.15,2,1.15h15.72c1.44,0,2.28-.42,2.45-1.44l3.29-18.73Z"/><path class="cls-2" d="m217.89,71.41l-1.57,8.93h-5.71l4.34-24.64h20.69c5.01,0,6.97,1.85,6.97,4.65,0,.42-.03.84-.1,1.3l-.67,3.82c-.63,3.54-3.22,5.95-8.96,5.95h-14.98Zm18.9-9.66c0-.11.04-.21.04-.31,0-.77-.46-1.3-1.44-1.3h-15.51l-1.19,6.79h15.54c1.12,0,1.71-.52,1.89-1.44l.67-3.74Z"/><path class="cls-2" d="m243.65,80.34l4.34-24.64h25.97l-.77,4.45h-20.27l-.87,4.94h19.18l-.81,4.48h-19.18l-1.08,6.3h20.27l-.81,4.48h-25.97Z"/><path class="cls-2" d="m297.83,80.34l-3.57-10.96h-11.9l-1.93,10.96h-5.71l4.34-24.64h21.42c5.01,0,7,1.85,7,4.69,0,.39-.04.81-.11,1.26l-.31,1.79c-.52,2.94-2.31,5.28-6.83,5.88l3.57,11.03h-5.99Zm3.85-18.76c0-.98-.45-1.43-1.96-1.43h-15.72l-.84,4.8h15.72c1.5,0,2.24-.28,2.45-1.47l.35-1.89Z"/><path class="cls-2" d="m339.62,80.34l-22.44-18.31-3.22,18.31h-4.97l4.34-24.64h4.94l20.44,17.15,3.05-17.15h5l-4.34,24.64h-2.8Z"/><path class="cls-2" d="m348.12,80.34l4.34-24.64h25.97l-.77,4.45h-20.27l-.87,4.94h19.18l-.81,4.48h-19.18l-1.08,6.3h20.27l-.81,4.48h-25.97Z"/><path class="cls-2" d="m409.27,55.7h5.71l-3.29,18.69c-.63,3.54-3.22,5.95-8.96,5.95h-15.72c-5.01,0-7-1.85-7-4.66,0-.42.07-.84.14-1.3l3.29-18.69h5.71l-3.29,18.73c-.04.11-.04.21-.04.28,0,.8.7,1.15,2,1.15h15.72c1.44,0,2.28-.42,2.45-1.44l3.29-18.73Z"/><path class="cls-2" d="m439.34,80.34l-3.57-10.96h-11.9l-1.93,10.96h-5.71l4.34-24.64h21.42c5.01,0,7,1.85,7,4.69,0,.39-.04.81-.11,1.26l-.31,1.79c-.52,2.94-2.31,5.28-6.83,5.88l3.57,11.03h-5.99Zm3.85-18.76c0-.98-.45-1.43-1.96-1.43h-15.72l-.84,4.8h15.72c1.51,0,2.24-.28,2.45-1.47l.35-1.89Z"/><path class="cls-2" d="m458.24,80.34c-5.01,0-7-1.85-7-4.66,0-.42.07-.84.14-1.3l2.24-12.74c.63-3.53,3.22-5.95,8.96-5.95h16.7c5,0,6.97,1.85,6.97,4.65,0,.42-.04.84-.1,1.3l-2.24,12.74c-.63,3.54-3.22,5.95-8.96,5.95h-16.7Zm22.23-18.76c0-.98-.45-1.43-1.96-1.43h-16.7c-1.44,0-2.28.46-2.45,1.43l-2.28,12.85c-.03.11-.03.21-.03.28,0,.8.7,1.15,1.99,1.15h16.7c1.44,0,2.27-.42,2.45-1.44l2.28-12.85Z"/><path class="cls-2" d="m125.05,40.93l-38.15-13.17-44.76,13.17-4.38,16.61,10.32,15.2,7.2,11.88s5.53,8.7,6.17,8.49,21.64-13.47,21.64-13.47c0,0,19.13-14.97,21.21-15.38,2.08-.41,13.58-6.36,13.58-6.36l7.18-2.33v-14.62Z"/><path class="cls-7" d="m112.62,57.61c-.55,0-1.07.09-1.58.23l-1.92-5.49c1.43-.83,2.4-2.36,2.4-4.13,0-2.65-2.15-4.79-4.8-4.79s-4.79,2.15-4.79,4.79,2.15,4.79,4.79,4.79c.24,0,.47-.04.7-.07l1.96,5.6c-1.21.74-2.14,1.87-2.62,3.23l-7.21-2.87c.04-.3.09-.6.09-.91,0-3.91-3.17-7.07-7.07-7.07s-7.07,3.17-7.07,7.07,3.17,7.07,7.07,7.07c.79,0,1.53-.16,2.23-.39.61,1.45,1.22,2.93,1.78,4.29-1.36.86-2.26,2.36-2.26,4.08,0,2.67,2.16,4.83,4.83,4.83s4.83-2.16,4.83-4.83-2.16-4.83-4.83-4.83c-.31,0-.61.04-.91.09-.57-1.39-1.2-2.91-1.82-4.39,1.2-.78,2.15-1.92,2.69-3.26l7.3,2.9c0,.1-.03.2-.03.3,0,3.44,2.79,6.23,6.23,6.23s6.23-2.79,6.23-6.23-2.79-6.23-6.23-6.23Z"/><path class="cls-2" d="m106.73,43.42c2.65,0,4.8,2.15,4.8,4.79,0,1.77-.97,3.3-2.4,4.13l1.92,5.49c.51-.13,1.03-.23,1.58-.23,3.44,0,6.23,2.79,6.23,6.23s-2.79,6.23-6.23,6.23-6.23-2.79-6.23-6.23c0-.1.03-.2.03-.3l-7.3-2.9c-.55,1.35-1.49,2.48-2.69,3.26.62,1.48,1.25,3,1.82,4.39.29-.06.6-.09.91-.09,2.67,0,4.83,2.16,4.83,4.83s-2.16,4.83-4.83,4.83-4.83-2.16-4.83-4.83c0-1.72.91-3.22,2.26-4.08-.56-1.36-1.17-2.84-1.78-4.29-.71.24-1.45.39-2.23.39-3.91,0-7.07-3.17-7.07-7.07s3.17-7.07,7.07-7.07,7.07,3.17,7.07,7.07c0,.31-.05.61-.09.91l7.21,2.87c.48-1.36,1.41-2.49,2.62-3.23l-1.96-5.6c-.23.03-.46.07-.7.07-2.65,0-4.79-2.15-4.79-4.79s2.15-4.79,4.79-4.79m0-3.58c-4.62,0-8.37,3.76-8.37,8.37,0,.29.01.58.04.86-1.68-1.1-3.68-1.74-5.83-1.74-5.87,0-10.65,4.78-10.65,10.65s4.47,10.34,10.07,10.64c-.81,1.3-1.25,2.82-1.25,4.42,0,4.64,3.77,8.41,8.41,8.41s8.41-3.77,8.41-8.41c0-.27-.01-.55-.04-.81,1.49.91,3.23,1.43,5.1,1.43,5.41,0,9.81-4.4,9.81-9.81,0-5.11-3.92-9.32-8.91-9.77l-.24-.67c1.16-1.46,1.82-3.28,1.82-5.19,0-4.62-3.76-8.37-8.37-8.37h0Zm-3.62,16.62c-.04-.26-.08-.51-.14-.76.59.3,1.22.53,1.87.68l.32.9-2.05-.82h0Z"/><path class="cls-5" d="m83.27,70.69c-4.13,0-7.47,3.35-7.47,7.47,0,1.78.64,3.38,1.68,4.67l-4.61,4.73c-.62-.38-1.34-.61-2.12-.61-.37,0-.72.06-1.06.16l-2.04-3.86c1.84-1.02,3.1-2.96,3.1-5.21,0-3.3-2.68-5.98-5.98-5.98s-5.98,2.68-5.98,5.98c0,2.11,1.1,3.96,2.75,5.02l-2.44,15.01c-2.13.13-3.82,1.88-3.82,4.04s1.82,4.07,4.07,4.07,4.07-1.82,4.07-4.07c0-1.71-1.06-3.16-2.55-3.77l2.37-14.55c.49.13,1,.22,1.53.22.41,0,.81-.04,1.2-.12l2.14,4.05c-.87.75-1.43,1.84-1.43,3.07,0,2.25,1.82,4.07,4.07,4.07s4.07-1.82,4.07-4.07c0-.82-.25-1.58-.66-2.21l4.6-4.72c1.26.96,2.81,1.56,4.52,1.56,4.13,0,7.47-3.35,7.47-7.47s-3.35-7.47-7.47-7.47Z"/><path class="cls-2" d="m83.27,70.69c4.13,0,7.47,3.35,7.47,7.47s-3.35,7.47-7.47,7.47c-1.71,0-3.26-.59-4.52-1.56l-4.6,4.72c.42.64.66,1.4.66,2.21,0,2.25-1.82,4.07-4.07,4.07s-4.07-1.82-4.07-4.07c0-1.24.56-2.33,1.43-3.07l-2.14-4.05c-.39.08-.79.12-1.2.12-.53,0-1.04-.09-1.53-.22l-2.37,14.55c1.49.6,2.55,2.06,2.55,3.77,0,2.25-1.82,4.07-4.07,4.07s-4.07-1.82-4.07-4.07,1.69-3.91,3.82-4.04l2.44-15.01c-1.65-1.06-2.75-2.91-2.75-5.02,0-3.3,2.68-5.98,5.98-5.98s5.98,2.68,5.98,5.98c0,2.25-1.26,4.19-3.1,5.21l2.04,3.86c.34-.09.69-.16,1.06-.16.78,0,1.5.23,2.12.61l4.61-4.73c-1.03-1.28-1.68-2.89-1.68-4.67,0-4.13,3.35-7.47,7.47-7.47m0-3.58c-4.46,0-8.31,2.65-10.05,6.47-1.6-3.03-4.79-5.09-8.45-5.09-5.27,0-9.55,4.29-9.55,9.55,0,2.41.9,4.68,2.48,6.41l-1.77,10.84c-2.51,1.26-4.23,3.86-4.23,6.82,0,4.22,3.43,7.64,7.64,7.64s7.64-3.43,7.64-7.64c0-2.08-.83-4-2.23-5.4l.13-.79c1.4,1.67,3.51,2.74,5.86,2.74,4.22,0,7.64-3.43,7.64-7.64,0-.44-.04-.89-.12-1.32l1.15-1.18c1.22.46,2.52.7,3.84.7,6.09,0,11.05-4.96,11.05-11.05s-4.96-11.05-11.05-11.05h0Z"/><path class="cls-6" d="m126.96,50.38c-.46,0-.89.09-1.31.23l-2.46-5.71c1.13-.96,1.86-2.37,1.86-3.96,0-2.88-2.34-5.22-5.22-5.22-1.14,0-2.18.37-3.04.99l-4.64-2.51c.53-.89.86-1.93.86-3.04,0-3.3-2.67-5.97-5.97-5.97-2.48,0-4.6,1.51-5.5,3.65l-6.18-2.82c.03-.24.07-.48.07-.73,0-3.56-2.89-6.45-6.45-6.45s-6.45,2.89-6.45,6.45,2.89,6.45,6.45,6.45c.52,0,1.01-.08,1.5-.19l2.79,6.96c-.15.11-.3.22-.43.35l-16.54-10.16c.25-.75.42-1.53.42-2.36,0-4.1-3.32-7.42-7.42-7.42s-7.28,3.21-7.4,7.21l-7.19,1.55c-.83-1.33-2.29-2.22-3.98-2.22-2.59,0-4.7,2.1-4.7,4.7s2.1,4.7,4.7,4.7,4.7-2.1,4.7-4.7c0-.27-.04-.53-.08-.78l6.71-1.44c.72,3.34,3.69,5.84,7.25,5.84,2.63,0,4.92-1.37,6.24-3.43l16.38,10.07c-.11.35-.19.72-.19,1.11,0,2.05,1.66,3.71,3.71,3.71s3.71-1.66,3.71-3.71-1.66-3.71-3.71-3.71c-.17,0-.34.03-.5.05l-2.79-6.97c1.24-.7,2.23-1.77,2.79-3.09l6.2,2.83c-.02.18-.05.36-.05.54,0,3.3,2.67,5.97,5.97,5.97,1.52,0,2.89-.59,3.95-1.52l4.5,2.44c-.56.83-.88,1.83-.88,2.9,0,2.88,2.34,5.22,5.22,5.22.64,0,1.24-.13,1.8-.34l2.46,5.7c-.85.78-1.4,1.89-1.4,3.14,0,2.35,1.91,4.26,4.26,4.26s4.26-1.91,4.26-4.26-1.91-4.26-4.26-4.26Z"/><path class="cls-2" d="m89,18.83c3.56,0,6.45,2.89,6.45,6.45,0,.25-.05.49-.07.73l6.18,2.82c.91-2.15,3.03-3.65,5.5-3.65,3.3,0,5.97,2.67,5.97,5.97,0,1.12-.33,2.15-.86,3.04l4.64,2.51c.86-.62,1.9-.99,3.04-.99,2.88,0,5.22,2.34,5.22,5.22,0,1.6-.73,3.01-1.86,3.96l2.46,5.71c.41-.13.85-.23,1.31-.23,2.35,0,4.26,1.91,4.26,4.26s-1.91,4.26-4.26,4.26-4.26-1.91-4.26-4.26c0-1.25.54-2.36,1.4-3.14l-2.46-5.7c-.56.21-1.17.34-1.8.34-2.88,0-5.22-2.34-5.22-5.22,0-1.07.33-2.07.88-2.9l-4.5-2.44c-1.05.94-2.43,1.52-3.95,1.52-3.3,0-5.97-2.67-5.97-5.97,0-.19.04-.36.05-.54l-6.2-2.83c-.56,1.32-1.55,2.39-2.79,3.09l2.79,6.97c.17-.02.33-.05.5-.05,2.05,0,3.71,1.66,3.71,3.71s-1.66,3.71-3.71,3.71-3.71-1.66-3.71-3.71c0-.39.08-.76.19-1.11l-16.38-10.07c-1.32,2.06-3.61,3.43-6.24,3.43-3.56,0-6.52-2.5-7.25-5.84l-6.71,1.44c.04.26.08.51.08.78,0,2.59-2.1,4.7-4.7,4.7s-4.7-2.1-4.7-4.7,2.1-4.7,4.7-4.7c1.68,0,3.15.89,3.98,2.22l7.19-1.55c.12-4,3.38-7.21,7.4-7.21s7.42,3.32,7.42,7.42c0,.83-.17,1.61-.42,2.36l16.54,10.16c.13-.13.28-.24.43-.35l-2.79-6.96c-.48.11-.98.19-1.5.19-3.56,0-6.45-2.89-6.45-6.45s2.89-6.45,6.45-6.45m0-3.58c-4.43,0-8.2,2.89-9.52,6.88-1.65-3.99-5.59-6.81-10.17-6.81-4.98,0-9.15,3.25-10.51,7.79l-2.82.61c-1.45-1.2-3.29-1.87-5.23-1.87-4.56,0-8.27,3.71-8.27,8.27s3.71,8.27,8.27,8.27c3.82,0,7.04-2.6,7.99-6.12l1.19-.26c1.96,3.2,5.5,5.3,9.39,5.3,2.54,0,4.95-.87,6.87-2.42l12.02,7.39c.4,3.64,3.49,6.48,7.24,6.48,4.02,0,7.28-3.27,7.28-7.28,0-.68-.09-1.34-.27-1.97,1.36.75,2.93,1.18,4.6,1.18,1.41,0,2.8-.32,4.07-.93-.05.38-.08.77-.08,1.16,0,4.71,3.73,8.57,8.39,8.79l.57,1.33c-.57,1.1-.88,2.34-.88,3.59,0,4.32,3.52,7.84,7.84,7.84s7.84-3.52,7.84-7.84c0-3.99-3-7.3-6.86-7.78l-.59-1.38c.83-1.36,1.29-2.93,1.29-4.55,0-4.85-3.95-8.79-8.79-8.79-1.03,0-2.03.18-2.99.53l-.35-.19c.06-.44.1-.88.1-1.33,0-5.26-4.28-9.55-9.55-9.55-2.56,0-4.95,1.02-6.71,2.75l-1.45-.66c-.76-4.77-4.91-8.43-9.9-8.43h0Zm8.46,19.23l-.8-1.99,1.02.47c.12.62.3,1.22.53,1.79-.24-.1-.5-.19-.75-.26h0Z"/><path class="cls-10" d="m70.38,65.15l-15.7-3.3c-.05-2.35-1.96-4.24-4.31-4.24s-4.32,1.94-4.32,4.32,1.94,4.32,4.32,4.32c1.79,0,3.33-1.09,3.99-2.65l15.79,3.32c.13,2.19,1.76,4.07,4.02,4.43,2.6.4,5.04-1.38,5.44-3.98.4-2.57-1.34-4.97-3.89-5.42l-.33-3.38c1.66-.54,2.87-2.09,2.87-3.93,0-2.29-1.86-4.15-4.15-4.15-1.72,0-3.19,1.04-3.82,2.53l-5.13-.95c-.11-2.19-1.32-4.07-3.09-5.14l1.76-3.75c.3.06.62.1.94.1,1.88,0,3.49-1.1,4.27-2.68l8.47,3.21c0,.08-.02.16-.02.25,0,2.29,1.86,4.15,4.15,4.15s4.15-1.86,4.15-4.15-1.86-4.15-4.15-4.15c-1.57,0-2.93.89-3.63,2.18l-8.5-3.22c0-.12.04-.23.04-.36,0-2.63-2.14-4.77-4.77-4.77s-4.77,2.14-4.77,4.77c0,1.67.87,3.14,2.17,3.99l-1.75,3.74c-.52-.14-1.06-.23-1.62-.23-3.53,0-6.39,2.86-6.39,6.39s2.86,6.39,6.39,6.39c3.03,0,5.55-2.11,6.21-4.93l4.97.92c.07,2.05,1.63,3.71,3.63,3.96l.31,3.24c-1.64.34-3,1.53-3.54,3.16Z"/><path class="cls-2" d="m64.77,33.74c2.63,0,4.77,2.14,4.77,4.77,0,.12-.03.24-.04.36l8.5,3.22c.7-1.29,2.06-2.18,3.63-2.18,2.29,0,4.15,1.86,4.15,4.15s-1.86,4.15-4.15,4.15-4.15-1.86-4.15-4.15c0-.08.02-.16.02-.25l-8.47-3.21c-.78,1.58-2.39,2.68-4.27,2.68-.32,0-.64-.03-.94-.1l-1.76,3.75c1.77,1.06,2.97,2.95,3.09,5.14l5.13.95c.63-1.49,2.1-2.53,3.82-2.53,2.29,0,4.15,1.86,4.15,4.15,0,1.84-1.21,3.39-2.87,3.93l.33,3.38c2.55.45,4.29,2.85,3.89,5.42-.37,2.35-2.39,4.04-4.71,4.04-.24,0-.49-.02-.74-.06-2.26-.35-3.89-2.23-4.02-4.43l-15.79-3.32c-.65,1.56-2.19,2.65-3.99,2.65-2.39,0-4.32-1.94-4.32-4.32s1.94-4.32,4.32-4.32,4.27,1.89,4.31,4.24l15.7,3.3c.54-1.63,1.9-2.82,3.54-3.16l-.31-3.24c-2.01-.24-3.56-1.9-3.63-3.96l-4.97-.92c-.66,2.82-3.18,4.93-6.21,4.93-3.53,0-6.39-2.86-6.39-6.39s2.86-6.39,6.39-6.39c.56,0,1.1.1,1.62.23l1.75-3.74c-1.31-.85-2.17-2.32-2.17-3.99,0-2.63,2.14-4.77,4.77-4.77m0-3.58c-4.6,0-8.35,3.75-8.35,8.35,0,1.43.36,2.8,1.03,4.01-4.86.66-8.63,4.84-8.63,9.88,0,.6.05,1.18.15,1.75-3.7.66-6.52,3.89-6.52,7.78,0,4.36,3.54,7.9,7.9,7.9,2.11,0,4.08-.83,5.52-2.25l11.37,2.39c1.12,2.55,3.5,4.47,6.36,4.91.43.07.86.1,1.29.1,4.14,0,7.6-2.97,8.24-7.06.49-3.17-.91-6.24-3.37-8.03,1.3-1.39,2.06-3.25,2.06-5.24,0-1.01-.19-1.98-.55-2.86.12,0,.23,0,.35,0,4.26,0,7.73-3.47,7.73-7.73s-3.47-7.73-7.73-7.73c-1.7,0-3.31.56-4.63,1.55l-4.19-1.59c-.97-3.53-4.21-6.14-8.05-6.14h0Zm2.1,16.43c1.23-.32,2.36-.91,3.31-1.73l4.09,1.55c.06.17.12.34.18.51-.12,0-.23,0-.35,0-2.05,0-3.97.81-5.38,2.18l-.59-.11c-.31-.85-.74-1.66-1.27-2.4h0Zm-2.02,13.74c.88-.67,1.64-1.49,2.26-2.43.48,1.04,1.19,1.96,2.07,2.68-.18.17-.36.35-.52.54l-3.8-.8h0Z"/><path class="cls-8" d="m58.16,90.89c0-1.67-1.26-3.03-2.87-3.22l-3.84-7.56c.82-1.02,1.33-2.3,1.33-3.72,0-3.3-2.68-5.98-5.98-5.98-.97,0-1.88.25-2.69.67l-4.92-3.53c.18-.51.3-1.06.3-1.63,0-1.81-1-3.38-2.46-4.23l1.21-6.94c.26.02.5.08.77.08,4.82,0,8.73-3.91,8.73-8.73s-3.91-8.73-8.73-8.73-8.73,3.91-8.73,8.73c0,3.94,2.62,7.23,6.2,8.31l-1.17,6.67c-.24-.04-.48-.07-.73-.07-2.71,0-4.9,2.19-4.9,4.9s2.19,4.9,4.9,4.9c1.48,0,2.8-.67,3.7-1.72l4.28,3.07c-1.08,1.08-1.74,2.57-1.74,4.22,0,3.3,2.68,5.98,5.98,5.98,1.21,0,2.34-.37,3.28-.99l3.35,6.61c-1.07.54-1.8,1.63-1.8,2.9,0,1.8,1.46,3.26,3.26,3.26s3.26-1.46,3.26-3.26Z"/><path class="cls-2" d="m39.02,37.38c4.82,0,8.73,3.91,8.73,8.73s-3.91,8.73-8.73,8.73c-.26,0-.51-.05-.77-.08l-1.21,6.94c1.47.85,2.46,2.41,2.46,4.23,0,.58-.12,1.12-.3,1.63l4.92,3.53c.81-.41,1.72-.67,2.69-.67,3.3,0,5.98,2.68,5.98,5.98,0,1.41-.51,2.69-1.33,3.72l3.84,7.56c1.61.19,2.87,1.55,2.87,3.22,0,1.8-1.46,3.26-3.26,3.26s-3.26-1.46-3.26-3.26c0-1.27.74-2.37,1.8-2.9l-3.35-6.61c-.94.62-2.07.99-3.28.99-3.3,0-5.98-2.68-5.98-5.98,0-1.65.67-3.14,1.74-4.22l-4.28-3.07c-.9,1.04-2.21,1.72-3.7,1.72-2.71,0-4.9-2.19-4.9-4.9s2.19-4.9,4.9-4.9c.25,0,.49.04.73.07l1.17-6.67c-3.58-1.09-6.2-4.38-6.2-8.31,0-4.82,3.91-8.73,8.73-8.73m0-3.58c-6.78,0-12.3,5.52-12.3,12.3,0,4.33,2.23,8.2,5.78,10.4l-.22,1.26c-3.55,1.01-6.15,4.28-6.15,8.15,0,4.67,3.8,8.48,8.48,8.48,1.03,0,2.05-.19,2.99-.55-.22.82-.34,1.67-.34,2.54,0,5.27,4.29,9.55,9.55,9.55.51,0,1.02-.04,1.53-.12l.75,1.47c-.66,1.06-1.02,2.29-1.02,3.59,0,3.77,3.07,6.84,6.84,6.84s6.84-3.07,6.84-6.84c0-2.7-1.59-5.08-3.94-6.18l-2.27-4.46c.54-1.21.83-2.51.83-3.85,0-5.27-4.29-9.55-9.55-9.55-.72,0-1.43.08-2.12.25l-1.61-1.15s0,0,0-.01c0-2.1-.79-4.1-2.16-5.63l.37-2.09c5.71-1.07,10.04-6.08,10.04-12.1,0-6.79-5.52-12.3-12.3-12.3h0Z"/><path class="cls-9" d="m112.62,57.61c-.55,0-1.07.09-1.58.23l-1.92-5.49c1.43-.83,2.4-2.36,2.4-4.13,0-2.65-2.15-4.79-4.8-4.79s-4.79,2.15-4.79,4.79,2.15,4.79,4.79,4.79c.24,0,.47-.04.7-.07l1.96,5.6c-1.21.74-2.14,1.87-2.62,3.23l-7.21-2.87c.04-.3.09-.6.09-.91,0-3.91-3.17-7.07-7.07-7.07s-7.07,3.17-7.07,7.07,3.17,7.07,7.07,7.07c.79,0,1.53-.16,2.23-.39.61,1.45,1.22,2.93,1.78,4.29-1.36.86-2.26,2.36-2.26,4.08,0,2.67,2.16,4.83,4.83,4.83s4.83-2.16,4.83-4.83-2.16-4.83-4.83-4.83c-.31,0-.61.04-.91.09-.57-1.39-1.2-2.91-1.82-4.39,1.2-.78,2.15-1.92,2.69-3.26l7.3,2.9c0,.1-.03.2-.03.3,0,3.44,2.79,6.23,6.23,6.23s6.23-2.79,6.23-6.23-2.79-6.23-6.23-6.23Z"/><path class="cls-3" d="m83.27,70.69c-4.13,0-7.47,3.35-7.47,7.47,0,1.78.64,3.38,1.68,4.67l-4.61,4.73c-.62-.38-1.34-.61-2.12-.61-.37,0-.72.06-1.06.16l-2.04-3.86c1.84-1.02,3.1-2.96,3.1-5.21,0-3.3-2.68-5.98-5.98-5.98s-5.98,2.68-5.98,5.98c0,2.11,1.1,3.96,2.75,5.02l-2.44,15.01c-2.13.13-3.82,1.88-3.82,4.04s1.82,4.07,4.07,4.07,4.07-1.82,4.07-4.07c0-1.71-1.06-3.16-2.55-3.77l2.37-14.55c.49.13,1,.22,1.53.22.41,0,.81-.04,1.2-.12l2.14,4.05c-.87.75-1.43,1.84-1.43,3.07,0,2.25,1.82,4.07,4.07,4.07s4.07-1.82,4.07-4.07c0-.82-.25-1.58-.66-2.21l4.6-4.72c1.26.96,2.81,1.56,4.52,1.56,4.13,0,7.47-3.35,7.47-7.47s-3.35-7.47-7.47-7.47Z"/><path class="cls-4" d="m126.96,50.38c-.46,0-.89.09-1.31.23l-2.46-5.71c1.13-.96,1.86-2.37,1.86-3.96,0-2.88-2.34-5.22-5.22-5.22-1.14,0-2.18.37-3.04.99l-4.64-2.51c.53-.89.86-1.93.86-3.04,0-3.3-2.67-5.97-5.97-5.97-2.48,0-4.6,1.51-5.5,3.65l-6.18-2.82c.03-.24.07-.48.07-.73,0-3.56-2.89-6.45-6.45-6.45s-6.45,2.89-6.45,6.45,2.89,6.45,6.45,6.45c.52,0,1.01-.08,1.5-.19l2.79,6.96c-.15.11-.3.22-.43.35l-16.54-10.16c.25-.75.42-1.53.42-2.36,0-4.1-3.32-7.42-7.42-7.42s-7.28,3.21-7.4,7.21l-7.19,1.55c-.83-1.33-2.29-2.22-3.98-2.22-2.59,0-4.7,2.1-4.7,4.7s2.1,4.7,4.7,4.7,4.7-2.1,4.7-4.7c0-.27-.04-.53-.08-.78l6.71-1.44c.72,3.34,3.69,5.84,7.25,5.84,2.63,0,4.92-1.37,6.24-3.43l16.38,10.07c-.11.35-.19.72-.19,1.11,0,2.05,1.66,3.71,3.71,3.71s3.71-1.66,3.71-3.71-1.66-3.71-3.71-3.71c-.17,0-.34.03-.5.05l-2.79-6.97c1.24-.7,2.23-1.77,2.79-3.09l6.2,2.83c-.02.18-.05.36-.05.54,0,3.3,2.67,5.97,5.97,5.97,1.52,0,2.89-.59,3.95-1.52l4.5,2.44c-.56.83-.88,1.83-.88,2.9,0,2.88,2.34,5.22,5.22,5.22.64,0,1.24-.13,1.8-.34l2.46,5.7c-.85.78-1.4,1.89-1.4,3.14,0,2.35,1.91,4.26,4.26,4.26s4.26-1.91,4.26-4.26-1.91-4.26-4.26-4.26Z"/><path class="cls-11" d="m70.38,65.15l-15.7-3.3c-.05-2.35-1.96-4.24-4.31-4.24s-4.32,1.94-4.32,4.32,1.94,4.32,4.32,4.32c1.79,0,3.33-1.09,3.99-2.65l15.79,3.32c.13,2.19,1.76,4.07,4.02,4.43,2.6.4,5.04-1.38,5.44-3.98.4-2.57-1.34-4.97-3.89-5.42l-.33-3.38c1.66-.54,2.87-2.09,2.87-3.93,0-2.29-1.86-4.15-4.15-4.15-1.72,0-3.19,1.04-3.82,2.53l-5.13-.95c-.11-2.19-1.32-4.07-3.09-5.14l1.76-3.75c.3.06.62.1.94.1,1.88,0,3.49-1.1,4.27-2.68l8.47,3.21c0,.08-.02.16-.02.25,0,2.29,1.86,4.15,4.15,4.15s4.15-1.86,4.15-4.15-1.86-4.15-4.15-4.15c-1.57,0-2.93.89-3.63,2.18l-8.5-3.22c0-.12.04-.23.04-.36,0-2.63-2.14-4.77-4.77-4.77s-4.77,2.14-4.77,4.77c0,1.67.87,3.14,2.17,3.99l-1.75,3.74c-.52-.14-1.06-.23-1.62-.23-3.53,0-6.39,2.86-6.39,6.39s2.86,6.39,6.39,6.39c3.03,0,5.55-2.11,6.21-4.93l4.97.92c.07,2.05,1.63,3.71,3.63,3.96l.31,3.24c-1.64.34-3,1.53-3.54,3.16Z"/><path class="cls-12" d="m58.16,90.89c0-1.67-1.26-3.03-2.87-3.22l-3.84-7.56c.82-1.02,1.33-2.3,1.33-3.72,0-3.3-2.68-5.98-5.98-5.98-.97,0-1.88.25-2.69.67l-4.92-3.53c.18-.51.3-1.06.3-1.63,0-1.81-1-3.38-2.46-4.23l1.21-6.94c.26.02.5.08.77.08,4.82,0,8.73-3.91,8.73-8.73s-3.91-8.73-8.73-8.73-8.73,3.91-8.73,8.73c0,3.94,2.62,7.23,6.2,8.31l-1.17,6.67c-.24-.04-.48-.07-.73-.07-2.71,0-4.9,2.19-4.9,4.9s2.19,4.9,4.9,4.9c1.48,0,2.8-.67,3.7-1.72l4.28,3.07c-1.08,1.08-1.74,2.57-1.74,4.22,0,3.3,2.68,5.98,5.98,5.98,1.21,0,2.34-.37,3.28-.99l3.35,6.61c-1.07.54-1.8,1.63-1.8,2.9,0,1.8,1.46,3.26,3.26,3.26s3.26-1.46,3.26-3.26Z"/></svg>