<?xml version="1.0" encoding="UTF-8"?><svg id="ART" xmlns="http://www.w3.org/2000/svg" xmlns:xlink="http://www.w3.org/1999/xlink" viewBox="0 0 540 125"><defs><linearGradient id="linear-gradient" x1="387.38" y1="67.88" x2="81.09" y2="65.32" gradientTransform="translate(0 123.39) scale(1 -1)" gradientUnits="userSpaceOnUse"><stop offset="0" stop-color="#22b9da"/><stop offset="1" stop-color="#096bb1"/></linearGradient><linearGradient id="linear-gradient-2" x1="38.79" y1="31.94" x2="119.75" y2="71.92" gradientTransform="translate(0 123.39) scale(1 -1)" gradientUnits="userSpaceOnUse"><stop offset="0" stop-color="#22b9da"/><stop offset="1" stop-color="#096bb1"/></linearGradient><linearGradient id="linear-gradient-3" x1="42.04" y1="25.37" x2="122.99" y2="65.34" gradientTransform="translate(0 123.39) scale(1 -1)" gradientUnits="userSpaceOnUse"><stop offset="0" stop-color="#22b9da"/><stop offset="1" stop-color="#096bb1"/></linearGradient><linearGradient id="linear-gradient-4" x1="28.7" y1="52.39" x2="109.66" y2="92.36" gradientTransform="translate(0 123.39) scale(1 -1)" gradientUnits="userSpaceOnUse"><stop offset="0" stop-color="#22b9da"/><stop offset="1" stop-color="#096bb1"/></linearGradient><linearGradient id="linear-gradient-5" x1="29.09" y1="51.58" x2="110.05" y2="91.55" gradientTransform="translate(0 123.39) scale(1 -1)" gradientUnits="userSpaceOnUse"><stop offset="0" stop-color="#22b9da"/><stop offset="1" stop-color="#096bb1"/></linearGradient><linearGradient id="linear-gradient-6" x1="29.71" y1="50.32" x2="110.67" y2="90.3" gradientTransform="translate(0 123.39) scale(1 -1)" gradientUnits="userSpaceOnUse"><stop offset="0" stop-color="#22b9da"/><stop offset="1" stop-color="#096bb1"/></linearGradient><linearGradient id="linear-gradient-7" x1="123.79" y1="69.33" x2="44.49" y2="46.23" gradientTransform="translate(0 123.39) scale(1 -1)" gradientUnits="userSpaceOnUse"><stop offset="0" stop-color="#22b9da"/><stop offset="1" stop-color="#096bb1"/></linearGradient><linearGradient id="linear-gradient-8" x1="128.23" y1="54.09" x2="48.93" y2="31" gradientTransform="translate(0 123.39) scale(1 -1)" gradientUnits="userSpaceOnUse"><stop offset="0" stop-color="#22b9da"/><stop offset="1" stop-color="#096bb1"/></linearGradient><linearGradient id="linear-gradient-9" x1="117.57" y1="90.7" x2="38.27" y2="67.61" gradientTransform="translate(0 123.39) scale(1 -1)" gradientUnits="userSpaceOnUse"><stop offset="0" stop-color="#22b9da"/><stop offset="1" stop-color="#096bb1"/></linearGradient><linearGradient id="linear-gradient-10" x1="119.04" y1="85.67" x2="39.74" y2="62.57" gradientTransform="translate(0 123.39) scale(1 -1)" gradientUnits="userSpaceOnUse"><stop offset="0" stop-color="#22b9da"/><stop offset="1" stop-color="#096bb1"/></linearGradient><linearGradient id="linear-gradient-11" x1="120.76" y1="79.76" x2="41.46" y2="56.67" gradientTransform="translate(0 123.39) scale(1 -1)" gradientUnits="userSpaceOnUse"><stop offset="0" stop-color="#22b9da"/><stop offset="1" stop-color="#096bb1"/></linearGradient></defs><path d="M101,93.49l-3.06-6.68-5.52,6.68h-2.3l7.39-8.77h1.5l4.26,8.77h-2.27Z" style="fill:#fff;"/><path d="M106.68,93.49c-1.78,0-2.49-.66-2.49-1.66,0-.15.02-.3.05-.46l.8-4.53c.22-1.26,1.15-2.12,3.19-2.12h7.24l-.28,1.58h-7.24c-.51,0-.81.16-.87.51l-.81,4.57s-.01.07-.01.1c0,.29.25.41.71.41h7.24l-.29,1.59h-7.24Z" style="fill:#fff;"/><path d="M118.48,93.49c-1.78,0-2.49-.66-2.49-1.66,0-.15.02-.3.05-.46l.8-4.53c.22-1.26,1.15-2.12,3.19-2.12h7.24l-.28,1.58h-7.24c-.51,0-.81.16-.87.51l-.81,4.57s-.01.07-.01.1c0,.29.25.41.71.41h7.24l-.29,1.59h-7.24Z" style="fill:#fff;"/><path d="M127.53,93.49l1.54-8.77h9.24l-.27,1.58h-7.21l-.31,1.76h6.83l-.29,1.59h-6.83l-.39,2.24h7.21l-.29,1.59h-9.24,0Z" style="fill:#fff;"/><path d="M138.59,93.49l1.54-8.77h2.06l-1.26,7.18h6.94l-.29,1.59h-9,0Z" style="fill:#fff;"/><path d="M149.14,93.49l1.55-8.77h9.24l-.28,1.58h-7.21l-.31,1.76h6.83l-.29,1.59h-6.83l-.39,2.24h7.21l-.29,1.59h-9.24,0Z" style="fill:#fff;"/><path d="M168.42,93.49l-1.27-3.9h-4.24l-.69,3.9h-2.03l1.55-8.77h7.62c1.78,0,2.49.66,2.49,1.67,0,.14,0,.29-.04.45l-.11.63c-.19,1.05-.82,1.88-2.43,2.09l1.27,3.93h-2.13,0ZM169.79,86.81c0-.35-.16-.51-.7-.51h-5.59l-.3,1.71h5.59c.54,0,.8-.1.87-.52l.13-.67h0Z" style="fill:#fff;"/><path d="M182.47,93.49l-3.07-6.68-5.52,6.68h-2.31l7.39-8.77h1.5l4.26,8.77h-2.26.01Z" style="fill:#fff;"/><path d="M187.74,93.49l1.27-7.19h-4.52l.27-1.58h10.99l-.27,1.58h-4.42l-1.27,7.19h-2.05Z" style="fill:#fff;"/><path d="M195.78,93.49l1.54-8.77h2.03l-1.54,8.77s-2.03,0-2.03,0Z" style="fill:#fff;"/><path d="M210.82,93.49l-7.99-6.52-1.15,6.52h-1.77l1.55-8.77h1.76l7.28,6.11,1.08-6.11h1.78l-1.55,8.77h-1,.01Z" style="fill:#fff;"/><path d="M216.65,93.49c-1.62,0-2.55-.51-2.55-1.61,0-.12,0-.26.04-.41l.8-4.56c.27-1.56,1.46-2.19,3.26-2.19h7.36l-.27,1.58h-7.37c-.64,0-.89.24-.95.61l-.8,4.55s0,.05,0,.07c0,.27.36.36.77.36h4.65c.45,0,.82-.09.89-.41l.5-2.78h2.04l-.5,2.78c-.29,1.56-1.27,2.01-3.22,2.01h-4.64Z" style="fill:#fff;"/><path d="M243.71,93.49l-7.99-6.52-1.15,6.52h-1.77l1.55-8.77h1.76l7.28,6.11,1.08-6.11h1.78l-1.55,8.77h-1,.01Z" style="fill:#fff;"/><path d="M246.73,93.49l1.55-8.77h9.24l-.28,1.58h-7.21l-.31,1.76h6.83l-.29,1.59h-6.83l-.39,2.24h7.21l-.29,1.59h-9.24.01Z" style="fill:#fff;"/><path d="M268.48,84.72h2.03l-1.17,6.65c-.22,1.26-1.15,2.12-3.19,2.12h-5.59c-1.78,0-2.49-.66-2.49-1.66,0-.15.02-.3.05-.46l1.17-6.65h2.03l-1.17,6.67s-.01.07-.01.1c0,.29.25.41.71.41h5.59c.51,0,.81-.15.87-.51l1.17-6.67h0Z" style="fill:#fff;"/><path d="M279.18,93.49l-1.27-3.9h-4.24l-.69,3.9h-2.03l1.54-8.77h7.63c1.78,0,2.49.66,2.49,1.67,0,.14-.01.29-.04.45l-.11.63c-.19,1.05-.82,1.88-2.43,2.09l1.27,3.93h-2.13,0ZM280.55,86.81c0-.35-.16-.51-.7-.51h-5.59l-.3,1.71h5.59c.54,0,.8-.1.87-.52l.12-.67h.01Z" style="fill:#fff;"/><path d="M285.89,93.49c-1.78,0-2.49-.66-2.49-1.66,0-.15.03-.3.05-.46l.8-4.53c.22-1.26,1.15-2.12,3.19-2.12h5.94c1.78,0,2.48.66,2.48,1.66,0,.15-.01.3-.04.46l-.8,4.53c-.22,1.26-1.15,2.12-3.19,2.12h-5.95.01ZM293.8,86.81c0-.35-.16-.51-.7-.51h-5.94c-.51,0-.81.16-.87.51l-.81,4.57s-.01.07-.01.1c0,.29.25.41.71.41h5.94c.51,0,.81-.15.87-.51l.81-4.57h0Z" style="fill:#fff;"/><path d="M308.42,93.49l.97-5.53-5.08,5.53h-1.67l-3.16-5.52-.97,5.52h-1.88l1.55-8.77h1.82l3.85,6.79,6.21-6.79h1.81l-1.54,8.77h-1.91Z" style="fill:#fff;"/><path d="M315.09,93.49c-1.78,0-2.49-.66-2.49-1.66,0-.15.03-.3.05-.46l.8-4.53c.22-1.26,1.15-2.12,3.19-2.12h5.94c1.78,0,2.48.66,2.48,1.66,0,.15-.01.3-.04.46l-.8,4.53c-.22,1.26-1.15,2.12-3.19,2.12h-5.95.01ZM323,86.81c0-.35-.16-.51-.7-.51h-5.94c-.51,0-.81.16-.87.51l-.81,4.57s-.01.07-.01.1c0,.29.25.41.71.41h5.94c.51,0,.81-.15.87-.51l.81-4.57h0Z" style="fill:#fff;"/><path d="M334.04,93.49l-1.27-3.9h-4.24l-.69,3.9h-2.03l1.55-8.77h7.62c1.78,0,2.49.66,2.49,1.67,0,.14-.01.29-.04.45l-.11.63c-.19,1.05-.82,1.88-2.43,2.09l1.27,3.93h-2.13.01ZM335.41,86.81c0-.35-.16-.51-.7-.51h-5.59l-.3,1.71h5.59c.54,0,.8-.1.87-.52l.13-.67h0Z" style="fill:#fff;"/><path d="M340.6,90.32l-.56,3.18h-2.03l1.55-8.77h7.36c1.78,0,2.48.66,2.48,1.66,0,.15-.01.3-.04.46l-.24,1.36c-.22,1.26-1.15,2.12-3.19,2.12h-5.33ZM347.33,86.88s.01-.07.01-.11c0-.28-.16-.46-.51-.46h-5.52l-.42,2.42h5.53c.4,0,.61-.19.67-.51l.24-1.33h0Z" style="fill:#fff;"/><path d="M358.47,93.49l.67-3.84h-6.68l-.67,3.84h-2.03l1.54-8.77h2.03l-.59,3.34h6.68l.59-3.34h2.04l-1.55,8.77h-2.04,0Z" style="fill:#fff;"/><path d="M362.6,93.49l1.55-8.77h2.03l-1.55,8.77s-2.03,0-2.03,0Z" style="fill:#fff;"/><path d="M369.48,93.49c-1.78,0-2.49-.66-2.49-1.66,0-.15.03-.3.05-.46l.8-4.53c.22-1.26,1.15-2.12,3.19-2.12h7.24l-.27,1.58h-7.24c-.51,0-.81.16-.87.51l-.81,4.57s-.01.07-.01.1c0,.29.25.41.71.41h7.24l-.29,1.59h-7.25Z" style="fill:#fff;"/><path d="M388.01,93.49c-1.78,0-2.49-.66-2.49-1.66,0-.15.03-.3.05-.46l.8-4.53c.22-1.26,1.15-2.12,3.19-2.12h7.24l-.27,1.58h-7.24c-.51,0-.81.16-.87.51l-.81,4.57s-.01.07-.01.1c0,.29.25.41.71.41h7.24l-.29,1.59h-7.25Z" style="fill:#fff;"/><path d="M399.81,93.49c-1.78,0-2.49-.66-2.49-1.66,0-.15.03-.3.05-.46l.8-4.53c.22-1.26,1.15-2.12,3.19-2.12h5.94c1.78,0,2.48.66,2.48,1.66,0,.15-.01.3-.04.46l-.8,4.53c-.22,1.26-1.15,2.12-3.19,2.12h-5.95.01ZM407.72,86.81c0-.35-.16-.51-.7-.51h-5.94c-.51,0-.81.16-.87.51l-.81,4.57s-.01.07-.01.1c0,.29.25.41.71.41h5.94c.51,0,.81-.15.87-.51l.81-4.57h0Z" style="fill:#fff;"/><path d="M422.34,93.49l.97-5.53-5.08,5.53h-1.67l-3.17-5.52-.97,5.52h-1.88l1.54-8.77h1.82l3.85,6.79,6.21-6.79h1.81l-1.54,8.77h-1.89Z" style="fill:#fff;"/><path d="M428.84,90.32l-.56,3.18h-2.03l1.55-8.77h7.36c1.78,0,2.48.66,2.48,1.66,0,.15-.01.3-.04.46l-.24,1.36c-.22,1.26-1.15,2.12-3.19,2.12h-5.33ZM435.57,86.88s.01-.07.01-.11c0-.28-.16-.46-.51-.46h-5.52l-.42,2.42h5.53c.4,0,.61-.19.67-.51l.24-1.33h0Z" style="fill:#fff;"/><path d="M448.71,84.72h2.03l-1.17,6.65c-.22,1.26-1.15,2.12-3.19,2.12h-5.59c-1.78,0-2.49-.66-2.49-1.66,0-.15.02-.3.05-.46l1.17-6.65h2.03l-1.17,6.67s-.01.07-.01.1c0,.29.25.41.71.41h5.59c.51,0,.81-.15.87-.51l1.17-6.67h0Z" style="fill:#fff;"/><path d="M455.18,93.49l1.27-7.19h-4.52l.27-1.58h10.99l-.27,1.58h-4.42l-1.27,7.19h-2.05Z" style="fill:#fff;"/><path d="M463.22,93.49l1.55-8.77h2.03l-1.55,8.77s-2.03,0-2.03,0Z" style="fill:#fff;"/><path d="M478.25,93.49l-7.99-6.52-1.15,6.52h-1.77l1.55-8.77h1.76l7.28,6.11,1.08-6.11h1.78l-1.55,8.77h-1,0Z" style="fill:#fff;"/><path d="M484.08,93.49c-1.62,0-2.56-.51-2.56-1.61,0-.12.01-.26.04-.41l.8-4.56c.28-1.56,1.46-2.19,3.26-2.19h7.36l-.27,1.58h-7.38c-.63,0-.89.24-.95.61l-.8,4.55s-.01.05-.01.07c0,.27.36.36.77.36h4.65c.45,0,.82-.09.89-.41l.5-2.78h2.04l-.5,2.78c-.29,1.56-1.27,2.01-3.21,2.01h-4.63Z" style="fill:#fff;"/><polygon points="492.14 77.62 52.9 77.62 64.9 57.19 57.57 35.27 499.49 35.27 512.09 56.57 492.14 77.62" style="fill:url(#linear-gradient);"/><path d="M136.93,69.05l.81-4.48h21.91c1.61,0,2.28-.28,2.49-1.47l.63-3.53c0-.11.04-.25.04-.35,0-.84-.63-1.15-2.03-1.15h-14.74c-5.04,0-7.04-1.82-7.04-4.69,0-.39.07-.84.14-1.3l.28-1.68c.59-3.57,3.29-5.98,9.03-5.98h21.32l-.77,4.45h-21.32c-1.5,0-2.34.39-2.56,1.5l-.31,1.75c-.04.1-.04.24-.04.35,0,.81.63,1.15,2.07,1.15h14.73c5.04,0,7.04,1.85,7.04,4.69,0,.42-.03.84-.1,1.3l-.63,3.43c-.67,3.57-3.26,6.02-9.03,6.02h-21.92Z" style="fill:#fff;"/><path d="M201.86,44.41h5.71l-3.29,18.69c-.63,3.54-3.22,5.95-8.96,5.95h-15.71c-5,0-7-1.85-7-4.66,0-.42.07-.84.14-1.3l3.29-18.69h5.71l-3.29,18.73c-.04.11-.04.21-.04.28,0,.8.7,1.15,2,1.15h15.71c1.44,0,2.28-.42,2.45-1.44l3.29-18.73v.02Z" style="fill:#fff;"/><path d="M216.1,60.13l-1.57,8.93h-5.71l4.34-24.64h20.69c5.01,0,6.97,1.85,6.97,4.65,0,.42-.03.84-.1,1.3l-.67,3.82c-.63,3.54-3.22,5.95-8.96,5.95h-14.99ZM235,50.47c0-.11.04-.21.04-.31,0-.77-.46-1.3-1.44-1.3h-15.51l-1.19,6.79h15.54c1.12,0,1.71-.52,1.89-1.44l.67-3.74h0Z" style="fill:#fff;"/><path d="M241.86,69.05l4.34-24.64h25.97l-.77,4.45h-20.27l-.87,4.94h19.18l-.8,4.48h-19.18l-1.09,6.3h20.27l-.81,4.48h-25.97Z" style="fill:#fff;"/><path d="M296.04,69.05l-3.57-10.96h-11.9l-1.93,10.96h-5.71l4.34-24.64h21.42c5,0,7,1.85,7,4.69,0,.39-.04.81-.11,1.26l-.31,1.79c-.52,2.94-2.31,5.28-6.83,5.88l3.57,11.03h-5.99.02ZM299.89,50.29c0-.98-.45-1.43-1.96-1.43h-15.71l-.84,4.8h15.72c1.5,0,2.24-.28,2.45-1.47l.35-1.89h-.01Z" style="fill:#fff;"/><path d="M337.83,69.05l-22.44-18.31-3.22,18.31h-4.97l4.34-24.64h4.94l20.44,17.15,3.04-17.15h5l-4.34,24.64h-2.8,0Z" style="fill:#fff;"/><path d="M346.34,69.05l4.34-24.64h25.97l-.77,4.45h-20.27l-.87,4.94h19.18l-.8,4.48h-19.18l-1.09,6.3h20.27l-.81,4.48h-25.97Z" style="fill:#fff;"/><path d="M407.49,44.41h5.71l-3.29,18.69c-.63,3.54-3.22,5.95-8.96,5.95h-15.72c-5.01,0-7-1.85-7-4.66,0-.42.07-.84.14-1.3l3.29-18.69h5.71l-3.29,18.73c-.04.11-.04.21-.04.28,0,.8.7,1.15,2,1.15h15.72c1.43,0,2.28-.42,2.45-1.44l3.29-18.73v.02Z" style="fill:#fff;"/><path d="M437.55,69.05l-3.57-10.96h-11.9l-1.93,10.96h-5.71l4.34-24.64h21.42c5,0,7,1.85,7,4.69,0,.39-.04.81-.11,1.26l-.31,1.79c-.52,2.94-2.31,5.28-6.83,5.88l3.57,11.03h-5.99.02ZM441.4,50.29c0-.98-.45-1.43-1.96-1.43h-15.72l-.84,4.8h15.72c1.5,0,2.24-.28,2.45-1.47l.35-1.89h0Z" style="fill:#fff;"/><path d="M456.45,69.05c-5,0-7-1.85-7-4.66,0-.42.07-.84.14-1.3l2.24-12.74c.63-3.53,3.22-5.95,8.96-5.95h16.7c5,0,6.97,1.85,6.97,4.65,0,.42-.04.84-.1,1.3l-2.24,12.74c-.63,3.54-3.22,5.95-8.96,5.95h-16.71ZM478.68,50.29c0-.98-.45-1.43-1.96-1.43h-16.69c-1.43,0-2.28.46-2.45,1.43l-2.27,12.85c-.04.11-.04.21-.04.28,0,.8.7,1.15,2,1.15h16.7c1.43,0,2.27-.42,2.45-1.44l2.27-12.85h-.01Z" style="fill:#fff;"/><path d="M123.27,40.93l-38.15-13.17-44.76,13.17-4.38,16.61,10.32,15.2,7.2,11.88s5.53,8.7,6.17,8.49,21.64-13.47,21.64-13.47c0,0,19.13-14.97,21.21-15.38,2.08-.41,13.58-6.36,13.58-6.36l7.18-2.33v-14.64Z" style="fill:#fff;"/><path d="M110.83,57.61c-.55,0-1.07.09-1.58.23l-1.92-5.49c1.43-.83,2.4-2.36,2.4-4.13,0-2.65-2.15-4.79-4.8-4.79s-4.79,2.15-4.79,4.79,2.15,4.79,4.79,4.79c.24,0,.47-.04.7-.07l1.96,5.6c-1.21.74-2.14,1.87-2.62,3.23l-7.21-2.87c.04-.3.09-.6.09-.91,0-3.91-3.17-7.07-7.07-7.07s-7.07,3.17-7.07,7.07,3.17,7.07,7.07,7.07c.79,0,1.53-.16,2.23-.39.61,1.45,1.22,2.93,1.78,4.29-1.36.86-2.26,2.36-2.26,4.08,0,2.67,2.16,4.83,4.83,4.83s4.83-2.16,4.83-4.83-2.16-4.83-4.83-4.83c-.31,0-.61.04-.91.09-.57-1.39-1.2-2.91-1.82-4.39,1.2-.78,2.15-1.92,2.69-3.26l7.3,2.9c0,.1-.03.2-.03.3,0,3.44,2.79,6.23,6.23,6.23s6.23-2.79,6.23-6.23-2.79-6.23-6.23-6.23h.01Z" style="fill:url(#linear-gradient-2);"/><path d="M104.94,43.42c2.65,0,4.8,2.15,4.8,4.79,0,1.77-.97,3.3-2.4,4.13l1.92,5.49c.51-.13,1.03-.23,1.58-.23,3.44,0,6.23,2.79,6.23,6.23s-2.79,6.23-6.23,6.23-6.23-2.79-6.23-6.23c0-.1.03-.2.03-.3l-7.3-2.9c-.55,1.35-1.49,2.48-2.69,3.26.62,1.48,1.25,3,1.82,4.39.29-.06.6-.09.91-.09,2.67,0,4.83,2.16,4.83,4.83s-2.16,4.83-4.83,4.83-4.83-2.16-4.83-4.83c0-1.72.91-3.22,2.26-4.08-.56-1.36-1.17-2.84-1.78-4.29-.71.24-1.45.39-2.23.39-3.91,0-7.07-3.17-7.07-7.07s3.17-7.07,7.07-7.07,7.08,3.17,7.08,7.07c0,.31-.05.61-.09.91l7.21,2.87c.48-1.36,1.41-2.49,2.62-3.23l-1.96-5.6c-.23.03-.46.07-.7.07-2.65,0-4.79-2.15-4.79-4.79s2.15-4.79,4.79-4.79M104.96,39.83c-4.62,0-8.37,3.76-8.37,8.37,0,.29.01.58.04.86-1.68-1.1-3.68-1.74-5.83-1.74-5.87,0-10.65,4.78-10.65,10.65s4.47,10.34,10.07,10.64c-.81,1.3-1.25,2.82-1.25,4.42,0,4.64,3.77,8.41,8.41,8.41s8.41-3.77,8.41-8.41c0-.27-.01-.54-.04-.81,1.49.91,3.23,1.43,5.1,1.43,5.41,0,9.81-4.4,9.81-9.81,0-5.11-3.92-9.32-8.91-9.77l-.24-.67c1.16-1.46,1.82-3.28,1.82-5.19,0-4.62-3.76-8.37-8.37-8.37h0ZM101.34,56.45c-.04-.26-.08-.51-.14-.76.59.3,1.22.53,1.87.68l.32.9-2.05-.82h0Z" style="fill:#fff;"/><path d="M81.48,70.69c-4.13,0-7.47,3.35-7.47,7.47,0,1.78.64,3.38,1.68,4.67l-4.61,4.73c-.62-.38-1.34-.61-2.12-.61-.37,0-.72.06-1.06.16l-2.04-3.86c1.84-1.02,3.1-2.96,3.1-5.21,0-3.3-2.68-5.98-5.98-5.98s-5.98,2.68-5.98,5.98c0,2.11,1.1,3.96,2.75,5.02l-2.44,15.01c-2.13.13-3.82,1.88-3.82,4.04s1.82,4.07,4.07,4.07,4.07-1.82,4.07-4.07c0-1.71-1.06-3.16-2.55-3.77l2.37-14.55c.49.13,1,.22,1.53.22.41,0,.81-.04,1.2-.12l2.14,4.05c-.87.75-1.43,1.84-1.43,3.07,0,2.25,1.82,4.07,4.07,4.07s4.07-1.82,4.07-4.07c0-.82-.25-1.58-.66-2.21l4.6-4.72c1.26.96,2.81,1.56,4.52,1.56,4.13,0,7.47-3.35,7.47-7.47s-3.35-7.47-7.47-7.47h0Z" style="fill:url(#linear-gradient-3);"/><path d="M81.48,70.69c4.13,0,7.47,3.35,7.47,7.47s-3.35,7.47-7.47,7.47c-1.71,0-3.26-.59-4.52-1.56l-4.6,4.72c.42.64.66,1.4.66,2.21,0,2.25-1.82,4.07-4.07,4.07s-4.07-1.82-4.07-4.07c0-1.24.56-2.33,1.43-3.07l-2.14-4.05c-.39.08-.79.12-1.2.12-.53,0-1.04-.09-1.53-.22l-2.37,14.55c1.49.6,2.55,2.06,2.55,3.77,0,2.25-1.82,4.07-4.07,4.07s-4.07-1.82-4.07-4.07,1.69-3.91,3.82-4.04l2.44-15.01c-1.65-1.06-2.75-2.91-2.75-5.02,0-3.3,2.68-5.98,5.98-5.98s5.98,2.68,5.98,5.98c0,2.25-1.26,4.19-3.1,5.21l2.04,3.86c.34-.09.69-.16,1.06-.16.78,0,1.5.23,2.12.61l4.61-4.73c-1.03-1.28-1.68-2.89-1.68-4.67,0-4.13,3.35-7.47,7.47-7.47M81.47,67.1c-4.46,0-8.31,2.65-10.05,6.47-1.6-3.03-4.79-5.09-8.45-5.09-5.27,0-9.55,4.29-9.55,9.55,0,2.41.9,4.68,2.48,6.41l-1.77,10.84c-2.51,1.26-4.23,3.86-4.23,6.82,0,4.22,3.43,7.64,7.64,7.64s7.64-3.43,7.64-7.64c0-2.08-.83-4-2.23-5.4l.13-.79c1.4,1.67,3.51,2.74,5.86,2.74,4.21,0,7.64-3.43,7.64-7.64,0-.44-.04-.89-.12-1.32l1.15-1.18c1.22.46,2.52.7,3.84.7,6.09,0,11.05-4.96,11.05-11.05s-4.96-11.05-11.05-11.05h.02Z" style="fill:#fff;"/><path d="M125.17,50.38c-.46,0-.89.09-1.31.23l-2.46-5.71c1.13-.96,1.86-2.37,1.86-3.96,0-2.88-2.34-5.22-5.22-5.22-1.14,0-2.18.37-3.04.99l-4.64-2.51c.53-.89.86-1.93.86-3.04,0-3.3-2.67-5.97-5.97-5.97-2.48,0-4.6,1.51-5.5,3.65l-6.18-2.82c.03-.24.07-.48.07-.73,0-3.56-2.89-6.45-6.45-6.45s-6.45,2.89-6.45,6.45,2.89,6.45,6.45,6.45c.52,0,1.01-.08,1.5-.19l2.79,6.96c-.15.11-.3.22-.43.35l-16.54-10.16c.25-.75.42-1.53.42-2.36,0-4.1-3.32-7.42-7.42-7.42s-7.28,3.21-7.4,7.21l-7.19,1.55c-.83-1.33-2.29-2.22-3.98-2.22-2.59,0-4.7,2.1-4.7,4.7s2.1,4.7,4.7,4.7,4.7-2.1,4.7-4.7c0-.27-.04-.53-.08-.78l6.71-1.44c.72,3.34,3.69,5.84,7.25,5.84,2.63,0,4.92-1.37,6.24-3.43l16.38,10.07c-.11.35-.19.72-.19,1.11,0,2.05,1.66,3.71,3.71,3.71s3.71-1.66,3.71-3.71-1.66-3.71-3.71-3.71c-.17,0-.34.03-.5.05l-2.79-6.97c1.24-.7,2.23-1.77,2.79-3.09l6.2,2.83c-.02.18-.05.36-.05.54,0,3.3,2.67,5.97,5.97,5.97,1.52,0,2.89-.59,3.95-1.52l4.5,2.44c-.56.83-.88,1.83-.88,2.9,0,2.88,2.34,5.22,5.22,5.22.64,0,1.24-.13,1.8-.34l2.46,5.7c-.85.78-1.4,1.89-1.4,3.14,0,2.35,1.91,4.26,4.26,4.26s4.26-1.91,4.26-4.26-1.91-4.26-4.26-4.26l-.02-.05Z" style="fill:url(#linear-gradient-4);"/><path d="M87.21,18.83c3.56,0,6.45,2.89,6.45,6.45,0,.25-.05.49-.07.73l6.18,2.82c.91-2.15,3.03-3.65,5.5-3.65,3.3,0,5.97,2.67,5.97,5.97,0,1.12-.33,2.15-.86,3.04l4.64,2.51c.86-.62,1.9-.99,3.04-.99,2.88,0,5.22,2.34,5.22,5.22,0,1.6-.73,3.01-1.86,3.96l2.46,5.71c.41-.13.85-.23,1.31-.23,2.35,0,4.26,1.91,4.26,4.26s-1.91,4.26-4.26,4.26-4.26-1.91-4.26-4.26c0-1.25.54-2.36,1.4-3.14l-2.46-5.7c-.56.21-1.17.34-1.8.34-2.88,0-5.22-2.34-5.22-5.22,0-1.07.33-2.07.88-2.9l-4.5-2.44c-1.05.94-2.43,1.52-3.95,1.52-3.3,0-5.97-2.67-5.97-5.97,0-.19.04-.36.05-.54l-6.2-2.83c-.56,1.32-1.55,2.39-2.79,3.09l2.79,6.97c.17-.02.33-.05.5-.05,2.05,0,3.71,1.66,3.71,3.71s-1.66,3.71-3.71,3.71-3.71-1.66-3.71-3.71c0-.39.08-.76.19-1.11l-16.38-10.07c-1.32,2.06-3.61,3.43-6.24,3.43-3.56,0-6.52-2.5-7.25-5.84l-6.71,1.44c.04.26.08.51.08.78,0,2.59-2.1,4.7-4.7,4.7s-4.7-2.1-4.7-4.7,2.1-4.7,4.7-4.7c1.68,0,3.15.89,3.98,2.22l7.19-1.55c.12-4,3.38-7.21,7.4-7.21s7.42,3.32,7.42,7.42c0,.83-.17,1.61-.42,2.36l16.54,10.16c.13-.13.28-.24.43-.35l-2.79-6.96c-.48.11-.98.19-1.5.19-3.56,0-6.45-2.89-6.45-6.45s2.89-6.45,6.45-6.45M87.19,15.2c-4.43,0-8.2,2.89-9.52,6.88-1.65-3.99-5.59-6.81-10.17-6.81-4.98,0-9.15,3.25-10.51,7.79l-2.82.61c-1.45-1.2-3.29-1.87-5.23-1.87-4.56,0-8.27,3.71-8.27,8.27s3.71,8.27,8.27,8.27c3.82,0,7.04-2.6,7.99-6.12l1.19-.26c1.96,3.2,5.5,5.3,9.39,5.3,2.54,0,4.95-.87,6.87-2.42l12.02,7.39c.4,3.64,3.49,6.48,7.24,6.48,4.02,0,7.28-3.27,7.28-7.28,0-.68-.09-1.34-.27-1.97,1.36.75,2.93,1.18,4.6,1.18,1.41,0,2.8-.32,4.07-.93-.05.38-.08.77-.08,1.16,0,4.71,3.73,8.57,8.39,8.79l.57,1.33c-.57,1.1-.88,2.34-.88,3.59,0,4.32,3.52,7.84,7.84,7.84s7.84-3.52,7.84-7.84c0-3.99-3-7.3-6.86-7.78l-.59-1.38c.83-1.36,1.29-2.93,1.29-4.55,0-4.85-3.95-8.79-8.79-8.79-1.03,0-2.03.18-2.99.53l-.35-.19c.06-.44.1-.88.1-1.33,0-5.26-4.28-9.55-9.55-9.55-2.56,0-4.95,1.02-6.71,2.75l-1.45-.66c-.76-4.77-4.91-8.43-9.9-8.43h-.01ZM95.65,34.43l-.8-1.99,1.02.47c.12.62.3,1.22.53,1.79-.24-.1-.5-.19-.75-.26h0Z" style="fill:#fff;"/><path d="M68.59,65.15l-15.7-3.3c-.05-2.35-1.96-4.24-4.31-4.24s-4.32,1.94-4.32,4.32,1.94,4.32,4.32,4.32c1.79,0,3.33-1.09,3.99-2.65l15.79,3.32c.13,2.19,1.76,4.07,4.02,4.43,2.6.4,5.04-1.38,5.44-3.98.4-2.57-1.34-4.97-3.89-5.42l-.33-3.38c1.66-.54,2.87-2.09,2.87-3.93,0-2.29-1.86-4.15-4.15-4.15-1.72,0-3.19,1.04-3.82,2.53l-5.13-.95c-.11-2.19-1.32-4.07-3.09-5.14l1.76-3.75c.3.06.62.1.94.1,1.88,0,3.49-1.1,4.27-2.68l8.47,3.21c0,.08-.02.16-.02.25,0,2.29,1.86,4.15,4.15,4.15s4.15-1.86,4.15-4.15-1.86-4.15-4.15-4.15c-1.57,0-2.93.89-3.63,2.18l-8.5-3.22c0-.12.04-.23.04-.36,0-2.63-2.14-4.77-4.77-4.77s-4.77,2.14-4.77,4.77c0,1.67.87,3.14,2.17,3.99l-1.75,3.74c-.52-.14-1.06-.23-1.62-.23-3.53,0-6.39,2.86-6.39,6.39s2.86,6.39,6.39,6.39c3.03,0,5.55-2.11,6.21-4.93l4.97.92c.07,2.05,1.63,3.71,3.63,3.96l.31,3.24c-1.64.34-3,1.53-3.54,3.16h0Z" style="fill:url(#linear-gradient-5);"/><path d="M62.98,33.74c2.63,0,4.77,2.14,4.77,4.77,0,.12-.03.24-.04.36l8.5,3.22c.7-1.29,2.06-2.18,3.63-2.18,2.29,0,4.15,1.86,4.15,4.15s-1.86,4.15-4.15,4.15-4.15-1.86-4.15-4.15c0-.08.02-.16.02-.25l-8.47-3.21c-.78,1.58-2.39,2.68-4.27,2.68-.32,0-.64-.03-.94-.09l-1.76,3.75c1.77,1.06,2.97,2.95,3.09,5.14l5.13.95c.63-1.49,2.11-2.53,3.82-2.53,2.29,0,4.15,1.86,4.15,4.15,0,1.84-1.21,3.39-2.87,3.93l.33,3.38c2.55.45,4.29,2.85,3.89,5.42-.37,2.35-2.4,4.04-4.71,4.04-.24,0-.49-.02-.74-.06-2.26-.35-3.89-2.23-4.02-4.43l-15.79-3.32c-.65,1.56-2.19,2.65-3.99,2.65-2.39,0-4.32-1.94-4.32-4.32s1.94-4.32,4.32-4.32,4.27,1.89,4.31,4.24l15.7,3.3c.54-1.63,1.9-2.82,3.54-3.16l-.31-3.24c-2.01-.24-3.56-1.9-3.63-3.96l-4.97-.92c-.66,2.82-3.18,4.93-6.21,4.93-3.53,0-6.39-2.86-6.39-6.39s2.86-6.39,6.39-6.39c.56,0,1.1.1,1.62.23l1.75-3.74c-1.31-.85-2.17-2.32-2.17-3.99,0-2.63,2.14-4.77,4.77-4.77M62.96,30.18c-4.6,0-8.35,3.74-8.35,8.35,0,1.43.36,2.8,1.03,4.01-4.86.66-8.62,4.84-8.62,9.88,0,.6.05,1.18.15,1.75-3.7.66-6.52,3.89-6.52,7.78,0,4.36,3.54,7.9,7.9,7.9,2.11,0,4.08-.83,5.52-2.25l11.37,2.39c1.12,2.55,3.5,4.47,6.36,4.91.43.07.86.1,1.29.1,4.14,0,7.6-2.97,8.24-7.06.49-3.17-.91-6.24-3.37-8.03,1.3-1.39,2.06-3.25,2.06-5.24,0-1.01-.19-1.98-.55-2.86h.35c4.26,0,7.73-3.47,7.73-7.73s-3.47-7.73-7.73-7.73c-1.7,0-3.31.56-4.63,1.55l-4.19-1.59c-.97-3.53-4.21-6.14-8.05-6.14h.01ZM65.06,46.61c1.23-.32,2.36-.91,3.31-1.73l4.09,1.55c.06.17.12.34.18.51h-.35c-2.05,0-3.97.81-5.38,2.18l-.59-.11c-.31-.85-.74-1.66-1.27-2.4h0ZM63.04,60.35c.88-.67,1.64-1.49,2.26-2.43.48,1.04,1.19,1.96,2.07,2.68-.18.17-.36.35-.52.54l-3.8-.8h-.01Z" style="fill:#fff;"/><path d="M56.37,90.89c0-1.67-1.26-3.03-2.87-3.22l-3.84-7.56c.82-1.02,1.33-2.3,1.33-3.72,0-3.3-2.68-5.98-5.98-5.98-.97,0-1.88.25-2.69.67l-4.92-3.53c.18-.51.3-1.06.3-1.63,0-1.81-1-3.38-2.46-4.23l1.21-6.94c.26.02.5.08.77.08,4.82,0,8.73-3.91,8.73-8.73s-3.91-8.73-8.73-8.73-8.73,3.91-8.73,8.73c0,3.94,2.62,7.23,6.2,8.31l-1.17,6.67c-.24-.04-.48-.07-.73-.07-2.71,0-4.9,2.19-4.9,4.9s2.19,4.9,4.9,4.9c1.48,0,2.8-.67,3.7-1.72l4.28,3.07c-1.08,1.08-1.74,2.57-1.74,4.22,0,3.3,2.68,5.98,5.98,5.98,1.21,0,2.34-.37,3.28-.99l3.35,6.61c-1.07.54-1.8,1.63-1.8,2.9,0,1.8,1.46,3.26,3.26,3.26s3.26-1.46,3.26-3.26h.01Z" style="fill:url(#linear-gradient-6);"/><path d="M37.23,37.38c4.82,0,8.73,3.91,8.73,8.73s-3.91,8.73-8.73,8.73c-.26,0-.51-.05-.77-.08l-1.21,6.94c1.47.85,2.46,2.41,2.46,4.23,0,.58-.12,1.12-.3,1.63l4.92,3.53c.81-.41,1.72-.67,2.69-.67,3.3,0,5.98,2.68,5.98,5.98,0,1.41-.51,2.69-1.33,3.72l3.84,7.56c1.61.19,2.87,1.55,2.87,3.22,0,1.8-1.46,3.26-3.26,3.26s-3.26-1.46-3.26-3.26c0-1.27.74-2.37,1.8-2.9l-3.35-6.61c-.94.62-2.07.99-3.28.99-3.3,0-5.98-2.68-5.98-5.98,0-1.65.67-3.13,1.74-4.22l-4.28-3.07c-.9,1.04-2.21,1.72-3.7,1.72-2.71,0-4.9-2.19-4.9-4.9s2.19-4.9,4.9-4.9c.25,0,.49.04.73.07l1.17-6.67c-3.58-1.09-6.2-4.38-6.2-8.31,0-4.82,3.91-8.73,8.73-8.73M37.24,33.81c-6.78,0-12.3,5.52-12.3,12.3,0,4.33,2.23,8.2,5.78,10.4l-.22,1.26c-3.55,1.01-6.15,4.28-6.15,8.15,0,4.67,3.8,8.48,8.48,8.48,1.03,0,2.05-.19,2.99-.55-.22.82-.34,1.67-.34,2.54,0,5.27,4.29,9.55,9.55,9.55.51,0,1.02-.04,1.53-.12l.75,1.47c-.66,1.06-1.02,2.29-1.02,3.59,0,3.77,3.07,6.84,6.84,6.84s6.84-3.07,6.84-6.84c0-2.7-1.59-5.08-3.94-6.18l-2.27-4.46c.54-1.21.83-2.51.83-3.85,0-5.27-4.29-9.55-9.55-9.55-.72,0-1.43.08-2.12.25l-1.61-1.15h0c0-2.11-.79-4.11-2.16-5.64l.37-2.09c5.71-1.07,10.04-6.08,10.04-12.1,0-6.79-5.52-12.3-12.3-12.3h-.02Z" style="fill:#fff;"/><path d="M110.83,57.61c-.55,0-1.07.09-1.58.23l-1.92-5.49c1.43-.83,2.4-2.36,2.4-4.13,0-2.65-2.15-4.79-4.8-4.79s-4.79,2.15-4.79,4.79,2.15,4.79,4.79,4.79c.24,0,.47-.04.7-.07l1.96,5.6c-1.21.74-2.14,1.87-2.62,3.23l-7.21-2.87c.04-.3.09-.6.09-.91,0-3.91-3.17-7.07-7.07-7.07s-7.07,3.17-7.07,7.07,3.17,7.07,7.07,7.07c.79,0,1.53-.16,2.23-.39.61,1.45,1.22,2.93,1.78,4.29-1.36.86-2.26,2.36-2.26,4.08,0,2.67,2.16,4.83,4.83,4.83s4.83-2.16,4.83-4.83-2.16-4.83-4.83-4.83c-.31,0-.61.04-.91.09-.57-1.39-1.2-2.91-1.82-4.39,1.2-.78,2.15-1.92,2.69-3.26l7.3,2.9c0,.1-.03.2-.03.3,0,3.44,2.79,6.23,6.23,6.23s6.23-2.79,6.23-6.23-2.79-6.23-6.23-6.23h.01Z" style="fill:url(#linear-gradient-7);"/><path d="M81.48,70.69c-4.13,0-7.47,3.35-7.47,7.47,0,1.78.64,3.38,1.68,4.67l-4.61,4.73c-.62-.38-1.34-.61-2.12-.61-.37,0-.72.06-1.06.16l-2.04-3.86c1.84-1.02,3.1-2.96,3.1-5.21,0-3.3-2.68-5.98-5.98-5.98s-5.98,2.68-5.98,5.98c0,2.11,1.1,3.96,2.75,5.02l-2.44,15.01c-2.13.13-3.82,1.88-3.82,4.04s1.82,4.07,4.07,4.07,4.07-1.82,4.07-4.07c0-1.71-1.06-3.16-2.55-3.77l2.37-14.55c.49.13,1,.22,1.53.22.41,0,.81-.04,1.2-.12l2.14,4.05c-.87.75-1.43,1.84-1.43,3.07,0,2.25,1.82,4.07,4.07,4.07s4.07-1.82,4.07-4.07c0-.82-.25-1.58-.66-2.21l4.6-4.72c1.26.96,2.81,1.56,4.52,1.56,4.13,0,7.47-3.35,7.47-7.47s-3.35-7.47-7.47-7.47h0Z" style="fill:url(#linear-gradient-8);"/><path d="M125.17,50.38c-.46,0-.89.09-1.31.23l-2.46-5.71c1.13-.96,1.86-2.37,1.86-3.96,0-2.88-2.34-5.22-5.22-5.22-1.14,0-2.18.37-3.04.99l-4.64-2.51c.53-.89.86-1.93.86-3.04,0-3.3-2.67-5.97-5.97-5.97-2.48,0-4.6,1.51-5.5,3.65l-6.18-2.82c.03-.24.07-.48.07-.73,0-3.56-2.89-6.45-6.45-6.45s-6.45,2.89-6.45,6.45,2.89,6.45,6.45,6.45c.52,0,1.01-.08,1.5-.19l2.79,6.96c-.15.11-.3.22-.43.35l-16.54-10.16c.25-.75.42-1.53.42-2.36,0-4.1-3.32-7.42-7.42-7.42s-7.28,3.21-7.4,7.21l-7.19,1.55c-.83-1.33-2.29-2.22-3.98-2.22-2.59,0-4.7,2.1-4.7,4.7s2.1,4.7,4.7,4.7,4.7-2.1,4.7-4.7c0-.27-.04-.53-.08-.78l6.71-1.44c.72,3.34,3.69,5.84,7.25,5.84,2.63,0,4.92-1.37,6.24-3.43l16.38,10.07c-.11.35-.19.72-.19,1.11,0,2.05,1.66,3.71,3.71,3.71s3.71-1.66,3.71-3.71-1.66-3.71-3.71-3.71c-.17,0-.34.03-.5.05l-2.79-6.97c1.24-.7,2.23-1.77,2.79-3.09l6.2,2.83c-.02.18-.05.36-.05.54,0,3.3,2.67,5.97,5.97,5.97,1.52,0,2.89-.59,3.95-1.52l4.5,2.44c-.56.83-.88,1.83-.88,2.9,0,2.88,2.34,5.22,5.22,5.22.64,0,1.24-.13,1.8-.34l2.46,5.7c-.85.78-1.4,1.89-1.4,3.14,0,2.35,1.91,4.26,4.26,4.26s4.26-1.91,4.26-4.26-1.91-4.26-4.26-4.26l-.02-.05Z" style="fill:url(#linear-gradient-9);"/><path d="M68.59,65.15l-15.7-3.3c-.05-2.35-1.96-4.24-4.31-4.24s-4.32,1.94-4.32,4.32,1.94,4.32,4.32,4.32c1.79,0,3.33-1.09,3.99-2.65l15.79,3.32c.13,2.19,1.76,4.07,4.02,4.43,2.6.4,5.04-1.38,5.44-3.98.4-2.57-1.34-4.97-3.89-5.42l-.33-3.38c1.66-.54,2.87-2.09,2.87-3.93,0-2.29-1.86-4.15-4.15-4.15-1.72,0-3.19,1.04-3.82,2.53l-5.13-.95c-.11-2.19-1.32-4.07-3.09-5.14l1.76-3.75c.3.06.62.1.94.1,1.88,0,3.49-1.1,4.27-2.68l8.47,3.21c0,.08-.02.16-.02.25,0,2.29,1.86,4.15,4.15,4.15s4.15-1.86,4.15-4.15-1.86-4.15-4.15-4.15c-1.57,0-2.93.89-3.63,2.18l-8.5-3.22c0-.12.04-.23.04-.36,0-2.63-2.14-4.77-4.77-4.77s-4.77,2.14-4.77,4.77c0,1.67.87,3.14,2.17,3.99l-1.75,3.74c-.52-.14-1.06-.23-1.62-.23-3.53,0-6.39,2.86-6.39,6.39s2.86,6.39,6.39,6.39c3.03,0,5.55-2.11,6.21-4.93l4.97.92c.07,2.05,1.63,3.71,3.63,3.96l.31,3.24c-1.64.34-3,1.53-3.54,3.16h0Z" style="fill:url(#linear-gradient-10);"/><path d="M56.37,90.89c0-1.67-1.26-3.03-2.87-3.22l-3.84-7.56c.82-1.02,1.33-2.3,1.33-3.72,0-3.3-2.68-5.98-5.98-5.98-.97,0-1.88.25-2.69.67l-4.92-3.53c.18-.51.3-1.06.3-1.63,0-1.81-1-3.38-2.46-4.23l1.21-6.94c.26.02.5.08.77.08,4.82,0,8.73-3.91,8.73-8.73s-3.91-8.73-8.73-8.73-8.73,3.91-8.73,8.73c0,3.94,2.62,7.23,6.2,8.31l-1.17,6.67c-.24-.04-.48-.07-.73-.07-2.71,0-4.9,2.19-4.9,4.9s2.19,4.9,4.9,4.9c1.48,0,2.8-.67,3.7-1.72l4.28,3.07c-1.08,1.08-1.74,2.57-1.74,4.22,0,3.3,2.68,5.98,5.98,5.98,1.21,0,2.34-.37,3.28-.99l3.35,6.61c-1.07.54-1.8,1.63-1.8,2.9,0,1.8,1.46,3.26,3.26,3.26s3.26-1.46,3.26-3.26h.01Z" style="fill:url(#linear-gradient-11);"/></svg>