<?xml version="1.0" encoding="UTF-8"?><svg id="ART" xmlns="http://www.w3.org/2000/svg" xmlns:xlink="http://www.w3.org/1999/xlink" viewBox="0 0 504 125"><defs><style>.cls-1{fill:url(#linear-gradient);}.cls-2{fill:#fff;}.cls-3{fill:#22b9da;}.cls-4{fill:url(#linear-gradient-8);}.cls-5{fill:url(#linear-gradient-9);}.cls-6{fill:url(#linear-gradient-3);}.cls-7{fill:url(#linear-gradient-4);}.cls-8{fill:url(#linear-gradient-2);}.cls-9{fill:url(#linear-gradient-6);}.cls-10{fill:url(#linear-gradient-7);}.cls-11{fill:url(#linear-gradient-5);}.cls-12{fill:url(#linear-gradient-10);}.cls-13{fill:url(#linear-gradient-11);}</style><linearGradient id="linear-gradient" x1="357.05" y1="57.02" x2="79.65" y2="59.33" gradientUnits="userSpaceOnUse"><stop offset="0" stop-color="#22b9da"/><stop offset="1" stop-color="#096bb1"/></linearGradient><linearGradient id="linear-gradient-2" x1="41.34" y1="89.56" x2="114.66" y2="53.36" xlink:href="#linear-gradient"/><linearGradient id="linear-gradient-3" x1="44.28" y1="95.52" x2="117.6" y2="59.31" xlink:href="#linear-gradient"/><linearGradient id="linear-gradient-4" x1="32.18" y1="71.02" x2="105.5" y2="34.81" xlink:href="#linear-gradient"/><linearGradient id="linear-gradient-5" x1="32.55" y1="71.78" x2="105.88" y2="35.57" xlink:href="#linear-gradient"/><linearGradient id="linear-gradient-6" x1="33.12" y1="72.93" x2="106.45" y2="36.73" xlink:href="#linear-gradient"/><linearGradient id="linear-gradient-7" x1="118.32" y1="55.7" x2="46.5" y2="76.62" xlink:href="#linear-gradient"/><linearGradient id="linear-gradient-8" x1="122.34" y1="69.5" x2="50.52" y2="90.42" xlink:href="#linear-gradient"/><linearGradient id="linear-gradient-9" x1="112.68" y1="36.32" x2="40.86" y2="57.24" xlink:href="#linear-gradient"/><linearGradient id="linear-gradient-10" x1="114.02" y1="40.91" x2="42.19" y2="61.83" xlink:href="#linear-gradient"/><linearGradient id="linear-gradient-11" x1="115.58" y1="46.27" x2="43.75" y2="67.19" xlink:href="#linear-gradient"/></defs><path class="cls-3" d="m95.31,91.42l-2.78-6.05-5,6.05h-2.09l6.69-7.94h1.35l3.86,7.94h-2.04Z"/><path class="cls-3" d="m100.46,91.42c-1.61,0-2.26-.6-2.26-1.5,0-.14.02-.27.04-.42l.72-4.11c.2-1.14,1.04-1.92,2.89-1.92h6.56l-.25,1.43h-6.56c-.46,0-.73.15-.79.46l-.73,4.14s-.01.07-.01.09c0,.26.23.37.64.37h6.56l-.26,1.44h-6.56Z"/><path class="cls-3" d="m111.15,91.42c-1.61,0-2.26-.6-2.26-1.5,0-.14.02-.27.04-.42l.72-4.11c.2-1.14,1.04-1.92,2.89-1.92h6.56l-.25,1.43h-6.56c-.46,0-.73.15-.79.46l-.73,4.14s-.01.07-.01.09c0,.26.23.37.64.37h6.56l-.26,1.44h-6.56Z"/><path class="cls-3" d="m119.35,91.42l1.4-7.94h8.37l-.25,1.43h-6.53l-.28,1.59h6.18l-.26,1.44h-6.18l-.35,2.03h6.53l-.26,1.44h-8.37Z"/><path class="cls-3" d="m129.36,91.42l1.4-7.94h1.86l-1.14,6.5h6.29l-.26,1.44h-8.15Z"/><path class="cls-3" d="m138.92,91.42l1.4-7.94h8.37l-.25,1.43h-6.53l-.28,1.59h6.18l-.26,1.44h-6.18l-.35,2.03h6.53l-.26,1.44h-8.37Z"/><path class="cls-3" d="m156.39,91.42l-1.15-3.53h-3.84l-.62,3.53h-1.84l1.4-7.94h6.91c1.61,0,2.26.6,2.26,1.51,0,.12-.01.26-.03.41l-.1.57c-.17.95-.74,1.7-2.2,1.9l1.15,3.56h-1.93Zm1.24-6.05c0-.32-.15-.46-.63-.46h-5.07l-.27,1.55h5.07c.48,0,.72-.09.79-.47l.11-.61Z"/><path class="cls-3" d="m169.11,91.42l-2.78-6.05-5,6.05h-2.09l6.69-7.94h1.35l3.86,7.94h-2.04Z"/><path class="cls-3" d="m173.88,91.42l1.15-6.51h-4.1l.25-1.43h9.95l-.25,1.43h-4.01l-1.15,6.51h-1.85Z"/><path class="cls-3" d="m181.16,91.42l1.4-7.94h1.84l-1.4,7.94h-1.84Z"/><path class="cls-3" d="m194.78,91.42l-7.23-5.9-1.04,5.9h-1.6l1.4-7.94h1.59l6.59,5.53.98-5.53h1.61l-1.4,7.94h-.9Z"/><path class="cls-3" d="m200.07,91.42c-1.47,0-2.31-.46-2.31-1.46,0-.11.01-.24.03-.37l.72-4.13c.25-1.41,1.32-1.99,2.96-1.99h6.67l-.25,1.43h-6.68c-.58,0-.8.22-.86.55l-.72,4.12s-.01.05-.01.07c0,.25.33.33.7.33h4.21c.41,0,.75-.08.8-.37l.45-2.52h1.85l-.45,2.52c-.26,1.41-1.15,1.82-2.91,1.82h-4.2Z"/><path class="cls-3" d="m224.57,91.42l-7.23-5.9-1.04,5.9h-1.6l1.4-7.94h1.59l6.59,5.53.98-5.53h1.61l-1.4,7.94h-.9Z"/><path class="cls-3" d="m227.31,91.42l1.4-7.94h8.37l-.25,1.43h-6.53l-.28,1.59h6.18l-.26,1.44h-6.18l-.35,2.03h6.53l-.26,1.44h-8.37Z"/><path class="cls-3" d="m247.01,83.48h1.84l-1.06,6.03c-.2,1.14-1.04,1.92-2.89,1.92h-5.07c-1.61,0-2.26-.6-2.26-1.5,0-.14.02-.27.04-.42l1.06-6.03h1.84l-1.06,6.04s-.01.07-.01.09c0,.26.23.37.64.37h5.07c.46,0,.73-.14.79-.46l1.06-6.04Z"/><path class="cls-3" d="m256.7,91.42l-1.15-3.53h-3.84l-.62,3.53h-1.84l1.4-7.94h6.91c1.61,0,2.26.6,2.26,1.51,0,.12-.01.26-.03.41l-.1.57c-.17.95-.74,1.7-2.2,1.9l1.15,3.56h-1.93Zm1.24-6.05c0-.32-.15-.46-.63-.46h-5.07l-.27,1.55h5.07c.48,0,.72-.09.79-.47l.11-.61Z"/><path class="cls-3" d="m262.78,91.42c-1.61,0-2.26-.6-2.26-1.5,0-.14.02-.27.04-.42l.72-4.11c.2-1.14,1.04-1.92,2.89-1.92h5.38c1.61,0,2.25.6,2.25,1.5,0,.14-.01.27-.03.42l-.72,4.11c-.2,1.14-1.04,1.92-2.89,1.92h-5.38Zm7.17-6.05c0-.32-.15-.46-.63-.46h-5.38c-.46,0-.73.15-.79.46l-.73,4.14s-.01.07-.01.09c0,.26.23.37.64.37h5.38c.46,0,.73-.14.79-.46l.73-4.14Z"/><path class="cls-3" d="m283.19,91.42l.88-5.01-4.6,5.01h-1.51l-2.87-5-.88,5h-1.7l1.4-7.94h1.65l3.49,6.15,5.62-6.15h1.64l-1.4,7.94h-1.7Z"/><path class="cls-3" d="m289.22,91.42c-1.61,0-2.26-.6-2.26-1.5,0-.14.02-.27.04-.42l.72-4.11c.2-1.14,1.04-1.92,2.89-1.92h5.38c1.61,0,2.25.6,2.25,1.5,0,.14-.01.27-.03.42l-.72,4.11c-.2,1.14-1.04,1.92-2.89,1.92h-5.38Zm7.17-6.05c0-.32-.15-.46-.63-.46h-5.38c-.46,0-.73.15-.79.46l-.73,4.14s-.01.07-.01.09c0,.26.23.37.64.37h5.38c.46,0,.73-.14.79-.46l.73-4.14Z"/><path class="cls-3" d="m306.39,91.42l-1.15-3.53h-3.84l-.62,3.53h-1.84l1.4-7.94h6.91c1.61,0,2.26.6,2.26,1.51,0,.12-.01.26-.03.41l-.1.57c-.17.95-.75,1.7-2.2,1.9l1.15,3.56h-1.93Zm1.24-6.05c0-.32-.15-.46-.63-.46h-5.07l-.27,1.55h5.07c.48,0,.72-.09.79-.47l.11-.61Z"/><path class="cls-3" d="m312.33,88.54l-.51,2.88h-1.84l1.4-7.94h6.67c1.61,0,2.25.6,2.25,1.5,0,.14-.01.27-.03.42l-.21,1.23c-.2,1.14-1.04,1.92-2.89,1.92h-4.83Zm6.09-3.11s.01-.07.01-.1c0-.25-.15-.42-.46-.42h-5l-.38,2.19h5.01c.36,0,.55-.17.61-.46l.21-1.21Z"/><path class="cls-3" d="m328.51,91.42l.61-3.48h-6.05l-.61,3.48h-1.84l1.4-7.94h1.84l-.53,3.02h6.05l.53-3.02h1.85l-1.4,7.94h-1.85Z"/><path class="cls-3" d="m332.25,91.42l1.4-7.94h1.84l-1.4,7.94h-1.84Z"/><path class="cls-3" d="m338.49,91.42c-1.61,0-2.26-.6-2.26-1.5,0-.14.02-.27.04-.42l.72-4.11c.2-1.14,1.04-1.92,2.89-1.92h6.56l-.25,1.43h-6.56c-.46,0-.73.15-.79.46l-.73,4.14s-.01.07-.01.09c0,.26.23.37.64.37h6.56l-.26,1.44h-6.56Z"/><path class="cls-3" d="m355.27,91.42c-1.61,0-2.26-.6-2.26-1.5,0-.14.02-.27.04-.42l.72-4.11c.2-1.14,1.04-1.92,2.89-1.92h6.56l-.25,1.43h-6.56c-.46,0-.73.15-.79.46l-.73,4.14s-.01.07-.01.09c0,.26.23.37.64.37h6.56l-.26,1.44h-6.56Z"/><path class="cls-3" d="m365.96,91.42c-1.61,0-2.26-.6-2.26-1.5,0-.14.02-.27.04-.42l.72-4.11c.2-1.14,1.04-1.92,2.89-1.92h5.38c1.61,0,2.25.6,2.25,1.5,0,.14-.01.27-.03.42l-.72,4.11c-.2,1.14-1.04,1.92-2.89,1.92h-5.38Zm7.17-6.05c0-.32-.15-.46-.63-.46h-5.38c-.46,0-.73.15-.79.46l-.73,4.14s-.01.07-.01.09c0,.26.23.37.64.37h5.38c.46,0,.73-.14.79-.46l.73-4.14Z"/><path class="cls-3" d="m386.36,91.42l.88-5.01-4.6,5.01h-1.51l-2.87-5-.88,5h-1.7l1.4-7.94h1.65l3.49,6.15,5.62-6.15h1.64l-1.4,7.94h-1.7Z"/><path class="cls-3" d="m392.25,88.54l-.51,2.88h-1.84l1.4-7.94h6.67c1.61,0,2.25.6,2.25,1.5,0,.14-.01.27-.03.42l-.21,1.23c-.2,1.14-1.04,1.92-2.89,1.92h-4.83Zm6.09-3.11s.01-.07.01-.1c0-.25-.15-.42-.46-.42h-5l-.38,2.19h5.01c.36,0,.55-.17.61-.46l.21-1.21Z"/><path class="cls-3" d="m410.24,83.48h1.84l-1.06,6.03c-.2,1.14-1.04,1.92-2.89,1.92h-5.07c-1.61,0-2.26-.6-2.26-1.5,0-.14.02-.27.04-.42l1.06-6.03h1.84l-1.06,6.04s-.01.07-.01.09c0,.26.23.37.64.37h5.07c.46,0,.73-.14.79-.46l1.06-6.04Z"/><path class="cls-3" d="m416.1,91.42l1.15-6.51h-4.1l.25-1.43h9.95l-.25,1.43h-4.01l-1.15,6.51h-1.85Z"/><path class="cls-3" d="m423.38,91.42l1.4-7.94h1.84l-1.4,7.94h-1.84Z"/><path class="cls-3" d="m437,91.42l-7.23-5.9-1.04,5.9h-1.6l1.4-7.94h1.59l6.59,5.53.98-5.53h1.61l-1.4,7.94h-.9Z"/><path class="cls-3" d="m442.28,91.42c-1.47,0-2.31-.46-2.31-1.46,0-.11.01-.24.03-.37l.72-4.13c.25-1.41,1.32-1.99,2.96-1.99h6.67l-.25,1.43h-6.68c-.58,0-.8.22-.86.55l-.72,4.12s-.01.05-.01.07c0,.25.33.33.7.33h4.21c.41,0,.75-.08.8-.37l.45-2.52h1.85l-.45,2.52c-.26,1.41-1.15,1.82-2.91,1.82h-4.2Z"/><polygon class="cls-1" points="451.94 77.04 54.12 77.04 64.98 58.55 58.35 38.69 458.6 38.69 470.01 57.98 451.94 77.04"/><path class="cls-2" d="m130.22,69.29l.73-4.06h19.85c1.46,0,2.06-.25,2.25-1.33l.57-3.2c0-.1.03-.22.03-.32,0-.76-.57-1.05-1.84-1.05h-13.35c-4.57,0-6.37-1.65-6.37-4.25,0-.35.06-.76.13-1.17l.25-1.52c.54-3.23,2.98-5.42,8.18-5.42h19.31l-.7,4.03h-19.31c-1.36,0-2.12.35-2.31,1.36l-.29,1.58c-.03.1-.03.22-.03.32,0,.73.57,1.05,1.87,1.05h13.35c4.57,0,6.37,1.68,6.37,4.25,0,.38-.03.76-.09,1.17l-.57,3.11c-.6,3.23-2.95,5.45-8.18,5.45h-19.85Z"/><path class="cls-2" d="m189.03,46.97h5.17l-2.98,16.93c-.57,3.2-2.92,5.39-8.12,5.39h-14.23c-4.53,0-6.34-1.68-6.34-4.22,0-.38.06-.76.13-1.17l2.98-16.93h5.17l-2.98,16.96c-.03.09-.03.19-.03.25,0,.73.63,1.05,1.81,1.05h14.23c1.3,0,2.06-.38,2.22-1.3l2.98-16.96Z"/><path class="cls-2" d="m201.93,61.2l-1.43,8.08h-5.17l3.93-22.32h18.74c4.53,0,6.31,1.68,6.31,4.22,0,.38-.03.76-.09,1.17l-.6,3.46c-.57,3.2-2.92,5.39-8.12,5.39h-13.57Zm17.12-8.75c0-.09.03-.19.03-.29,0-.7-.41-1.17-1.3-1.17h-14.05l-1.08,6.15h14.08c1.01,0,1.55-.47,1.71-1.3l.6-3.39Z"/><path class="cls-2" d="m225.26,69.29l3.93-22.32h23.52l-.7,4.03h-18.36l-.79,4.47h17.37l-.73,4.06h-17.37l-.98,5.71h18.36l-.73,4.06h-23.52Z"/><path class="cls-2" d="m274.33,69.29l-3.23-9.92h-10.78l-1.74,9.92h-5.17l3.93-22.32h19.4c4.53,0,6.34,1.68,6.34,4.25,0,.35-.03.73-.1,1.14l-.29,1.62c-.47,2.66-2.09,4.79-6.18,5.33l3.23,9.99h-5.42Zm3.49-16.99c0-.89-.41-1.3-1.78-1.3h-14.23l-.76,4.34h14.23c1.36,0,2.03-.25,2.22-1.33l.32-1.71Z"/><path class="cls-2" d="m312.18,69.29l-20.32-16.58-2.92,16.58h-4.5l3.93-22.32h4.47l18.52,15.54,2.76-15.54h4.53l-3.93,22.32h-2.54Z"/><path class="cls-2" d="m319.88,69.29l3.93-22.32h23.52l-.7,4.03h-18.36l-.79,4.47h17.37l-.73,4.06h-17.37l-.98,5.71h18.36l-.73,4.06h-23.52Z"/><path class="cls-2" d="m375.27,46.97h5.17l-2.98,16.93c-.57,3.2-2.92,5.39-8.12,5.39h-14.23c-4.53,0-6.34-1.68-6.34-4.22,0-.38.06-.76.13-1.17l2.98-16.93h5.17l-2.98,16.96c-.03.09-.03.19-.03.25,0,.73.63,1.05,1.81,1.05h14.23c1.3,0,2.06-.38,2.22-1.3l2.98-16.96Z"/><path class="cls-2" d="m402.5,69.29l-3.23-9.92h-10.78l-1.74,9.92h-5.17l3.93-22.32h19.4c4.53,0,6.34,1.68,6.34,4.25,0,.35-.03.73-.1,1.14l-.29,1.62c-.47,2.66-2.09,4.79-6.18,5.33l3.23,9.99h-5.42Zm3.49-16.99c0-.89-.41-1.3-1.78-1.3h-14.23l-.76,4.34h14.23c1.36,0,2.03-.25,2.22-1.33l.32-1.71Z"/><path class="cls-2" d="m419.62,69.29c-4.53,0-6.34-1.68-6.34-4.22,0-.38.06-.76.13-1.17l2.03-11.54c.57-3.2,2.92-5.39,8.12-5.39h15.12c4.53,0,6.31,1.68,6.31,4.22,0,.38-.03.76-.09,1.17l-2.03,11.54c-.57,3.2-2.92,5.39-8.12,5.39h-15.12Zm20.13-16.99c0-.89-.41-1.3-1.78-1.3h-15.12c-1.3,0-2.06.41-2.22,1.3l-2.06,11.64c-.03.09-.03.19-.03.25,0,.73.63,1.05,1.81,1.05h15.12c1.3,0,2.06-.38,2.22-1.3l2.06-11.64Z"/><path class="cls-2" d="m117.85,43.82l-34.55-11.92-40.54,11.92-3.97,15.04,9.35,13.76,6.52,10.76s5.01,7.88,5.59,7.69,19.6-12.2,19.6-12.2c0,0,17.33-13.56,19.21-13.93s12.3-5.76,12.3-5.76l6.5-2.11v-13.24Z"/><path class="cls-8" d="m106.58,58.93c-.5,0-.97.08-1.43.2l-1.74-4.97c1.3-.75,2.18-2.14,2.18-3.74,0-2.4-1.94-4.34-4.34-4.34s-4.34,1.94-4.34,4.34,1.94,4.34,4.34,4.34c.22,0,.43-.03.64-.06l1.77,5.07c-1.1.67-1.94,1.69-2.38,2.92l-6.53-2.6c.04-.27.08-.54.08-.82,0-3.54-2.87-6.41-6.41-6.41s-6.41,2.87-6.41,6.41,2.87,6.41,6.41,6.41c.71,0,1.38-.14,2.02-.36.55,1.31,1.1,2.66,1.61,3.89-1.23.78-2.05,2.14-2.05,3.7,0,2.42,1.96,4.38,4.38,4.38s4.38-1.96,4.38-4.38-1.96-4.38-4.38-4.38c-.28,0-.55.03-.82.08-.51-1.26-1.09-2.64-1.64-3.98,1.09-.71,1.94-1.74,2.44-2.96l6.61,2.63c0,.09-.03.18-.03.27,0,3.12,2.53,5.65,5.65,5.65s5.65-2.53,5.65-5.65-2.53-5.65-5.65-5.65Z"/><path class="cls-2" d="m101.25,46.07c2.4,0,4.34,1.94,4.34,4.34,0,1.61-.88,2.99-2.18,3.74l1.74,4.97c.46-.12.93-.2,1.43-.2,3.12,0,5.65,2.53,5.65,5.65s-2.53,5.65-5.65,5.65-5.65-2.53-5.65-5.65c0-.09.02-.18.03-.27l-6.61-2.63c-.5,1.22-1.35,2.25-2.44,2.96.56,1.34,1.13,2.72,1.64,3.98.27-.05.54-.08.82-.08,2.42,0,4.38,1.96,4.38,4.38s-1.96,4.38-4.38,4.38-4.38-1.96-4.38-4.38c0-1.56.82-2.92,2.05-3.7-.5-1.23-1.06-2.57-1.61-3.89-.64.21-1.31.36-2.02.36-3.54,0-6.41-2.87-6.41-6.41s2.87-6.41,6.41-6.41,6.41,2.87,6.41,6.41c0,.28-.05.55-.08.82l6.53,2.6c.44-1.23,1.28-2.26,2.38-2.92l-1.77-5.07c-.21.03-.42.06-.64.06-2.4,0-4.34-1.94-4.34-4.34s1.94-4.34,4.34-4.34m0-3.24c-4.18,0-7.58,3.4-7.58,7.58,0,.26.01.52.04.78-1.52-1-3.33-1.58-5.28-1.58-5.32,0-9.65,4.33-9.65,9.65s4.05,9.36,9.12,9.63c-.73,1.18-1.14,2.56-1.14,4,0,4.2,3.42,7.62,7.62,7.62s7.62-3.42,7.62-7.62c0-.25-.01-.49-.04-.74,1.35.82,2.93,1.3,4.62,1.3,4.9,0,8.89-3.99,8.89-8.89,0-4.63-3.55-8.44-8.07-8.85l-.21-.61c1.05-1.32,1.65-2.97,1.65-4.7,0-4.18-3.4-7.58-7.58-7.58h0Zm-3.28,15.05c-.03-.23-.08-.46-.13-.69.53.27,1.1.48,1.7.61l.29.82-1.86-.74h0Z"/><path class="cls-6" d="m80,70.77c-3.74,0-6.77,3.03-6.77,6.77,0,1.61.58,3.06,1.52,4.23l-4.18,4.28c-.56-.34-1.21-.55-1.92-.55-.33,0-.65.06-.96.14l-1.85-3.5c1.66-.92,2.8-2.68,2.8-4.71,0-2.99-2.42-5.41-5.41-5.41s-5.41,2.42-5.41,5.41c0,1.91,1,3.58,2.49,4.55l-2.21,13.59c-1.93.12-3.46,1.7-3.46,3.66s1.65,3.68,3.68,3.68,3.68-1.65,3.68-3.68c0-1.55-.96-2.87-2.31-3.41l2.15-13.18c.45.12.9.2,1.39.2.37,0,.74-.04,1.09-.11l1.94,3.67c-.79.68-1.3,1.67-1.3,2.78,0,2.03,1.65,3.68,3.68,3.68s3.68-1.65,3.68-3.68c0-.74-.22-1.43-.6-2l4.17-4.28c1.14.87,2.55,1.41,4.09,1.41,3.74,0,6.77-3.03,6.77-6.77s-3.03-6.77-6.77-6.77Z"/><path class="cls-2" d="m80,70.77c3.74,0,6.77,3.03,6.77,6.77s-3.03,6.77-6.77,6.77c-1.55,0-2.95-.54-4.09-1.41l-4.17,4.28c.38.58.6,1.26.6,2,0,2.03-1.65,3.68-3.68,3.68s-3.68-1.65-3.68-3.68c0-1.12.51-2.11,1.3-2.78l-1.94-3.67c-.35.07-.71.11-1.09.11-.48,0-.94-.08-1.39-.2l-2.15,13.18c1.35.55,2.31,1.87,2.31,3.41,0,2.03-1.65,3.68-3.68,3.68s-3.68-1.65-3.68-3.68,1.53-3.54,3.46-3.66l2.21-13.59c-1.5-.96-2.49-2.63-2.49-4.55,0-2.99,2.42-5.41,5.41-5.41s5.41,2.42,5.41,5.41c0,2.04-1.14,3.79-2.8,4.71l1.85,3.5c.31-.08.62-.14.96-.14.71,0,1.36.21,1.92.55l4.18-4.28c-.94-1.16-1.52-2.62-1.52-4.23,0-3.74,3.03-6.77,6.77-6.77m0-3.24c-4.04,0-7.53,2.4-9.11,5.86-1.45-2.74-4.34-4.61-7.65-4.61-4.77,0-8.65,3.88-8.65,8.65,0,2.18.81,4.24,2.25,5.81l-1.6,9.82c-2.28,1.14-3.83,3.49-3.83,6.18,0,3.82,3.11,6.92,6.92,6.92s6.92-3.11,6.92-6.92c0-1.88-.75-3.62-2.02-4.89l.12-.71c1.27,1.52,3.18,2.48,5.31,2.48,3.82,0,6.92-3.11,6.92-6.92,0-.4-.04-.8-.1-1.2l1.04-1.07c1.11.42,2.28.63,3.48.63,5.52,0,10.01-4.49,10.01-10.01s-4.49-10.01-10.01-10.01h0Z"/><path class="cls-7" d="m119.57,52.38c-.42,0-.81.08-1.18.2l-2.23-5.17c1.02-.87,1.69-2.14,1.69-3.59,0-2.61-2.12-4.73-4.73-4.73-1.03,0-1.97.34-2.75.9l-4.2-2.27c.48-.81.78-1.75.78-2.76,0-2.99-2.42-5.41-5.41-5.41-2.24,0-4.16,1.36-4.98,3.31l-5.6-2.56c.03-.22.07-.44.07-.66,0-3.22-2.61-5.84-5.84-5.84s-5.84,2.61-5.84,5.84,2.61,5.84,5.84,5.84c.47,0,.92-.07,1.35-.17l2.53,6.3c-.14.1-.27.2-.39.32l-14.98-9.21c.23-.68.38-1.39.38-2.14,0-3.71-3.01-6.72-6.72-6.72s-6.6,2.91-6.7,6.53l-6.51,1.4c-.75-1.2-2.08-2.01-3.6-2.01-2.35,0-4.25,1.9-4.25,4.25s1.9,4.25,4.25,4.25,4.25-1.9,4.25-4.25c0-.24-.03-.48-.07-.71l6.07-1.31c.66,3.02,3.34,5.29,6.56,5.29,2.38,0,4.46-1.24,5.65-3.11l14.83,9.12c-.1.32-.17.65-.17,1.01,0,1.85,1.5,3.36,3.36,3.36s3.36-1.5,3.36-3.36-1.5-3.36-3.36-3.36c-.16,0-.3.03-.45.05l-2.53-6.31c1.12-.63,2.02-1.6,2.53-2.8l5.61,2.56c-.02.16-.05.32-.05.49,0,2.99,2.42,5.41,5.41,5.41,1.38,0,2.62-.53,3.58-1.38l4.08,2.21c-.5.75-.8,1.65-.8,2.63,0,2.61,2.12,4.73,4.73,4.73.58,0,1.12-.12,1.63-.31l2.22,5.16c-.77.71-1.27,1.71-1.27,2.84,0,2.13,1.73,3.86,3.86,3.86s3.86-1.73,3.86-3.86-1.73-3.86-3.86-3.86Z"/><path class="cls-2" d="m85.19,23.8c3.22,0,5.84,2.61,5.84,5.84,0,.23-.04.44-.07.66l5.6,2.56c.82-1.94,2.74-3.31,4.98-3.31,2.99,0,5.41,2.42,5.41,5.41,0,1.01-.3,1.95-.78,2.76l4.2,2.27c.78-.56,1.72-.9,2.75-.9,2.61,0,4.73,2.12,4.73,4.73,0,1.45-.66,2.72-1.69,3.59l2.23,5.17c.37-.12.77-.2,1.18-.2,2.13,0,3.86,1.73,3.86,3.86s-1.73,3.86-3.86,3.86-3.86-1.73-3.86-3.86c0-1.13.49-2.14,1.27-2.84l-2.22-5.16c-.51.19-1.06.31-1.63.31-2.61,0-4.73-2.12-4.73-4.73,0-.97.29-1.87.8-2.63l-4.08-2.21c-.95.85-2.2,1.38-3.58,1.38-2.99,0-5.41-2.42-5.41-5.41,0-.17.03-.33.05-.49l-5.61-2.56c-.5,1.19-1.41,2.16-2.53,2.8l2.53,6.31c.15-.02.3-.05.45-.05,1.85,0,3.36,1.5,3.36,3.36s-1.5,3.36-3.36,3.36-3.36-1.5-3.36-3.36c0-.35.07-.69.17-1.01l-14.83-9.12c-1.19,1.86-3.27,3.11-5.65,3.11-3.22,0-5.91-2.27-6.56-5.29l-6.07,1.31c.04.23.07.47.07.71,0,2.35-1.9,4.25-4.25,4.25s-4.25-1.9-4.25-4.25,1.9-4.25,4.25-4.25c1.52,0,2.85.81,3.6,2.01l6.51-1.4c.11-3.62,3.06-6.53,6.7-6.53s6.72,3.01,6.72,6.72c0,.75-.15,1.46-.38,2.14l14.98,9.21c.12-.12.25-.22.39-.32l-2.53-6.3c-.44.1-.89.17-1.35.17-3.22,0-5.84-2.61-5.84-5.84s2.61-5.84,5.84-5.84m0-3.24c-4.01,0-7.42,2.62-8.62,6.23-1.49-3.62-5.06-6.17-9.21-6.17-4.51,0-8.29,2.94-9.52,7.06l-2.56.55c-1.32-1.08-2.98-1.69-4.74-1.69-4.13,0-7.49,3.36-7.49,7.49s3.36,7.49,7.49,7.49c3.46,0,6.38-2.35,7.24-5.54l1.07-.23c1.77,2.9,4.98,4.8,8.51,4.8,2.3,0,4.49-.79,6.23-2.19l10.89,6.69c.36,3.3,3.16,5.87,6.56,5.87,3.64,0,6.6-2.96,6.6-6.6,0-.62-.09-1.22-.24-1.78,1.24.68,2.65,1.07,4.16,1.07,1.28,0,2.54-.29,3.68-.84-.05.35-.07.7-.07,1.05,0,4.27,3.37,7.76,7.6,7.96l.52,1.21c-.52,1-.8,2.12-.8,3.26,0,3.92,3.19,7.1,7.1,7.1s7.1-3.19,7.1-7.1c0-3.62-2.72-6.61-6.22-7.05l-.54-1.25c.76-1.23,1.17-2.65,1.17-4.12,0-4.39-3.57-7.97-7.97-7.97-.93,0-1.84.16-2.7.48l-.32-.17c.06-.4.09-.8.09-1.2,0-4.77-3.88-8.65-8.65-8.65-2.32,0-4.49.92-6.07,2.49l-1.31-.6c-.69-4.32-4.45-7.64-8.96-7.64h0Zm7.66,17.42l-.72-1.8.92.42c.11.56.27,1.1.48,1.62-.22-.09-.45-.17-.68-.24h0Z"/><path class="cls-11" d="m68.33,65.75l-14.22-2.99c-.04-2.13-1.77-3.84-3.91-3.84s-3.91,1.75-3.91,3.91,1.75,3.91,3.91,3.91c1.63,0,3.02-.99,3.61-2.4l14.3,3c.12,1.99,1.6,3.69,3.64,4.01,2.36.37,4.56-1.25,4.93-3.6.36-2.33-1.21-4.5-3.52-4.91l-.3-3.06c1.51-.49,2.6-1.89,2.6-3.56,0-2.08-1.68-3.76-3.76-3.76-1.56,0-2.89.95-3.46,2.29l-4.65-.86c-.1-1.98-1.19-3.69-2.8-4.65l1.59-3.4c.28.06.56.09.85.09,1.7,0,3.16-.99,3.87-2.43l7.67,2.91c0,.08-.02.15-.02.22,0,2.08,1.68,3.76,3.76,3.76s3.76-1.68,3.76-3.76-1.68-3.76-3.76-3.76c-1.43,0-2.65.8-3.29,1.97l-7.7-2.92c0-.11.03-.21.03-.32,0-2.39-1.93-4.32-4.32-4.32s-4.32,1.93-4.32,4.32c0,1.52.79,2.85,1.97,3.62l-1.59,3.39c-.47-.12-.96-.21-1.47-.21-3.2,0-5.79,2.59-5.79,5.79s2.59,5.79,5.79,5.79c2.74,0,5.02-1.91,5.62-4.47l4.5.83c.06,1.86,1.48,3.36,3.29,3.58l.28,2.93c-1.48.31-2.72,1.39-3.21,2.86Z"/><path class="cls-2" d="m63.24,37.3c2.39,0,4.32,1.93,4.32,4.32,0,.11-.02.21-.03.32l7.7,2.92c.64-1.17,1.86-1.97,3.29-1.97,2.08,0,3.76,1.68,3.76,3.76s-1.68,3.76-3.76,3.76-3.76-1.68-3.76-3.76c0-.08.02-.15.02-.22l-7.67-2.91c-.7,1.43-2.16,2.43-3.87,2.43-.29,0-.58-.03-.85-.09l-1.59,3.4c1.6.96,2.69,2.67,2.8,4.65l4.65.86c.57-1.35,1.91-2.29,3.46-2.29,2.08,0,3.76,1.68,3.76,3.76,0,1.67-1.1,3.07-2.6,3.56l.3,3.06c2.31.41,3.88,2.58,3.52,4.91-.33,2.13-2.17,3.66-4.26,3.66-.22,0-.44-.02-.67-.05-2.05-.32-3.53-2.02-3.64-4.01l-14.3-3c-.59,1.41-1.99,2.4-3.61,2.4-2.16,0-3.91-1.75-3.91-3.91s1.75-3.91,3.91-3.91,3.86,1.71,3.91,3.84l14.22,2.99c.49-1.48,1.72-2.55,3.21-2.86l-.28-2.93c-1.82-.22-3.23-1.72-3.29-3.58l-4.5-.83c-.6,2.56-2.88,4.47-5.62,4.47-3.2,0-5.79-2.59-5.79-5.79s2.59-5.79,5.79-5.79c.51,0,1,.09,1.47.21l1.59-3.39c-1.18-.77-1.97-2.1-1.97-3.62,0-2.39,1.93-4.32,4.32-4.32m0-3.24c-4.17,0-7.56,3.39-7.56,7.56,0,1.29.33,2.54.93,3.63-4.41.6-7.81,4.38-7.81,8.95,0,.54.05,1.07.14,1.59-3.35.59-5.9,3.53-5.9,7.04,0,3.95,3.21,7.15,7.15,7.15,1.91,0,3.69-.75,5-2.04l10.3,2.16c1.02,2.31,3.17,4.05,5.76,4.45.39.06.78.09,1.17.09,3.75,0,6.89-2.69,7.46-6.4.45-2.87-.83-5.65-3.05-7.27,1.18-1.26,1.87-2.94,1.87-4.75,0-.91-.18-1.79-.5-2.59.1,0,.21,0,.32,0,3.86,0,7-3.14,7-7s-3.14-7-7-7c-1.54,0-3,.51-4.19,1.41l-3.8-1.44c-.88-3.2-3.82-5.56-7.29-5.56h0Zm1.9,14.88c1.11-.29,2.14-.82,3-1.57l3.71,1.41c.05.16.11.31.17.46-.1,0-.21,0-.32,0-1.86,0-3.6.73-4.88,1.98l-.53-.1c-.28-.77-.67-1.5-1.15-2.17h0Zm-1.83,12.44c.79-.61,1.49-1.35,2.04-2.2.44.94,1.08,1.77,1.87,2.43-.17.16-.32.32-.48.49l-3.44-.72h0Z"/><path class="cls-9" d="m57.26,89.07c0-1.51-1.14-2.74-2.6-2.92l-3.48-6.85c.74-.93,1.21-2.09,1.21-3.37,0-2.99-2.42-5.41-5.41-5.41-.88,0-1.7.23-2.44.6l-4.45-3.19c.17-.46.27-.96.27-1.48,0-1.64-.9-3.06-2.23-3.83l1.1-6.28c.23.02.46.07.69.07,4.37,0,7.9-3.54,7.9-7.9s-3.54-7.9-7.9-7.9-7.9,3.54-7.9,7.9c0,3.57,2.38,6.54,5.62,7.53l-1.06,6.04c-.22-.03-.43-.07-.66-.07-2.45,0-4.44,1.99-4.44,4.44s1.99,4.44,4.44,4.44c1.34,0,2.53-.61,3.35-1.55l3.87,2.78c-.97.98-1.58,2.33-1.58,3.82,0,2.99,2.42,5.41,5.41,5.41,1.1,0,2.12-.33,2.97-.9l3.04,5.98c-.97.49-1.63,1.47-1.63,2.63,0,1.63,1.32,2.95,2.95,2.95s2.95-1.32,2.95-2.95Z"/><path class="cls-2" d="m39.92,40.6c4.37,0,7.9,3.54,7.9,7.9s-3.54,7.9-7.9,7.9c-.24,0-.46-.05-.69-.07l-1.1,6.28c1.33.77,2.23,2.19,2.23,3.83,0,.52-.11,1.01-.27,1.48l4.45,3.19c.73-.37,1.55-.6,2.44-.6,2.99,0,5.41,2.42,5.41,5.41,0,1.28-.46,2.44-1.21,3.37l3.48,6.85c1.46.18,2.6,1.41,2.6,2.92,0,1.63-1.32,2.95-2.95,2.95s-2.95-1.32-2.95-2.95c0-1.15.67-2.14,1.63-2.63l-3.04-5.98c-.85.56-1.87.9-2.97.9-2.99,0-5.41-2.42-5.41-5.41,0-1.49.6-2.84,1.58-3.82l-3.87-2.78c-.81.94-2,1.55-3.35,1.55-2.45,0-4.44-1.99-4.44-4.44s1.99-4.44,4.44-4.44c.23,0,.44.03.66.07l1.06-6.04c-3.24-.99-5.62-3.96-5.62-7.53,0-4.37,3.54-7.9,7.9-7.9m0-3.24c-6.15,0-11.14,5-11.14,11.14,0,3.92,2.02,7.43,5.24,9.42l-.2,1.14c-3.21.92-5.57,3.88-5.57,7.39,0,4.23,3.44,7.68,7.68,7.68.94,0,1.85-.17,2.71-.5-.2.74-.31,1.52-.31,2.3,0,4.77,3.88,8.65,8.65,8.65.47,0,.93-.04,1.38-.11l.68,1.34c-.59.96-.92,2.08-.92,3.25,0,3.41,2.78,6.19,6.19,6.19s6.19-2.78,6.19-6.19c0-2.45-1.44-4.6-3.57-5.59l-2.05-4.04c.49-1.09.75-2.27.75-3.49,0-4.77-3.88-8.65-8.65-8.65-.65,0-1.29.08-1.92.22l-1.45-1.04s0,0,0,0c0-1.9-.72-3.71-1.96-5.1l.33-1.89c5.17-.96,9.1-5.51,9.1-10.96,0-6.15-5-11.14-11.14-11.14h0Z"/><path class="cls-10" d="m106.58,58.93c-.5,0-.97.08-1.43.2l-1.74-4.97c1.3-.75,2.18-2.14,2.18-3.74,0-2.4-1.94-4.34-4.34-4.34s-4.34,1.94-4.34,4.34,1.94,4.34,4.34,4.34c.22,0,.43-.03.64-.06l1.77,5.07c-1.1.67-1.94,1.69-2.38,2.92l-6.53-2.6c.04-.27.08-.54.08-.82,0-3.54-2.87-6.41-6.41-6.41s-6.41,2.87-6.41,6.41,2.87,6.41,6.41,6.41c.71,0,1.38-.14,2.02-.36.55,1.31,1.1,2.66,1.61,3.89-1.23.78-2.05,2.14-2.05,3.7,0,2.42,1.96,4.38,4.38,4.38s4.38-1.96,4.38-4.38-1.96-4.38-4.38-4.38c-.28,0-.55.03-.82.08-.51-1.26-1.09-2.64-1.64-3.98,1.09-.71,1.94-1.74,2.44-2.96l6.61,2.63c0,.09-.03.18-.03.27,0,3.12,2.53,5.65,5.65,5.65s5.65-2.53,5.65-5.65-2.53-5.65-5.65-5.65Z"/><path class="cls-4" d="m80,70.77c-3.74,0-6.77,3.03-6.77,6.77,0,1.61.58,3.06,1.52,4.23l-4.18,4.28c-.56-.34-1.21-.55-1.92-.55-.33,0-.65.06-.96.14l-1.85-3.5c1.66-.92,2.8-2.68,2.8-4.71,0-2.99-2.42-5.41-5.41-5.41s-5.41,2.42-5.41,5.41c0,1.91,1,3.58,2.49,4.55l-2.21,13.59c-1.93.12-3.46,1.7-3.46,3.66s1.65,3.68,3.68,3.68,3.68-1.65,3.68-3.68c0-1.55-.96-2.87-2.31-3.41l2.15-13.18c.45.12.9.2,1.39.2.37,0,.74-.04,1.09-.11l1.94,3.67c-.79.68-1.3,1.67-1.3,2.78,0,2.03,1.65,3.68,3.68,3.68s3.68-1.65,3.68-3.68c0-.74-.22-1.43-.6-2l4.17-4.28c1.14.87,2.55,1.41,4.09,1.41,3.74,0,6.77-3.03,6.77-6.77s-3.03-6.77-6.77-6.77Z"/><path class="cls-5" d="m119.57,52.38c-.42,0-.81.08-1.18.2l-2.23-5.17c1.02-.87,1.69-2.14,1.69-3.59,0-2.61-2.12-4.73-4.73-4.73-1.03,0-1.97.34-2.75.9l-4.2-2.27c.48-.81.78-1.75.78-2.76,0-2.99-2.42-5.41-5.41-5.41-2.24,0-4.16,1.36-4.98,3.31l-5.6-2.56c.03-.22.07-.44.07-.66,0-3.22-2.61-5.84-5.84-5.84s-5.84,2.61-5.84,5.84,2.61,5.84,5.84,5.84c.47,0,.92-.07,1.35-.17l2.53,6.3c-.14.1-.27.2-.39.32l-14.98-9.21c.23-.68.38-1.39.38-2.14,0-3.71-3.01-6.72-6.72-6.72s-6.6,2.91-6.7,6.53l-6.51,1.4c-.75-1.2-2.08-2.01-3.6-2.01-2.35,0-4.25,1.9-4.25,4.25s1.9,4.25,4.25,4.25,4.25-1.9,4.25-4.25c0-.24-.03-.48-.07-.71l6.07-1.31c.66,3.02,3.34,5.29,6.56,5.29,2.38,0,4.46-1.24,5.65-3.11l14.83,9.12c-.1.32-.17.65-.17,1.01,0,1.85,1.5,3.36,3.36,3.36s3.36-1.5,3.36-3.36-1.5-3.36-3.36-3.36c-.16,0-.3.03-.45.05l-2.53-6.31c1.12-.63,2.02-1.6,2.53-2.8l5.61,2.56c-.02.16-.05.32-.05.49,0,2.99,2.42,5.41,5.41,5.41,1.38,0,2.62-.53,3.58-1.38l4.08,2.21c-.5.75-.8,1.65-.8,2.63,0,2.61,2.12,4.73,4.73,4.73.58,0,1.12-.12,1.63-.31l2.22,5.16c-.77.71-1.27,1.71-1.27,2.84,0,2.13,1.73,3.86,3.86,3.86s3.86-1.73,3.86-3.86-1.73-3.86-3.86-3.86Z"/><path class="cls-12" d="m68.33,65.75l-14.22-2.99c-.04-2.13-1.77-3.84-3.91-3.84s-3.91,1.75-3.91,3.91,1.75,3.91,3.91,3.91c1.63,0,3.02-.99,3.61-2.4l14.3,3c.12,1.99,1.6,3.69,3.64,4.01,2.36.37,4.56-1.25,4.93-3.6.36-2.33-1.21-4.5-3.52-4.91l-.3-3.06c1.51-.49,2.6-1.89,2.6-3.56,0-2.08-1.68-3.76-3.76-3.76-1.56,0-2.89.95-3.46,2.29l-4.65-.86c-.1-1.98-1.19-3.69-2.8-4.65l1.59-3.4c.28.06.56.09.85.09,1.7,0,3.16-.99,3.87-2.43l7.67,2.91c0,.08-.02.15-.02.22,0,2.08,1.68,3.76,3.76,3.76s3.76-1.68,3.76-3.76-1.68-3.76-3.76-3.76c-1.43,0-2.65.8-3.29,1.97l-7.7-2.92c0-.11.03-.21.03-.32,0-2.39-1.93-4.32-4.32-4.32s-4.32,1.93-4.32,4.32c0,1.52.79,2.85,1.97,3.62l-1.59,3.39c-.47-.12-.96-.21-1.47-.21-3.2,0-5.79,2.59-5.79,5.79s2.59,5.79,5.79,5.79c2.74,0,5.02-1.91,5.62-4.47l4.5.83c.06,1.86,1.48,3.36,3.29,3.58l.28,2.93c-1.48.31-2.72,1.39-3.21,2.86Z"/><path class="cls-13" d="m57.26,89.07c0-1.51-1.14-2.74-2.6-2.92l-3.48-6.85c.74-.93,1.21-2.09,1.21-3.37,0-2.99-2.42-5.41-5.41-5.41-.88,0-1.7.23-2.44.6l-4.45-3.19c.17-.46.27-.96.27-1.48,0-1.64-.9-3.06-2.23-3.83l1.1-6.28c.23.02.46.07.69.07,4.37,0,7.9-3.54,7.9-7.9s-3.54-7.9-7.9-7.9-7.9,3.54-7.9,7.9c0,3.57,2.38,6.54,5.62,7.53l-1.06,6.04c-.22-.03-.43-.07-.66-.07-2.45,0-4.44,1.99-4.44,4.44s1.99,4.44,4.44,4.44c1.34,0,2.53-.61,3.35-1.55l3.87,2.78c-.97.98-1.58,2.33-1.58,3.82,0,2.99,2.42,5.41,5.41,5.41,1.1,0,2.12-.33,2.97-.9l3.04,5.98c-.97.49-1.63,1.47-1.63,2.63,0,1.63,1.32,2.95,2.95,2.95s2.95-1.32,2.95-2.95Z"/></svg>