<?xml version="1.0" encoding="UTF-8"?><svg id="ART" xmlns="http://www.w3.org/2000/svg" viewBox="0 0 476.69 280.16"><path d="M369.97,202.1h-12.98l-.69,3.96h12.98c1.24,0,1.85-.23,2.02-1.21l.29-1.56c0-.81-.38-1.19-1.62-1.19Z" style="fill:#fff;"/><path d="M200.04,202.1h-12.81l-.98,5.61h12.84c.93,0,1.42-.43,1.56-1.19l.55-3.09c0-.09.03-.17.03-.26,0-.64-.37-1.07-1.19-1.07Z" style="fill:#fff;"/><path d="M253.15,202.1h-12.98l-.7,3.96h12.98c1.24,0,1.85-.23,2.02-1.21l.29-1.56c0-.81-.38-1.19-1.62-1.19h0Z" style="fill:#fff;"/><path d="M400.75,202.1h-13.79c-1.19,0-1.88.38-2.02,1.19l-1.88,10.61c-.03.09-.03.17-.03.23,0,.67.58.95,1.65.95h13.79c1.19,0,1.88-.35,2.02-1.19l1.88-10.61c0-.81-.38-1.19-1.62-1.19h0Z" style="fill:#fff;"/><path d="M419.54,190.89H113.11c-6.21,0-32.08.95-32.08,1.94,0,1.07,14.38,1.94,14.38,1.94,0,0,13.82.91,13.82,2.01-.1,1.52-49.65,2.97-49.65,3.82,0,1.03,55.88,2.19,55.73,3.93-.12,2.3-68.56,2.89-68.56,3.84s65.57,1.6,65.57,3.99c0,1.09-16.11,1.85-17.45,1.85,0,0-41.03.93-41.03,1.93,0,.84,48.91,2.12,48.94,4.33,0,1.6-34.08,2.37-34.08,3.44s22.61,1.94,28.84,1.94h315.94l16.47-17.38-10.4-17.59h0ZM146.7,202.1h-17.61c-1.24,0-1.94.32-2.11,1.24l-.26,1.45c-.03.09-.03.2-.03.29,0,.66.52.95,1.7.95h12.17c4.16,0,5.81,1.53,5.81,3.87,0,.35-.03.69-.09,1.07l-.52,2.83c-.55,2.95-2.69,4.97-7.46,4.97h-18.1l.67-3.7h18.1c1.33,0,1.88-.23,2.05-1.21l.52-2.92c0-.09.03-.2.03-.29,0-.69-.52-.95-1.68-.95h-12.17c-4.16,0-5.81-1.5-5.81-3.87,0-.32.06-.69.12-1.07l.23-1.39c.49-2.95,2.72-4.94,7.46-4.94h17.61l-.64,3.67h0ZM175.83,213.87c-.52,2.92-2.66,4.91-7.4,4.91h-12.98c-4.13,0-5.78-1.53-5.78-3.84,0-.35.06-.69.12-1.07l2.72-15.44h4.71l-2.72,15.47c-.03.09-.03.17-.03.23,0,.67.58.95,1.65.95h12.98c1.19,0,1.88-.35,2.02-1.19l2.72-15.47h4.71l-2.72,15.44h0ZM205.91,203.35l-.55,3.15c-.52,2.92-2.66,4.91-7.4,4.91h-12.37l-1.3,7.37h-4.71l3.58-20.35h17.09c4.13,0,5.75,1.53,5.75,3.84,0,.35-.03.69-.09,1.07h0ZM231.25,202.11h-16.74l-.72,4.08h15.84l-.66,3.7h-15.84l-.9,5.2h16.74l-.67,3.7h-21.45l3.58-20.35h21.45l-.64,3.67h0ZM259.48,203.35l-.26,1.47c-.43,2.43-1.91,4.37-5.64,4.86l2.95,9.11h-4.94l-2.95-9.05h-9.83l-1.59,9.05h-4.71l3.59-20.35h17.69c4.13,0,5.78,1.53,5.78,3.87,0,.32-.03.66-.09,1.04h0ZM288.4,218.79h-2.31l-18.53-15.12-2.66,15.12h-4.11l3.58-20.35h4.08l16.88,14.17,2.52-14.17h4.13l-3.59,20.35h.01ZM317.5,202.11h-16.74l-.72,4.08h15.84l-.67,3.7h-15.84l-.9,5.2h16.74l-.67,3.7h-21.45l3.59-20.35h21.45l-.64,3.67h.01ZM345.59,213.88c-.52,2.92-2.66,4.91-7.4,4.91h-12.98c-4.13,0-5.78-1.53-5.78-3.84,0-.35.06-.69.11-1.07l2.72-15.44h4.71l-2.72,15.47c-.03.09-.03.17-.03.23,0,.67.58.95,1.65.95h12.98c1.19,0,1.88-.35,2.02-1.19l2.72-15.47h4.71l-2.72,15.44h.01ZM376.31,203.36l-.26,1.47c-.43,2.43-1.91,4.37-5.64,4.86l2.95,9.11h-4.95l-2.95-9.05h-9.83l-1.59,9.05h-4.71l3.58-20.35h17.69c4.13,0,5.78,1.53,5.78,3.87,0,.32-.03.66-.09,1.04h.02ZM407.06,203.36l-1.85,10.52c-.52,2.92-2.66,4.91-7.4,4.91h-13.79c-4.14,0-5.78-1.53-5.78-3.84,0-.35.06-.69.12-1.07l1.85-10.52c.52-2.92,2.66-4.91,7.4-4.91h13.79c4.13,0,5.75,1.53,5.75,3.84,0,.35-.03.69-.09,1.07Z" style="fill:#fff;"/><polygon points="69.84 234.69 63.47 242.25 65.46 242.25 70.22 236.5 72.86 242.25 74.8 242.25 71.13 234.69 69.84 234.69" style="fill:#fff;"/><path d="M76.36,236.52l-.69,3.91c-.02.14-.04.27-.04.4,0,.86.61,1.43,2.15,1.43h6.24l.25-1.37h-6.24c-.4,0-.61-.11-.61-.35,0-.02,0-.05.01-.09l.7-3.94c.05-.3.31-.44.75-.44h6.24l.24-1.36h-6.24c-1.76,0-2.56.74-2.75,1.82h0Z" style="fill:#fff;"/><path d="M86.55,236.52l-.69,3.91c-.02.14-.04.27-.04.4,0,.86.61,1.43,2.15,1.43h6.24l.25-1.37h-6.24c-.4,0-.61-.11-.61-.35,0-.02,0-.05.01-.09l.7-3.94c.05-.3.31-.44.75-.44h6.24l.24-1.36h-6.24c-1.76,0-2.56.74-2.75,1.82h0Z" style="fill:#fff;"/><polygon points="95.79 242.25 103.76 242.25 104.01 240.88 97.79 240.88 98.12 238.94 104.01 238.94 104.25 237.57 98.37 237.57 98.64 236.06 104.85 236.06 105.09 234.69 97.12 234.69 95.79 242.25" style="fill:#fff;"/><polygon points="108.44 234.69 106.67 234.69 105.34 242.25 113.09 242.25 113.34 240.88 107.36 240.88 108.44 234.69" style="fill:#fff;"/><polygon points="114.45 242.25 122.42 242.25 122.67 240.88 116.45 240.88 116.78 238.94 122.67 238.94 122.92 237.57 117.03 237.57 117.3 236.06 123.52 236.06 123.75 234.69 115.79 234.69 114.45 242.25" style="fill:#fff;"/><path d="M133.92,237.07l.1-.55c.02-.14.03-.27.03-.39,0-.87-.61-1.44-2.15-1.44h-6.57l-1.33,7.56h1.75l.59-3.36h3.65l1.09,3.36h1.83l-1.09-3.38c1.39-.18,1.93-.9,2.09-1.8h0ZM132.16,237.08c-.06.36-.29.45-.75.45h-4.82l.26-1.47h4.82c.46,0,.6.14.6.44l-.11.58h0Z" style="fill:#fff;"/><polygon points="140.2 234.69 133.83 242.25 135.81 242.25 140.57 236.5 143.21 242.25 145.16 242.25 141.48 234.69 140.2 234.69" style="fill:#fff;"/><polygon points="144.98 236.06 148.87 236.06 147.78 242.25 149.54 242.25 150.63 236.06 154.45 236.06 154.68 234.69 145.21 234.69 144.98 236.06" style="fill:#fff;"/><polygon points="154.73 242.25 156.48 242.25 157.81 234.69 156.06 234.69 154.73 242.25" style="fill:#fff;"/><polygon points="167.41 239.95 161.14 234.69 159.63 234.69 158.3 242.25 159.82 242.25 160.81 236.64 167.69 242.25 168.55 242.25 169.88 234.69 168.35 234.69 167.41 239.95" style="fill:#fff;"/><path d="M171.26,236.58l-.69,3.93c-.02.13-.03.25-.03.35,0,.94.8,1.39,2.2,1.39h4c1.67,0,2.52-.39,2.77-1.73l.43-2.39h-1.76l-.43,2.39c-.06.28-.38.35-.76.35h-4.01c-.35,0-.67-.07-.67-.31,0-.02,0-.04,0-.06l.69-3.92c.05-.32.27-.53.82-.53h6.36l.24-1.36h-6.35c-1.56,0-2.58.55-2.81,1.89h-.01Z" style="fill:#fff;"/><polygon points="195.81 239.95 189.54 234.69 188.03 234.69 186.7 242.25 188.22 242.25 189.21 236.64 196.09 242.25 196.95 242.25 198.28 234.69 196.75 234.69 195.81 239.95" style="fill:#fff;"/><polygon points="198.72 242.25 206.69 242.25 206.93 240.88 200.72 240.88 201.05 238.94 206.93 238.94 207.18 237.57 201.3 237.57 201.56 236.06 207.78 236.06 208.02 234.69 200.05 234.69 198.72 242.25" style="fill:#fff;"/><path d="M216.48,240.44c-.06.31-.31.44-.75.44h-4.82c-.4,0-.61-.11-.61-.35,0-.02,0-.05,0-.09l1.01-5.74h-1.75l-1.01,5.73c-.02.14-.04.27-.04.4,0,.86.61,1.43,2.15,1.43h4.82c1.76,0,2.56-.74,2.75-1.82l1.01-5.73h-1.75l-1.01,5.74h0Z" style="fill:#fff;"/><path d="M227.54,234.69h-6.57l-1.33,7.56h1.75l.59-3.36h3.65l1.09,3.36h1.83l-1.09-3.38c1.39-.18,1.93-.9,2.09-1.8l.1-.55c.02-.14.03-.27.03-.39,0-.87-.61-1.44-2.15-1.44h.01ZM227.8,237.07c-.06.36-.29.45-.75.45h-4.82l.26-1.47h4.82c.46,0,.6.14.6.44l-.11.58Z" style="fill:#fff;"/><path d="M238.99,234.69h-5.12c-1.76,0-2.56.74-2.75,1.82l-.69,3.91c-.02.14-.04.27-.04.4,0,.86.61,1.43,2.15,1.43h5.12c1.76,0,2.56-.74,2.75-1.82l.69-3.91c.02-.14.03-.27.03-.4,0-.86-.6-1.43-2.14-1.43ZM238.66,240.43c-.05.31-.31.44-.75.44h-5.12c-.4,0-.61-.11-.61-.35,0-.02,0-.05,0-.09l.7-3.94c.05-.3.31-.44.75-.44h5.12c.46,0,.6.14.6.44l-.7,3.94Z" style="fill:#fff;"/><polygon points="248.03 240.54 244.71 234.69 243.14 234.69 241.81 242.25 243.43 242.25 244.27 237.49 247 242.25 248.43 242.25 252.82 237.48 251.98 242.25 253.6 242.25 254.93 234.69 253.37 234.69 248.03 240.54" style="fill:#fff;"/><path d="M264.2,234.69h-5.12c-1.76,0-2.56.74-2.75,1.82l-.69,3.91c-.02.14-.04.27-.04.4,0,.86.61,1.43,2.15,1.43h5.12c1.76,0,2.56-.74,2.75-1.82l.69-3.91c.02-.14.03-.27.03-.4,0-.86-.6-1.43-2.14-1.43ZM263.87,240.43c-.05.31-.31.44-.75.44h-5.12c-.4,0-.61-.11-.61-.35,0-.02,0-.05.01-.09l.7-3.94c.05-.3.31-.44.75-.44h5.12c.46,0,.6.14.6.44l-.7,3.94h0Z" style="fill:#fff;"/><path d="M274.92,234.69h-6.57l-1.33,7.56h1.75l.59-3.36h3.65l1.1,3.36h1.83l-1.09-3.38c1.39-.18,1.93-.9,2.09-1.8l.1-.55c.02-.14.03-.27.03-.39,0-.87-.61-1.44-2.15-1.44h0ZM275.18,237.07c-.06.36-.29.45-.75.45h-4.82l.26-1.47h4.82c.46,0,.6.14.6.44l-.11.58h0Z" style="fill:#fff;"/><path d="M285.22,234.69h-6.35l-1.33,7.56h1.75l.48-2.74h4.6c1.76,0,2.56-.74,2.75-1.83l.2-1.17c.02-.14.03-.27.03-.4,0-.86-.6-1.43-2.14-1.43h0ZM285.57,236.55l-.2,1.15c-.05.28-.24.44-.58.44h-4.77l.37-2.08h4.76c.3,0,.44.16.44.4,0,.03-.01.06-.01.1h-.01Z" style="fill:#fff;"/><polygon points="296.02 237.57 290.27 237.57 290.77 234.69 289.02 234.69 287.69 242.25 289.44 242.25 290.02 238.94 295.78 238.94 295.2 242.25 296.96 242.25 298.29 234.69 296.53 234.69 296.02 237.57" style="fill:#fff;"/><polygon points="298.78 242.25 300.52 242.25 301.86 234.69 300.11 234.69 298.78 242.25" style="fill:#fff;"/><path d="M303.3,236.52l-.69,3.91c-.02.14-.04.27-.04.4,0,.86.61,1.43,2.15,1.43h6.24l.25-1.37h-6.24c-.4,0-.61-.11-.61-.35,0-.02,0-.05.01-.09l.7-3.94c.05-.3.31-.44.75-.44h6.24l.24-1.36h-6.24c-1.76,0-2.56.74-2.75,1.82h-.01Z" style="fill:#fff;"/><path d="M319.3,236.52l-.69,3.91c-.02.14-.04.27-.04.4,0,.86.61,1.43,2.15,1.43h6.24l.25-1.37h-6.24c-.4,0-.61-.11-.61-.35,0-.02,0-.05.01-.09l.7-3.94c.05-.3.31-.44.75-.44h6.24l.24-1.36h-6.24c-1.76,0-2.56.74-2.75,1.82h-.01Z" style="fill:#fff;"/><path d="M337.36,234.69h-5.12c-1.76,0-2.56.74-2.75,1.82l-.69,3.91c-.02.14-.04.27-.04.4,0,.86.61,1.43,2.15,1.43h5.12c1.76,0,2.56-.74,2.75-1.82l.69-3.91c.02-.14.03-.27.03-.4,0-.86-.6-1.43-2.14-1.43h0ZM337.03,240.43c-.05.31-.31.44-.75.44h-5.12c-.4,0-.61-.11-.61-.35,0-.02,0-.05.01-.09l.7-3.94c.05-.3.31-.44.75-.44h5.12c.46,0,.6.14.6.44l-.7,3.94h0Z" style="fill:#fff;"/><polygon points="346.39 240.54 343.08 234.69 341.51 234.69 340.18 242.25 341.8 242.25 342.64 237.49 345.36 242.25 346.8 242.25 351.18 237.48 350.35 242.25 351.97 242.25 353.3 234.69 351.74 234.69 346.39 240.54" style="fill:#fff;"/><path d="M361.42,234.69h-6.35l-1.33,7.56h1.75l.48-2.74h4.6c1.76,0,2.56-.74,2.75-1.83l.2-1.17c.02-.14.03-.27.03-.4,0-.86-.6-1.43-2.14-1.43h0ZM361.77,236.55l-.2,1.15c-.05.28-.24.44-.58.44h-4.77l.37-2.08h4.76c.3,0,.44.16.44.4,0,.03-.01.06-.01.1h-.01Z" style="fill:#fff;"/><path d="M372.11,240.44c-.06.31-.31.44-.75.44h-4.82c-.4,0-.61-.11-.61-.35,0-.02,0-.05.01-.09l1.01-5.74h-1.75l-1.01,5.73c-.02.14-.04.27-.04.4,0,.86.61,1.43,2.15,1.43h4.82c1.76,0,2.56-.74,2.75-1.82l1.01-5.73h-1.75l-1.01,5.74h-.01Z" style="fill:#fff;"/><polygon points="375.91 236.06 379.81 236.06 378.71 242.25 380.48 242.25 381.57 236.06 385.38 236.06 385.62 234.69 376.15 234.69 375.91 236.06" style="fill:#fff;"/><polygon points="385.67 242.25 387.41 242.25 388.75 234.69 387 234.69 385.67 242.25" style="fill:#fff;"/><polygon points="398.35 239.95 392.08 234.69 390.56 234.69 389.23 242.25 390.76 242.25 391.74 236.64 398.63 242.25 399.49 242.25 400.82 234.69 399.28 234.69 398.35 239.95" style="fill:#fff;"/><path d="M402.2,236.58l-.69,3.93c-.02.13-.03.25-.03.35,0,.94.8,1.39,2.2,1.39h3.99c1.68,0,2.52-.39,2.77-1.73l.43-2.39h-1.76l-.43,2.39c-.06.28-.38.35-.76.35h-4.01c-.35,0-.67-.07-.67-.31,0-.02.01-.04.01-.06l.69-3.92c.05-.32.27-.53.82-.53h6.36l.24-1.36h-6.35c-1.56,0-2.58.55-2.82,1.89h.01Z" style="fill:#fff;"/><path d="M257.13,129.37c5.65,0,10.23-4.58,10.23-10.23s-4.58-10.23-10.23-10.23-10.23,4.58-10.23,10.23c0,2.43.88,4.63,2.3,6.39l-6.31,6.48c-.85-.52-1.83-.84-2.9-.84-.5,0-.98.09-1.45.21l-2.79-5.29c2.52-1.4,4.24-4.05,4.24-7.13,0-4.52-3.66-8.18-8.18-8.18s-8.18,3.66-8.18,8.18c0,2.89,1.51,5.42,3.77,6.87l-3.35,20.55c-2.92.18-5.23,2.57-5.23,5.53s2.49,5.57,5.57,5.57,5.57-2.49,5.57-5.57c0-2.34-1.45-4.33-3.49-5.16l3.25-19.92c.67.18,1.37.3,2.1.3.56,0,1.11-.06,1.64-.17l2.93,5.54c-1.19,1.02-1.96,2.52-1.96,4.21,0,3.08,2.49,5.57,5.57,5.57s5.57-2.49,5.57-5.57c0-1.12-.34-2.16-.91-3.03l6.3-6.46c1.72,1.32,3.85,2.13,6.19,2.13l-.02.02Z" style="fill:#fff;"/><path d="M297.31,108.08c4.71,0,8.54-3.82,8.54-8.54s-3.82-8.54-8.54-8.54c-.75,0-1.47.13-2.16.31l-2.63-7.52c1.96-1.14,3.29-3.23,3.29-5.66,0-3.63-2.94-6.56-6.57-6.56s-6.56,2.94-6.56,6.56,2.94,6.56,6.56,6.56c.33,0,.65-.05.96-.1l2.68,7.66c-1.66,1.01-2.93,2.56-3.59,4.42l-9.88-3.93c.05-.41.13-.82.13-1.24,0-5.35-4.34-9.69-9.69-9.69s-9.69,4.34-9.69,9.69,4.34,9.69,9.69,9.69c1.08,0,2.09-.22,3.06-.54.83,1.98,1.67,4.01,2.43,5.88-1.86,1.17-3.1,3.23-3.1,5.59,0,3.65,2.96,6.62,6.62,6.62s6.62-2.96,6.62-6.62-2.96-6.62-6.62-6.62c-.43,0-.84.05-1.24.13-.78-1.91-1.64-3.99-2.49-6.01,1.64-1.07,2.94-2.63,3.69-4.47l9.99,3.98c0,.14-.04.27-.04.41,0,4.71,3.82,8.54,8.54,8.54h0Z" style="fill:#fff;"/><path d="M212.59,59.8c3.55,0,6.43-2.88,6.43-6.43,0-.37-.05-.72-.11-1.07l9.18-1.97c.99,4.57,5.05,8,9.92,8,3.6,0,6.74-1.88,8.55-4.7l22.43,13.78c-.15.48-.26.99-.26,1.52,0,2.8,2.27,5.07,5.07,5.07s5.07-2.27,5.07-5.07-2.27-5.07-5.07-5.07c-.24,0-.46.04-.69.07l-3.82-9.54c1.69-.96,3.06-2.42,3.82-4.23l8.48,3.88c-.02.25-.07.49-.07.74,0,4.51,3.66,8.17,8.17,8.17,2.08,0,3.96-.8,5.41-2.09l6.16,3.34c-.76,1.14-1.21,2.5-1.21,3.97,0,3.94,3.2,7.14,7.14,7.14.87,0,1.7-.18,2.47-.46l3.36,7.8c-1.17,1.07-1.91,2.59-1.91,4.3,0,3.22,2.61,5.84,5.84,5.84s5.84-2.61,5.84-5.84-2.61-5.84-5.84-5.84c-.63,0-1.22.13-1.79.31l-3.37-7.82c1.55-1.31,2.55-3.24,2.55-5.43,0-3.95-3.2-7.14-7.14-7.14-1.56,0-2.98.51-4.16,1.35l-6.35-3.44c.73-1.22,1.18-2.64,1.18-4.17,0-4.51-3.66-8.17-8.17-8.17-3.39,0-6.29,2.06-7.53,5l-8.46-3.87c.04-.33.1-.66.1-1,0-4.87-3.95-8.83-8.83-8.83s-8.83,3.95-8.83,8.83,3.95,8.83,8.83,8.83c.71,0,1.39-.11,2.05-.26l3.82,9.53c-.21.15-.41.31-.59.48l-22.65-13.92c.34-1.02.57-2.09.57-3.23,0-5.61-4.55-10.16-10.16-10.16s-9.97,4.39-10.13,9.87l-9.85,2.12c-1.14-1.82-3.14-3.04-5.44-3.04-3.55,0-6.43,2.88-6.43,6.43s2.88,6.43,6.43,6.43h0Z" style="fill:#fff;"/><path d="M239.48,101.32l-21.5-4.51c-.06-3.21-2.68-5.8-5.91-5.8s-5.92,2.65-5.92,5.92,2.65,5.92,5.92,5.92c2.46,0,4.56-1.5,5.46-3.63l21.62,4.54c.18,3,2.42,5.58,5.51,6.06,3.56.55,6.9-1.89,7.45-5.45.55-3.52-1.83-6.81-5.33-7.42l-.45-4.62c2.28-.74,3.93-2.86,3.93-5.38,0-3.14-2.54-5.68-5.68-5.68-2.35,0-4.37,1.43-5.23,3.47l-7.03-1.3c-.15-3-1.8-5.58-4.23-7.03l2.41-5.13c.42.08.85.13,1.29.13,2.58,0,4.78-1.5,5.84-3.67l11.6,4.4c0,.11-.03.22-.03.34,0,3.14,2.54,5.68,5.68,5.68s5.68-2.54,5.68-5.68-2.54-5.68-5.68-5.68c-2.16,0-4.01,1.21-4.97,2.98l-11.64-4.42c0-.16.05-.32.05-.49,0-3.61-2.92-6.53-6.53-6.53s-6.53,2.92-6.53,6.53c0,2.29,1.19,4.3,2.97,5.47l-2.4,5.12c-.71-.19-1.45-.32-2.22-.32-4.83,0-8.75,3.92-8.75,8.75s3.92,8.75,8.75,8.75c4.14,0,7.59-2.89,8.5-6.75l6.8,1.26c.1,2.81,2.23,5.08,4.98,5.42l.43,4.44c-2.24.47-4.11,2.1-4.85,4.33v-.02Z" style="fill:#fff;"/><path d="M190.49,95.68c-3.71,0-6.71,3-6.71,6.71s3,6.71,6.71,6.71c2.03,0,3.83-.92,5.06-2.35l5.85,4.2c-1.47,1.48-2.39,3.52-2.39,5.77,0,4.52,3.66,8.18,8.18,8.18,1.66,0,3.2-.5,4.49-1.35l4.59,9.05c-1.46.73-2.47,2.23-2.47,3.97,0,2.47,2,4.46,4.46,4.46s4.46-2,4.46-4.46c0-2.28-1.72-4.14-3.93-4.41l-5.26-10.35c1.12-1.4,1.82-3.15,1.82-5.09,0-4.52-3.66-8.18-8.18-8.18-1.33,0-2.57.35-3.68.91l-6.73-4.83c.25-.7.41-1.45.41-2.24,0-2.48-1.37-4.63-3.37-5.79l1.66-9.5c.35.03.69.11,1.05.11,6.6,0,11.95-5.35,11.95-11.95s-5.35-11.95-11.95-11.95-11.95,5.35-11.95,11.95c0,5.39,3.59,9.89,8.49,11.38l-1.6,9.14c-.33-.05-.65-.1-.99-.1h.03Z" style="fill:#fff;"/></svg>